<svg width="91" height="90" viewBox="0 0 91 90" fill="none" xmlns="http://www.w3.org/2000/svg">
<path d="M2.21032 56.0865C2.70349 56.4292 3.22428 56.7302 3.76732 56.9865C4.41532 57.318 5.50282 57.873 5.57932 58.2615C5.6736 58.7743 5.61194 59.3036 5.40232 59.781C5.17882 60.261 4.94482 60.6735 4.74232 61.029C4.19332 61.9996 3.27382 63.6256 4.65982 64.7581C4.98382 65.0581 5.54332 65.4916 6.05332 65.8831C5.67788 66.5395 5.50806 67.2935 5.56582 68.0476C5.64541 68.6414 5.96744 69.1758 6.45532 69.5236C6.78832 69.7576 7.14382 69.9616 7.49332 70.1611C8.38132 70.6651 8.72782 70.9006 8.84332 71.3716C8.92666 71.9753 8.87544 72.59 8.69332 73.1716C8.60482 73.5721 8.51932 73.9741 8.46832 74.3716C8.31937 75.7386 8.48826 77.1216 8.96182 78.4126C9.63655 80.7958 11.7923 82.4562 14.2688 82.5001C14.6822 82.4988 15.0944 82.4551 15.4988 82.3696C19.784 81.3538 24.0066 80.0902 28.1453 78.5851C31.5248 80.5681 33.6593 86.5981 34.2158 88.8616C34.382 89.5307 34.9829 90.0004 35.6723 90.0001L73.3224 89.8951C73.7995 89.8941 74.2478 89.6663 74.5297 89.2813C74.8116 88.8964 74.8935 88.4002 74.7504 87.9451C74.3795 86.9287 73.868 85.9694 73.2309 85.0951C72.8712 84.5765 72.547 84.0343 72.2604 83.4721C71.581 82.0974 71.0146 80.6697 70.5669 79.2031C69.7103 76.3053 69.1164 73.3363 68.7924 70.3321C68.4008 66.8577 68.7328 63.3399 69.7674 60H73.5024C75.9877 60 78.0024 57.9853 78.0024 55.5V36C78.0024 35.1716 77.3308 34.5 76.5024 34.5H70.4484C70.4836 34.2516 70.5017 34.001 70.5024 33.75C70.5024 30.8505 68.1519 28.5 65.2524 28.5C62.3529 28.5 60.0024 30.8505 60.0024 33.75C60.0031 34.001 60.0211 34.2516 60.0564 34.5H55.5024V29.9475C56.3312 30.0656 57.1762 29.9859 57.9684 29.715C59.6808 29.1318 60.968 27.702 61.3689 25.938C61.7614 24.2487 61.2943 22.4745 60.1208 21.1975C58.9473 19.9204 57.2188 19.3053 55.5024 19.554V13.5C55.5024 12.6716 54.8308 12 54.0024 12H34.5023C32.0171 12 30.0023 14.0147 30.0023 16.5V55.5C30.0023 57.9853 32.0171 60 34.5023 60H66.6174C65.6733 63.4818 65.402 67.1116 65.8179 70.6951C66.1639 73.8803 66.7954 77.0279 67.7049 80.1001C68.1984 81.7125 68.821 83.2825 69.5664 84.7951C69.9086 85.4744 70.297 86.1294 70.7289 86.7556L70.8294 86.9056L36.8063 87.0001C35.8106 83.4418 34.0032 80.1629 31.5263 77.4211L32.8763 76.9486C33.8813 76.5976 34.6388 76.3336 35.0273 76.2091C41.4534 74.1766 44.6664 71.2501 44.5794 67.5091C44.5599 66.6806 43.8725 66.0248 43.0441 66.0443C42.2157 66.0638 41.5599 66.7511 41.5794 67.5796C41.6154 69.1231 40.3509 71.3746 34.1153 73.3471C33.7088 73.4776 32.9258 73.7506 31.8863 74.1136C30.7718 74.5036 29.3543 74.9986 27.7913 75.5296H27.7808C23.5595 77.0769 19.2524 78.3791 14.8808 79.4296C13.485 79.6946 12.1281 78.8131 11.8028 77.4301C11.4824 76.5767 11.3618 75.6613 11.4503 74.7541C11.4893 74.4391 11.5613 74.1271 11.6303 73.8136C11.936 72.7765 11.9808 71.6801 11.7608 70.6216C11.3245 69.2436 10.3106 68.1235 8.98282 67.5526L8.67232 67.3756C8.83429 67.0485 9.0277 66.7381 9.24982 66.4486C9.50146 66.1297 9.61304 65.7224 9.55904 65.3199C9.50504 64.9173 9.29009 64.5538 8.96332 64.3126C8.60332 64.0486 7.75432 63.4126 7.13332 62.9116C7.20532 62.7811 7.28332 62.6371 7.35832 62.5066C7.59382 62.0941 7.86232 61.6141 8.12482 61.0591C8.59949 60.0076 8.73931 58.8356 8.52532 57.702C8.16532 55.872 6.41182 54.975 5.13382 54.321C4.70227 54.116 4.28837 53.8757 3.89632 53.6025C3.57737 53.387 3.2782 53.1435 3.00232 52.875C3.00232 52.647 3.24682 52.095 4.38982 50.7045C7.07643 47.2459 9.37991 43.506 11.2598 39.5505C11.6113 38.9308 11.8094 38.2359 11.8373 37.524C11.6824 36.0163 10.8834 34.6491 9.64582 33.774C9.04582 33.2175 8.46832 32.6925 8.40082 32.2035C8.41077 31.8495 8.49028 31.5009 8.63482 31.1775C8.87932 30.534 9.16132 29.904 9.44482 29.2725C10.0599 28.0043 10.5512 26.6796 10.9118 25.317L11.0618 24.678C11.3785 23.1784 11.7867 21.6996 12.2843 20.25C13.4668 16.9864 15.2975 13.9959 17.6663 11.4585C20.5358 8.42251 25.0523 6.27451 31.1123 5.07C35.7462 4.05253 40.4482 3.37523 45.1809 3.0435C52.0156 2.70209 58.7819 4.54219 64.5024 8.29801V9.75001C64.5024 10.3182 64.8234 10.8376 65.3316 11.0916C65.8397 11.3457 66.4478 11.2909 66.9024 10.95C67.8826 10.2584 69.2288 10.431 70.0029 11.3475C70.4388 11.8925 70.5988 12.6083 70.4364 13.287C70.2603 14.0256 69.7196 14.6234 69.0024 14.8725C68.2896 15.1236 67.4986 15.0026 66.8934 14.55C66.4389 14.2144 65.8344 14.1627 65.3295 14.4161C64.8246 14.6695 64.5049 15.1851 64.5024 15.75V22.5C64.5024 24.1569 65.8455 25.5 67.5024 25.5H74.2524C74.8205 25.5 75.3399 25.179 75.594 24.6708C75.8481 24.1627 75.7933 23.5545 75.4524 23.1C74.7562 22.1718 74.8801 20.8663 75.7384 20.0856C76.5967 19.3048 77.908 19.3048 78.7664 20.0856C79.6247 20.8663 79.7486 22.1718 79.0524 23.1C78.7115 23.5545 78.6566 24.1627 78.9107 24.6708C79.1648 25.179 79.6842 25.5 80.2524 25.5H88.5024C89.3308 25.5 90.0024 24.8284 90.0024 24V4.5C90.0024 2.01472 87.9877 0 85.5024 0H66.0024C65.1739 0 64.5024 0.671573 64.5024 1.5V4.7055C58.5922 1.31793 51.8328 -0.299289 45.0294 0.0465C40.1485 0.385033 35.299 1.0809 30.5198 2.1285C23.7563 3.4785 18.8408 5.85 15.4853 9.39601C12.8384 12.2283 10.7919 15.5667 9.46882 19.2105C8.92863 20.7784 8.4848 22.3779 8.13982 24L7.98982 24.633C7.66968 25.8095 7.24031 26.9535 6.70732 28.05C6.40732 28.734 6.09532 29.418 5.82682 30.126C5.48159 30.9141 5.34521 31.7779 5.43082 32.634C5.73264 33.9783 6.50847 35.169 7.61632 35.988C8.34982 36.66 8.83132 37.134 8.83732 37.5465C8.78365 37.7745 8.69779 37.9937 8.58232 38.1975C6.78604 41.9794 4.58573 45.5557 2.01982 48.864C0.932317 50.187 -0.207684 51.7305 0.0323165 53.2755C0.350496 54.4674 1.13565 55.4808 2.21032 56.0865ZM33.0023 16.5C33.0023 15.6716 33.6739 15 34.5023 15H52.5024V21.75C52.5024 22.3182 52.8234 22.8376 53.3315 23.0917C53.8397 23.3457 54.4478 23.2909 54.9024 22.95C55.8826 22.2584 57.2288 22.431 58.0029 23.3475C58.4388 23.8925 58.5988 24.6083 58.4364 25.287C58.2603 26.0256 57.7196 26.6234 57.0024 26.8725C56.2873 27.1235 55.494 27.0002 54.8889 26.544C54.4336 26.2104 53.8296 26.1607 53.3258 26.4153C52.8221 26.6698 52.5039 27.1856 52.5024 27.75V34.5H47.9514C48.0675 33.672 47.9874 32.8283 47.7174 32.037C47.1355 30.3234 45.7062 29.0344 43.9419 28.632C42.3812 28.269 40.7402 28.6385 39.4858 29.6355C38.2314 30.6325 37.501 32.1477 37.5023 33.75C37.5031 34.001 37.5211 34.2516 37.5563 34.5H33.0023V16.5ZM33.0023 55.5V37.5H39.7523C40.3205 37.5 40.8399 37.179 41.094 36.6709C41.3481 36.1627 41.2932 35.5546 40.9523 35.1C40.2271 34.1279 40.403 32.7559 41.3499 31.998C41.8956 31.5623 42.6119 31.4029 43.2909 31.566C44.0297 31.741 44.6275 32.2822 44.8749 33C45.1276 33.7147 45.0036 34.5086 44.5449 35.112C44.2102 35.5676 44.1601 36.1725 44.4152 36.6769C44.6702 37.1813 45.1871 37.4995 45.7524 37.5H52.5024V42.054C50.4672 41.7599 48.4476 42.6809 47.3354 44.4106C46.2233 46.1402 46.2233 48.3599 47.3354 50.0895C48.4476 51.8191 50.4672 52.7402 52.5024 52.446V57H34.5023C33.6739 57 33.0023 56.3285 33.0023 55.5ZM54.6699 48.9C54.159 48.6494 53.5506 48.7074 53.0964 49.05C52.1681 49.7462 50.8627 49.6224 50.0819 48.764C49.3012 47.9057 49.3012 46.5944 50.0819 45.736C50.8627 44.8777 52.1681 44.7538 53.0964 45.45C53.5509 45.7909 54.159 45.8458 54.6672 45.5917C55.1754 45.3376 55.4964 44.8182 55.4964 44.25V37.5H62.2464C62.8145 37.5 63.3339 37.179 63.588 36.6709C63.8421 36.1627 63.7873 35.5546 63.4464 35.1C62.7502 34.1718 62.874 32.8663 63.7324 32.0856C64.5907 31.3048 65.902 31.3048 66.7604 32.0856C67.6187 32.8663 67.7426 34.1718 67.0464 35.1C66.7055 35.5546 66.6506 36.1627 66.9047 36.6709C67.1588 37.179 67.6782 37.5 68.2464 37.5H75.0024V55.5C75.0024 56.3285 74.3308 57 73.5024 57H55.5024V50.25C55.5049 49.6781 55.182 49.1545 54.6699 48.9ZM67.5024 3H85.5024C86.3308 3 87.0024 3.67158 87.0024 4.5V22.5H82.4484C82.4836 22.2516 82.5017 22.001 82.5024 21.75C82.5024 18.8505 80.1519 16.5 77.2524 16.5C74.3529 16.5 72.0024 18.8505 72.0024 21.75C72.0031 22.001 72.0211 22.2516 72.0564 22.5H67.5024V17.9475C68.3312 18.0656 69.1762 17.9859 69.9684 17.715C71.6808 17.1318 72.968 15.702 73.3689 13.938C73.7614 12.2487 73.2943 10.4745 72.1208 9.19744C70.9473 7.92041 69.2188 7.30534 67.5024 7.55401V3Z" fill="#595959"/>
<path d="M16.7514 26.6865L16.9014 26.0355C17.1676 24.7818 17.5052 23.5443 17.9124 22.329C18.8148 19.8219 20.2189 17.5251 22.0389 15.579C23.2062 14.4051 24.5924 13.4715 26.1189 12.831C26.6248 12.6229 26.9773 12.1558 27.0387 11.6121C27.1001 11.0685 26.8606 10.5346 26.4139 10.2189C25.9671 9.90314 25.3839 9.85568 24.8919 10.095C23.0043 10.8945 21.2931 12.0587 19.8564 13.521C17.756 15.7629 16.1354 18.4099 15.0939 21.3C14.6413 22.6325 14.2671 23.9903 13.9734 25.3665L13.8234 26.0265C13.7339 26.4155 13.803 26.8241 14.0155 27.1619C14.2281 27.4997 14.5665 27.7389 14.9559 27.8265C15.0646 27.8515 15.1759 27.8641 15.2874 27.864C15.9912 27.8636 16.6001 27.3739 16.7514 26.6865Z" fill="#595959"/>
<path d="M13.5024 33C14.3309 33 15.0024 32.3284 15.0024 31.5C15.0024 30.6716 14.3309 30 13.5024 30C12.674 30 12.0024 30.6716 12.0024 31.5C12.0024 32.3284 12.674 33 13.5024 33Z" fill="#595959"/>
</svg>
