<svg width="90" height="90" viewBox="0 0 90 90" fill="none" xmlns="http://www.w3.org/2000/svg">
<path d="M82.5 0H19.5C17.5116 0.00238179 15.6053 0.793323 14.1993 2.19933C12.7933 3.60534 12.0024 5.51161 12 7.5V39H15V7.5C15 6.30653 15.4741 5.16193 16.318 4.31802C17.1619 3.47411 18.3065 3 19.5 3H82.5C83.6935 3 84.8381 3.47411 85.682 4.31802C86.5259 5.16193 87 6.30653 87 7.5V45H60V48H87V52.5C87 53.6935 86.5259 54.8381 85.682 55.682C84.8381 56.5259 83.6935 57 82.5 57H60V60H60.1755L61.3005 69H60V72H67.5V75H60V78H67.5C68.2956 78 69.0587 77.6839 69.6213 77.1213C70.1839 76.5587 70.5 75.7956 70.5 75V72C70.5 71.2044 70.1839 70.4413 69.6213 69.8787C69.0587 69.3161 68.2956 69 67.5 69H64.3245L63.1995 60H82.5C84.4884 59.9976 86.3947 59.2067 87.8007 57.8007C89.2067 56.3947 89.9976 54.4884 90 52.5V7.5C89.9976 5.51161 89.2067 3.60534 87.8007 2.19933C86.3947 0.793323 84.4884 0.00238179 82.5 0V0Z" fill="#595959"/>
<path d="M78 51H81V54H78V51Z" fill="#595959"/>
<path d="M52.5 42H30V45H52.5C52.8978 45 53.2794 45.158 53.5607 45.4393C53.842 45.7206 54 46.1022 54 46.5V54H30V57H54V81H3V57H15V54H3V46.5C3 46.1022 3.15804 45.7206 3.43934 45.4393C3.72064 45.158 4.10218 45 4.5 45H15V42H4.5C3.30762 42.0036 2.1651 42.4788 1.32195 43.322C0.478811 44.1651 0.00356114 45.3076 0 46.5V85.5C0.00356114 86.6924 0.478811 87.8349 1.32195 88.678C2.1651 89.5212 3.30762 89.9964 4.5 90H52.5C53.6924 89.9964 54.8349 89.5212 55.678 88.678C56.5212 87.8349 56.9964 86.6924 57 85.5V46.5C56.9964 45.3076 56.5212 44.1651 55.678 43.322C54.8349 42.4788 53.6924 42.0036 52.5 42V42ZM54 85.5C54 85.8978 53.842 86.2794 53.5607 86.5607C53.2794 86.842 52.8978 87 52.5 87H4.5C4.10218 87 3.72064 86.842 3.43934 86.5607C3.15804 86.2794 3 85.8978 3 85.5V84H54V85.5Z" fill="#595959"/>
<path d="M6 48H12V51H6V48Z" fill="#595959"/>
<path d="M45 48H51V51H45V48Z" fill="#595959"/>
<path d="M36 48H42V51H36V48Z" fill="#595959"/>
<path d="M25.5 34.5H19.5C19.1022 34.5 18.7206 34.658 18.4393 34.9393C18.158 35.2206 18 35.6022 18 36V48H15V51H18V67.5C18.0014 67.7348 18.0579 67.966 18.165 68.175L19.665 71.175C19.7864 71.4249 19.9764 71.6352 20.2128 71.7813C20.4491 71.9273 20.7222 72.0032 21 72V75H24V72C24.2778 72.0032 24.5509 71.9273 24.7872 71.7813C25.0236 71.6352 25.2136 71.4249 25.335 71.175L26.835 68.175C26.9421 67.966 26.9986 67.7348 27 67.5V36C27 35.6022 26.842 35.2206 26.5607 34.9393C26.2794 34.658 25.8978 34.5 25.5 34.5ZM24 67.14L23.07 69H21.93L21 67.14V43.5H24V67.14ZM24 40.5H21V37.5H24V40.5Z" fill="#595959"/>
<path d="M48 7.5H30C29.6022 7.5 29.2206 7.65804 28.9393 7.93934C28.658 8.22064 28.5 8.60218 28.5 9V27C28.5 27.3978 28.658 27.7794 28.9393 28.0607C29.2206 28.342 29.6022 28.5 30 28.5H34.5V25.5H31.5V10.5H46.5V13.5H49.5V9C49.5 8.60218 49.342 8.22064 49.0607 7.93934C48.7794 7.65804 48.3978 7.5 48 7.5Z" fill="#595959"/>
<path d="M49.5 27V22.5H46.5V25.5H43.5V28.5H48C48.3978 28.5 48.7794 28.342 49.0607 28.0607C49.342 27.7794 49.5 27.3978 49.5 27Z" fill="#595959"/>
<path d="M37.5 16.5H40.5V19.5H37.5V16.5Z" fill="#595959"/>
<path d="M43.5 16.5H46.5V19.5H43.5V16.5Z" fill="#595959"/>
<path d="M55.5 28.5H58.5V31.5H55.5V28.5Z" fill="#595959"/>
<path d="M55.5 34.5H58.5V37.5H55.5V34.5Z" fill="#595959"/>
<path d="M49.5 34.5H52.5V37.5H49.5V34.5Z" fill="#595959"/>
<path d="M43.5 34.5H46.5V37.5H43.5V34.5Z" fill="#595959"/>
<path d="M37.5 22.5H40.5V25.5H37.5V22.5Z" fill="#595959"/>
<path d="M37.5 28.5H40.5V31.5H37.5V28.5Z" fill="#595959"/>
<path d="M37.5 34.5H40.5V37.5H37.5V34.5Z" fill="#595959"/>
<path d="M63 28.5C65.0767 28.5 67.1068 27.8842 68.8335 26.7304C70.5602 25.5767 71.906 23.9368 72.7007 22.0182C73.4955 20.0996 73.7034 17.9884 73.2982 15.9516C72.8931 13.9148 71.8931 12.0438 70.4246 10.5754C68.9562 9.10693 67.0852 8.1069 65.0484 7.70176C63.0116 7.29661 60.9004 7.50455 58.9818 8.29927C57.0632 9.09399 55.4233 10.4398 54.2696 12.1665C53.1158 13.8932 52.5 15.9233 52.5 18C52.5032 20.7838 53.6104 23.4527 55.5789 25.4211C57.5473 27.3896 60.2162 28.4968 63 28.5ZM63 10.5C64.4834 10.5 65.9334 10.9399 67.1668 11.764C68.4001 12.5881 69.3614 13.7594 69.9291 15.1299C70.4968 16.5003 70.6453 18.0083 70.3559 19.4632C70.0665 20.918 69.3522 22.2544 68.3033 23.3033C67.2544 24.3522 65.918 25.0665 64.4632 25.3559C63.0083 25.6453 61.5003 25.4968 60.1299 24.9291C58.7594 24.3614 57.5881 23.4001 56.764 22.1668C55.9399 20.9334 55.5 19.4834 55.5 18C55.5024 16.0116 56.2933 14.1053 57.6993 12.6993C59.1053 11.2933 61.0116 10.5024 63 10.5V10.5Z" fill="#595959"/>
</svg>
