<svg width="90" height="90" viewBox="0 0 90 90" fill="none" xmlns="http://www.w3.org/2000/svg">
<path d="M23.2256 7.2583H26.1288V10.1615H23.2256V7.2583Z" fill="#595959"/>
<path d="M29.0322 7.2583H31.9355V10.1615H29.0322V7.2583Z" fill="#595959"/>
<path d="M34.8389 7.2583H37.7421V10.1615H34.8389V7.2583Z" fill="#595959"/>
<path d="M63.8713 76.9354H60.9681V65.3225H52.2584V76.9354H49.3552V62.4192H40.6455V79.8386H72.581V56.6128H63.8713V76.9354ZM46.452 76.9354H43.5487V65.3225H46.452V76.9354ZM55.1616 68.2257H58.0649V76.9354H55.1616V68.2257ZM66.7745 59.516H69.6778V76.9354H66.7745V59.516Z" fill="#595959"/>
<path d="M81.29 50.8066H84.1933V53.7099H81.29V50.8066Z" fill="#595959"/>
<path d="M81.29 45H84.1933V47.9032H81.29V45Z" fill="#595959"/>
<path d="M81.29 39.1934H84.1933V42.0966H81.29V39.1934Z" fill="#595959"/>
<path d="M90 0H17.4194V14.5161C11.8161 14.5161 7.25806 19.0742 7.25806 24.6774C7.25806 27.9247 8.79387 30.8119 11.1716 32.6744C4.70323 34.7153 0 40.77 0 47.9032V58.0645C0 61.2668 2.60419 63.871 5.80645 63.871H7.25806V84.1936C7.25806 87.3958 9.86226 90 13.0645 90C14.8065 90 16.3539 89.2132 17.4194 87.9939C18.4848 89.2132 20.0323 90 21.7742 90C24.9765 90 27.5806 87.3958 27.5806 84.1936V58.0645H34.8387V79.8387C34.8387 82.2397 36.7926 84.1936 39.1935 84.1936H74.0323C76.4332 84.1936 78.3871 82.2397 78.3871 79.8387V58.0645H90V0ZM87.0968 2.90323V11.6129H20.3226V2.90323H87.0968ZM10.1613 24.6774C10.1613 20.6753 13.4173 17.4194 17.4194 17.4194C21.4215 17.4194 24.6774 20.6753 24.6774 24.6774C24.6774 28.6795 21.4215 31.9355 17.4194 31.9355C13.4173 31.9355 10.1613 28.6795 10.1613 24.6774ZM18.8202 45.9015L17.4194 47.3023L16.0185 45.9015L16.9403 34.8387H17.4194H17.8984L18.8202 45.9015ZM24.6774 48.2865V84.1936C24.6774 85.7947 23.3753 87.0968 21.7742 87.0968C20.1731 87.0968 18.871 85.7947 18.871 84.1936V58.0645H15.9677V84.1936C15.9677 85.7947 14.6656 87.0968 13.0645 87.0968C11.4634 87.0968 10.1613 85.7947 10.1613 84.1936V45H7.25806V60.9677H5.80645C4.20532 60.9677 2.90323 59.6656 2.90323 58.0645V47.9032C2.90323 41.3652 7.73565 35.9492 14.0139 35.0013L13.0137 47.0018L17.4194 51.4074L21.825 47.0018L20.8118 34.8387H25.1158C26.9971 34.8387 28.8377 34.3176 30.4403 33.3305L46.3935 23.5132C46.6998 23.3245 47.0526 23.2258 47.4126 23.2258C48.4824 23.2258 49.3548 24.0982 49.3548 25.1681V25.7342C49.3548 26.3961 49.0224 27.0058 48.4679 27.3658L29.3197 39.7568C26.4121 41.6366 24.6774 44.8258 24.6774 48.2865ZM75.4839 79.8387C75.4839 80.6386 74.8321 81.2903 74.0323 81.2903H39.1935C38.3937 81.2903 37.7419 80.6386 37.7419 79.8387V53.7097C37.7419 52.9098 38.3937 52.2581 39.1935 52.2581H74.0323C74.8321 52.2581 75.4839 52.9098 75.4839 53.7097V79.8387ZM78.3871 55.1613V53.7097C78.3871 51.3087 76.4332 49.3548 74.0323 49.3548H39.1935C36.7926 49.3548 34.8387 51.3087 34.8387 53.7097V55.1613H27.5806V48.2865C27.5806 45.8144 28.8203 43.5368 30.8961 42.1926L50.0444 29.8031C50.7527 29.3458 51.3087 28.7216 51.689 28.0045L54.3324 31.1763C53.9463 31.8266 53.7097 32.5771 53.7097 33.3871C53.7097 35.7881 55.6636 37.7419 58.0645 37.7419C59.114 37.7419 60.0663 37.3529 60.8182 36.7331L68.3129 41.2302C68.2563 41.5103 68.2258 41.7992 68.2258 42.0968C68.2258 44.4977 70.1797 46.4516 72.5806 46.4516C74.9816 46.4516 76.9355 44.4977 76.9355 42.0968C76.9355 40.7395 76.2982 39.539 75.3213 38.7406L79.8256 26.1276C79.83 26.1276 79.8344 26.129 79.8387 26.129C82.2397 26.129 84.1936 24.1752 84.1936 21.7742C84.1936 19.3732 82.2397 17.4194 79.8387 17.4194C77.4377 17.4194 75.4839 19.3732 75.4839 21.7742C75.4839 23.1315 76.1211 24.3319 77.0981 25.1303L72.5937 37.7434C72.5894 37.7434 72.585 37.7419 72.5806 37.7419C71.5311 37.7419 70.5789 38.131 69.8269 38.7508L62.3323 34.2537C62.3889 33.9735 62.4194 33.6847 62.4194 33.3871C62.4194 30.9861 60.4655 29.0323 58.0645 29.0323C57.5347 29.0323 57.0324 29.1411 56.5606 29.3153L52.0795 23.9385C51.5323 21.8642 49.6568 20.3226 47.4126 20.3226C46.5155 20.3226 45.6373 20.5708 44.8737 21.0411L28.9205 30.8584C27.7752 31.5639 26.46 31.9355 25.1158 31.9355H24.5177C26.4048 30.089 27.5806 27.5197 27.5806 24.6774C27.5806 20.0831 24.5148 16.1971 20.3226 14.9444V14.5161H87.0968V55.1613H78.3871ZM58.0645 31.9355C58.8644 31.9355 59.5161 32.5873 59.5161 33.3871C59.5161 34.1869 58.8644 34.8387 58.0645 34.8387C57.2647 34.8387 56.6129 34.1869 56.6129 33.3871C56.6129 32.5873 57.2647 31.9355 58.0645 31.9355ZM72.5806 40.6452C73.3805 40.6452 74.0323 41.2969 74.0323 42.0968C74.0323 42.8966 73.3805 43.5484 72.5806 43.5484C71.7808 43.5484 71.129 42.8966 71.129 42.0968C71.129 41.2969 71.7808 40.6452 72.5806 40.6452ZM78.3871 21.7742C78.3871 20.9744 79.0389 20.3226 79.8387 20.3226C80.6386 20.3226 81.2903 20.9744 81.2903 21.7742C81.2903 22.574 80.6386 23.2258 79.8387 23.2258C79.0389 23.2258 78.3871 22.574 78.3871 21.7742Z" fill="#595959"/>
</svg>
