<svg width="90" height="90" viewBox="0 0 90 90" fill="none" xmlns="http://www.w3.org/2000/svg">
<path d="M82.7419 0H47.9032C43.9011 0 40.6452 3.25597 40.6452 7.25806V14.5161H7.25806C3.25597 14.5161 0 17.7721 0 21.7742V45C0 49.0021 3.25597 52.2581 7.25806 52.2581H33.3871C33.3871 56.3705 35.5413 59.9806 38.774 62.0448C31.4231 64.6258 26.129 71.6168 26.129 79.8387V90H63.871V79.8387C63.871 71.6168 58.5769 64.6258 51.226 62.0448C54.4587 59.9806 56.6129 56.3705 56.6129 52.2581C56.6129 47.3952 53.6052 43.2276 49.3548 41.5002V37.7419H82.7419C86.744 37.7419 90 34.486 90 30.4839V7.25806C90 3.25597 86.744 0 82.7419 0V0ZM60.9677 79.8387V87.0968H56.6129V74.0323H53.7097V87.0968H36.2903V74.0323H33.3871V87.0968H29.0323V79.8387C29.0323 71.0347 36.196 63.871 45 63.871C53.804 63.871 60.9677 71.0347 60.9677 79.8387ZM53.7097 52.2581C53.7097 57.0615 49.8034 60.9677 45 60.9677C40.1966 60.9677 36.2903 57.0615 36.2903 52.2581C36.2903 47.4547 40.1966 43.5484 45 43.5484C49.8034 43.5484 53.7097 47.4547 53.7097 52.2581ZM45 40.6452C39.6015 40.6452 35.0637 44.354 33.7689 49.3548H7.25806C4.8571 49.3548 2.90323 47.401 2.90323 45V21.7742C2.90323 19.3732 4.8571 17.4194 7.25806 17.4194H42.0968C44.4977 17.4194 46.4516 19.3732 46.4516 21.7742V40.7453C45.9755 40.6858 45.4921 40.6452 45 40.6452V40.6452ZM87.0968 30.4839C87.0968 32.8848 85.1429 34.8387 82.7419 34.8387H49.3548V21.7742C49.3548 18.27 46.8566 15.3377 43.5484 14.6627V7.25806C43.5484 4.8571 45.5023 2.90323 47.9032 2.90323H82.7419C85.1429 2.90323 87.0968 4.8571 87.0968 7.25806V30.4839Z" fill="#595959"/>
<path d="M77.1273 13.0646H69.3205L67.2592 5.84863H63.3863L61.325 13.0646H53.5182L52.4106 16.3612L59.1563 20.8612L56.0194 28.1817L58.9661 30.4099L65.3227 25.1159L71.6779 30.4099L74.6247 28.1817L71.4877 20.8612L78.2334 16.3612L77.1273 13.0646ZM67.8674 19.7841L70.3163 25.4962L65.3227 21.3359L60.3306 25.4948L62.7795 19.7827L57.0529 15.9678H63.514L65.3227 9.63879L67.1314 15.9678H73.5926L67.8674 19.7841Z" fill="#595959"/>
<path d="M31.2055 28.5418L24.6703 22.7354L18.1381 28.5418L11.555 22.6831L8.48193 25.7562L15.0868 43.9188L16.4266 43.4746C16.4687 43.46 20.6218 42.097 24.6776 42.097C28.7334 42.097 32.8864 43.46 32.93 43.4746L34.2698 43.9202L40.8747 25.7562L37.8031 22.6831L31.2055 28.5418ZM32.4887 40.3202C30.7976 39.8688 27.7594 39.1938 24.6776 39.1938C21.5958 39.1938 18.5576 39.8688 16.8665 40.3202L12.0137 26.9784L18.1381 32.4263L24.6703 26.6199L31.2055 32.4263L37.3414 26.9755L32.4887 40.3202Z" fill="#595959"/>
<path d="M79.8388 40.645H74.0324C68.4306 40.645 63.8711 45.2045 63.8711 50.8063V60.9676H79.8388C85.4406 60.9676 90.0001 56.4081 90.0001 50.8063C90.0001 45.2045 85.4406 40.645 79.8388 40.645ZM79.8388 58.0644H66.7743V50.8063C66.7743 46.8042 70.0303 43.5482 74.0324 43.5482H79.8388C83.8409 43.5482 87.0969 46.8042 87.0969 50.8063C87.0969 54.8084 83.8409 58.0644 79.8388 58.0644Z" fill="#595959"/>
<path d="M69.6772 46.4517H72.5805V49.3549H69.6772V46.4517Z" fill="#595959"/>
<path d="M75.4839 46.4517H78.3871V49.3549H75.4839V46.4517Z" fill="#595959"/>
<path d="M81.2905 46.4517H84.1938V49.3549H81.2905V46.4517Z" fill="#595959"/>
<path d="M69.6772 52.2583H84.1934V55.1615H69.6772V52.2583Z" fill="#595959"/>
<path d="M26.129 55.1611H10.1613C4.55952 55.1611 0 59.7206 0 65.3224C0 70.9242 4.55952 75.4837 10.1613 75.4837H15.9677C21.5695 75.4837 26.129 70.9242 26.129 65.3224V55.1611ZM23.2258 65.3224C23.2258 69.3245 19.9698 72.5805 15.9677 72.5805H10.1613C6.15919 72.5805 2.90323 69.3245 2.90323 65.3224C2.90323 61.3203 6.15919 58.0644 10.1613 58.0644H23.2258V65.3224Z" fill="#595959"/>
<path d="M17.4194 66.7744H20.3227V69.6776H17.4194V66.7744Z" fill="#595959"/>
<path d="M11.6128 66.7744H14.516V69.6776H11.6128V66.7744Z" fill="#595959"/>
<path d="M5.80664 66.7744H8.70987V69.6776H5.80664V66.7744Z" fill="#595959"/>
<path d="M5.80664 60.9678H20.3228V63.871H5.80664V60.9678Z" fill="#595959"/>
<path d="M23.2256 33.3872H26.1288V36.2904H23.2256V33.3872Z" fill="#595959"/>
</svg>
