<svg width="90" height="90" viewBox="0 0 90 90" fill="none" xmlns="http://www.w3.org/2000/svg">
<path d="M84.1936 0H5.80645C4.2671 0.00245134 2.79138 0.746934 1.7029 2.07019C0.614413 3.39344 0.00201643 5.18746 0 7.05882V67.0588C0.00201643 68.9302 0.614413 70.7242 1.7029 72.0475C2.79138 73.3707 4.2671 74.1152 5.80645 74.1176H35.7278L33.7917 81.1765H29.0323C28.6473 81.1765 28.278 81.3624 28.0058 81.6933C27.7336 82.0243 27.5806 82.4731 27.5806 82.9412V86.4706H14.5161C14.1311 86.4706 13.7619 86.6565 13.4897 86.9875C13.2175 87.3184 13.0645 87.7673 13.0645 88.2353C13.0645 88.7033 13.2175 89.1522 13.4897 89.4831C13.7619 89.8141 14.1311 90 14.5161 90H78.3871C78.7721 90 79.1413 89.8141 79.4135 89.4831C79.6858 89.1522 79.8387 88.7033 79.8387 88.2353C79.8387 87.7673 79.6858 87.3184 79.4135 86.9875C79.1413 86.6565 78.7721 86.4706 78.3871 86.4706H62.4194V82.9412C62.4194 82.4731 62.2664 82.0243 61.9942 81.6933C61.722 81.3624 61.3527 81.1765 60.9677 81.1765H56.2083L54.2722 74.1176H84.1936C85.7329 74.1152 87.2086 73.3707 88.2971 72.0475C89.3856 70.7242 89.998 68.9302 90 67.0588V7.05882C89.998 5.18746 89.3856 3.39344 88.2971 2.07019C87.2086 0.746934 85.7329 0.00245134 84.1936 0ZM59.5161 84.7059V86.4706H30.4839V84.7059H59.5161ZM36.8528 81.1765L38.7889 74.1176H51.2111L53.1472 81.1765H36.8528ZM87.0968 67.0588C87.0958 67.9945 86.7896 68.8915 86.2453 69.5531C85.7011 70.2148 84.9632 70.587 84.1936 70.5882H5.80645C5.03678 70.587 4.29892 70.2148 3.75467 69.5531C3.21043 68.8915 2.90423 67.9945 2.90323 67.0588V63.5294H87.0968V67.0588ZM24.6157 44.1176L24.0714 60H22.3802L21.8359 44.1176H24.6157ZM22.0355 40.5882L23.0044 33.5294H23.4472L24.4161 40.5882H22.0355ZM23.2258 30C21.6526 30 20.3226 27.5757 20.3226 24.7059C20.3226 22.8949 21.8431 20.2632 23.2222 18.4081C24.4651 20.0846 26.129 22.7647 26.129 24.7059C26.129 27.5757 24.799 30 23.2258 30ZM39.023 26.4706L39.1935 26.8875V28.2353H33.3871V26.8875L33.5577 26.4706H39.023ZM35.0093 22.9412L36.2903 19.8287L37.5714 22.9412H35.0093ZM39.1935 31.7647V59.7794C39.1941 59.8532 39.1983 59.9269 39.2063 60H33.3744C33.3823 59.9269 33.3865 59.8532 33.3871 59.7794V31.7647H39.1935ZM52.2581 24.7059H56.6129V28.2353H55.1613C54.7763 28.2353 54.4071 28.4212 54.1348 28.7522C53.8626 29.0831 53.7097 29.532 53.7097 30C53.7097 30.468 53.8626 30.9169 54.1348 31.2478C54.4071 31.5788 54.7763 31.7647 55.1613 31.7647H56.6129V35.2941H52.2581C51.8731 35.2941 51.5038 35.48 51.2316 35.811C50.9594 36.1419 50.8065 36.5908 50.8065 37.0588C50.8065 37.5269 50.9594 37.9757 51.2316 38.3067C51.5038 38.6376 51.8731 38.8235 52.2581 38.8235H56.6129V42.3529H55.1613C54.7763 42.3529 54.4071 42.5389 54.1348 42.8698C53.8626 43.2008 53.7097 43.6496 53.7097 44.1176C53.7097 44.5857 53.8626 45.0345 54.1348 45.3655C54.4071 45.6964 54.7763 45.8824 55.1613 45.8824H56.6129V49.4118H52.2581C51.8731 49.4118 51.5038 49.5977 51.2316 49.9286C50.9594 50.2596 50.8065 50.7084 50.8065 51.1765C50.8065 51.6445 50.9594 52.0934 51.2316 52.4243C51.5038 52.7553 51.8731 52.9412 52.2581 52.9412H56.6129V60H46.4516V17.6471H56.6129V21.1765H52.2581C51.8731 21.1765 51.5038 21.3624 51.2316 21.6933C50.9594 22.0243 50.8065 22.4731 50.8065 22.9412C50.8065 23.4092 50.9594 23.8581 51.2316 24.189C51.5038 24.52 51.8731 24.7059 52.2581 24.7059ZM69.6774 45.8824V59.7794C69.678 59.8532 69.6822 59.9269 69.6901 60H63.8583C63.8662 59.9269 63.8704 59.8532 63.871 59.7794V45.8824H69.6774ZM63.871 42.3529V41.0051L66.7742 33.9463L69.6774 41.0051V42.3529H63.871ZM87.0968 60H72.5679C72.5758 59.9269 72.5801 59.8532 72.5806 59.7794V40.5882C72.5804 40.3143 72.5283 40.044 72.4282 39.7985L68.0734 29.2103C67.9526 28.9172 67.7671 28.6708 67.5376 28.4986C67.3082 28.3264 67.0438 28.2352 66.7742 28.2352C66.5045 28.2352 66.2402 28.3264 66.0108 28.4986C65.7813 28.6708 65.5958 28.9172 65.475 29.2103L61.1202 39.7985C61.0201 40.044 60.968 40.3143 60.9677 40.5882V59.7794C60.9683 59.8532 60.9725 59.9269 60.9804 60H59.5161V15.8824C59.5161 15.4143 59.3632 14.9655 59.091 14.6345C58.8187 14.3036 58.4495 14.1176 58.0645 14.1176H45C44.615 14.1176 44.2458 14.3036 43.9736 14.6345C43.7013 14.9655 43.5484 15.4143 43.5484 15.8824V60H42.0841C42.092 59.9269 42.0962 59.8532 42.0968 59.7794V26.4706C42.0966 26.1966 42.0444 25.9264 41.9444 25.6809L37.5895 15.0926C37.4687 14.7996 37.2832 14.5532 37.0537 14.381C36.8243 14.2088 36.56 14.1176 36.2903 14.1176C36.0207 14.1176 35.7563 14.2088 35.5269 14.381C35.2975 14.5532 35.112 14.7996 34.9911 15.0926L30.6363 25.6809C30.5362 25.9264 30.4841 26.1966 30.4839 26.4706V59.7794C30.4844 59.8532 30.4887 59.9269 30.4966 60H26.9764L27.5788 42.4257C27.5806 42.386 27.5788 42.3463 27.5788 42.3044V42.2515C27.5755 42.1894 27.5694 42.1275 27.5607 42.0662V42.0618L26.2179 32.2654C27.9036 30.7191 29.0323 27.9088 29.0323 24.7059C29.0323 20.1706 24.7083 15.1478 24.2147 14.5897C23.9458 14.2866 23.5925 14.1182 23.2258 14.1182C22.8591 14.1182 22.5059 14.2866 22.2369 14.5897C21.7433 15.1478 17.4194 20.1706 17.4194 24.7059C17.4194 27.9088 18.548 30.7191 20.2337 32.2654L18.8909 42.0618V42.0662C18.8822 42.1275 18.8761 42.1894 18.8728 42.2515V42.3044C18.8728 42.3463 18.871 42.386 18.8728 42.4257L19.4752 60H2.90323V7.05882C2.90423 6.12314 3.21043 5.22613 3.75467 4.56451C4.29892 3.90288 5.03678 3.53064 5.80645 3.52941H84.1936C84.9632 3.53064 85.7011 3.90288 86.2453 4.56451C86.7896 5.22613 87.0958 6.12314 87.0968 7.05882V60Z" fill="#595959"/>
<path d="M15.9679 65.2939H7.25825C6.87326 65.2939 6.50404 65.4799 6.23181 65.8108C5.95958 66.1418 5.80664 66.5906 5.80664 67.0587C5.80664 67.5267 5.95958 67.9755 6.23181 68.3065C6.50404 68.6374 6.87326 68.8234 7.25825 68.8234H15.9679C16.3529 68.8234 16.7221 68.6374 16.9944 68.3065C17.2666 67.9755 17.4195 67.5267 17.4195 67.0587C17.4195 66.5906 17.2666 66.1418 16.9944 65.8108C16.7221 65.4799 16.3529 65.2939 15.9679 65.2939Z" fill="#595959"/>
<path d="M21.7743 65.2939H20.3227C19.9377 65.2939 19.5685 65.4799 19.2963 65.8108C19.024 66.1418 18.8711 66.5906 18.8711 67.0587C18.8711 67.5267 19.024 67.9755 19.2963 68.3065C19.5685 68.6374 19.9377 68.8234 20.3227 68.8234H21.7743C22.1593 68.8234 22.5285 68.6374 22.8008 68.3065C23.073 67.9755 23.2259 67.5267 23.2259 67.0587C23.2259 66.5906 23.073 66.1418 22.8008 65.8108C22.5285 65.4799 22.1593 65.2939 21.7743 65.2939Z" fill="#595959"/>
<path d="M36.2905 33.5293C35.9055 33.5293 35.5363 33.7152 35.264 34.0462C34.9918 34.3771 34.8389 34.826 34.8389 35.294V54.7058C34.8389 55.1738 34.9918 55.6227 35.264 55.9536C35.5363 56.2846 35.9055 56.4705 36.2905 56.4705C36.6755 56.4705 37.0447 56.2846 37.3169 55.9536C37.5892 55.6227 37.7421 55.1738 37.7421 54.7058V35.294C37.7421 34.826 37.5892 34.3771 37.3169 34.0462C37.0447 33.7152 36.6755 33.5293 36.2905 33.5293Z" fill="#595959"/>
<path d="M66.7744 47.647C66.3894 47.647 66.0202 47.8329 65.7479 48.1638C65.4757 48.4948 65.3228 48.9436 65.3228 49.4117V54.7058C65.3228 55.1738 65.4757 55.6227 65.7479 55.9536C66.0202 56.2846 66.3894 56.4705 66.7744 56.4705C67.1594 56.4705 67.5286 56.2846 67.8008 55.9536C68.073 55.6227 68.226 55.1738 68.226 54.7058V49.4117C68.226 48.9436 68.073 48.4948 67.8008 48.1638C67.5286 47.8329 67.1594 47.647 66.7744 47.647Z" fill="#595959"/>
<path d="M7.25825 10.588H18.8712C19.2561 10.588 19.6254 10.4021 19.8976 10.0711C20.1698 9.74019 20.3228 9.29133 20.3228 8.8233C20.3228 8.35527 20.1698 7.90641 19.8976 7.57546C19.6254 7.24452 19.2561 7.05859 18.8712 7.05859H7.25825C6.87326 7.05859 6.50404 7.24452 6.23181 7.57546C5.95958 7.90641 5.80664 8.35527 5.80664 8.8233C5.80664 9.29133 5.95958 9.74019 6.23181 10.0711C6.50404 10.4021 6.87326 10.588 7.25825 10.588Z" fill="#595959"/>
<path d="M7.25825 15.8824H10.1615C10.5465 15.8824 10.9157 15.6965 11.1879 15.3656C11.4602 15.0346 11.6131 14.5858 11.6131 14.1177C11.6131 13.6497 11.4602 13.2008 11.1879 12.8699C10.9157 12.539 10.5465 12.353 10.1615 12.353H7.25825C6.87326 12.353 6.50404 12.539 6.23181 12.8699C5.95958 13.2008 5.80664 13.6497 5.80664 14.1177C5.80664 14.5858 5.95958 15.0346 6.23181 15.3656C6.50404 15.6965 6.87326 15.8824 7.25825 15.8824Z" fill="#595959"/>
<path d="M76.9355 56.4708H82.742C83.1269 56.4708 83.4962 56.2849 83.7684 55.9539C84.0406 55.623 84.1936 55.1741 84.1936 54.7061C84.1936 54.2381 84.0406 53.7892 83.7684 53.4583C83.4962 53.1273 83.1269 52.9414 82.742 52.9414H76.9355C76.5505 52.9414 76.1813 53.1273 75.9091 53.4583C75.6368 53.7892 75.4839 54.2381 75.4839 54.7061C75.4839 55.1741 75.6368 55.623 75.9091 55.9539C76.1813 56.2849 76.5505 56.4708 76.9355 56.4708Z" fill="#595959"/>
<path d="M81.2905 51.1764H82.7421C83.1271 51.1764 83.4963 50.9905 83.7685 50.6595C84.0408 50.3286 84.1937 49.8797 84.1937 49.4117C84.1937 48.9436 84.0408 48.4948 83.7685 48.1638C83.4963 47.8329 83.1271 47.647 82.7421 47.647H81.2905C80.9055 47.647 80.5363 47.8329 80.264 48.1638C79.9918 48.4948 79.8389 48.9436 79.8389 49.4117C79.8389 49.8797 79.9918 50.3286 80.264 50.6595C80.5363 50.9905 80.9055 51.1764 81.2905 51.1764Z" fill="#595959"/>
</svg>
