<svg width="90" height="90" viewBox="0 0 90 90" fill="none" xmlns="http://www.w3.org/2000/svg">
<path d="M85.251 36.537C88.1295 34.344 90 30.8895 90 26.9985C90 20.382 84.6165 14.9985 78 14.9985C71.3835 14.9985 66 20.382 66 26.9985C66 30.5835 67.5885 33.798 70.089 35.9985H62.121L52.0605 25.938C51.474 25.3515 50.526 25.3515 49.9395 25.938L43.9395 31.938C43.353 32.5245 43.353 33.4725 43.9395 34.059L57.4395 47.559C57.72 47.841 58.101 47.9985 58.5 47.9985H70.5V58.4985H63H44.802L52.248 47.331L49.752 45.6675L41.1975 58.4985H37.5V50.9985C37.5 50.169 36.8295 49.4985 36 49.4985H24V43.4985C24 40.3365 22.026 37.638 19.251 36.537C22.1295 34.344 24 30.8895 24 26.9985C24 20.382 18.6165 14.9985 12 14.9985C5.3835 14.9985 0 20.382 0 26.9985C0 30.8895 1.8705 34.344 4.749 36.537C1.974 37.638 0 40.3365 0 43.4985V64.4985C0 68.634 3.3645 71.9985 7.5 71.9985V89.9985H10.5V71.9985H21V88.4985C21 89.328 21.6705 89.9985 22.5 89.9985H33C33.8295 89.9985 34.5 89.328 34.5 88.4985V65.9985C34.5 64.311 33.9405 62.7525 32.997 61.4985H34.5H36H43.5V86.9985H37.5V89.9985H52.5V86.9985H46.5V61.4985H57.039C56.0865 62.7555 55.5 64.3035 55.5 65.9985V88.4985C55.5 89.328 56.1705 89.9985 57 89.9985H67.5C68.3295 89.9985 69 89.328 69 88.4985V71.9985H79.5V89.9985H82.5V71.9985C86.6355 71.9985 90 68.634 90 64.4985V43.4985C90 40.3365 88.026 37.638 85.251 36.537ZM3 26.9985C3 22.035 7.0365 17.9985 12 17.9985C16.9635 17.9985 21 22.035 21 26.9985C21 31.962 16.9635 35.9985 12 35.9985C7.0365 35.9985 3 31.962 3 26.9985ZM34.5 58.4985H15V46.4985H12V59.9985C12 60.828 12.6705 61.4985 13.5 61.4985H27C29.481 61.4985 31.5 63.5175 31.5 65.9985V86.9985H24V70.4985C24 69.669 23.3295 68.9985 22.5 68.9985H7.5C5.019 68.9985 3 66.9795 3 64.4985V43.4985C3 41.0175 5.019 38.9985 7.5 38.9985H16.5C18.981 38.9985 21 41.0175 21 43.4985V50.9985C21 51.828 21.6705 52.4985 22.5 52.4985H34.5V58.4985ZM69 26.9985C69 22.035 73.0365 17.9985 78 17.9985C82.9635 17.9985 87 22.035 87 26.9985C87 31.962 82.9635 35.9985 78 35.9985C73.0365 35.9985 69 31.962 69 26.9985ZM87 64.4985C87 66.9795 84.981 68.9985 82.5 68.9985H67.5C66.6705 68.9985 66 69.669 66 70.4985V86.9985H58.5V65.9985C58.5 63.5175 60.519 61.4985 63 61.4985H72C72.8295 61.4985 73.5 60.828 73.5 59.9985V46.4985C73.5 45.669 72.8295 44.9985 72 44.9985H59.121L47.121 32.9985L51 29.1195L60.4395 38.559C60.72 38.841 61.101 38.9985 61.5 38.9985H82.5C84.981 38.9985 87 41.0175 87 43.4985V64.4985Z" fill="#595959"/>
<path d="M60 0H30C27.519 0 25.5 2.019 25.5 4.5V16.5C25.5 18.981 27.519 21 30 21H31.5V30C31.5 30.606 31.8645 31.155 32.4255 31.386C32.6115 31.464 32.8065 31.5 33 31.5C33.39 31.5 33.774 31.347 34.0605 31.0605L44.121 21H60C62.481 21 64.5 18.981 64.5 16.5V4.5C64.5 2.019 62.481 0 60 0ZM61.5 16.5C61.5 17.328 60.828 18 60 18H43.5C43.101 18 42.72 18.1575 42.4395 18.4395L34.5 26.379V19.5C34.5 18.6705 33.8295 18 33 18H30C29.172 18 28.5 17.328 28.5 16.5V4.5C28.5 3.672 29.172 3 30 3H60C60.828 3 61.5 3.672 61.5 4.5V16.5Z" fill="#595959"/>
<path d="M40.5 5.99854H31.5V8.99854H40.5V5.99854Z" fill="#595959"/>
<path d="M58.5 12.0015H31.5V15.0015H58.5V12.0015Z" fill="#595959"/>
<path d="M58.5 5.99854H43.5V8.99854H58.5V5.99854Z" fill="#595959"/>
</svg>
