<svg width="90" height="90" viewBox="0 0 90 90" fill="none" xmlns="http://www.w3.org/2000/svg">
<path d="M37.9688 18.8423V18.6216C37.9688 16.2127 37.0308 13.9486 35.3264 12.2442C33.7795 10.6959 31.7208 9.84375 29.5312 9.84375C27.4219 9.84375 25.4334 10.6355 23.9062 12.0783C22.3791 10.6355 20.3906 9.84375 18.2812 9.84375C16.0917 9.84375 14.033 10.6959 12.4861 12.2442C10.7817 13.9486 9.84375 16.2127 9.84375 18.6216V18.8423C9.84375 21.5677 11.0123 24.1692 13.0486 25.9791L23.9062 35.6316L34.7625 25.9805C36.8002 24.1706 37.9688 21.5691 37.9688 18.8423V18.8423ZM23.9062 31.8684L14.9175 23.8781C13.4803 22.6012 12.6562 20.7661 12.6562 18.8423V18.6216C12.6562 16.9636 13.3017 15.4055 14.4745 14.2327C15.4913 13.2159 16.8441 12.6562 18.2812 12.6562C19.7184 12.6562 21.0712 13.2159 22.088 14.2327L23.9062 16.0509L25.7245 14.2327C27.758 12.2006 31.3045 12.2006 33.338 14.2327C34.5108 15.4055 35.1562 16.9636 35.1562 18.6216V18.8423C35.1562 20.7647 34.3322 22.6012 32.895 23.8781L23.9062 31.8684Z" fill="#595959"/>
<path d="M84.375 12.6562H46.4062V5.625C46.4062 3.29906 44.5134 1.40625 42.1875 1.40625H5.625C3.29906 1.40625 1.40625 3.29906 1.40625 5.625V36.5625C1.40625 38.8884 3.29906 40.7812 5.625 40.7812H17.6231L19.9673 43.5938H8.4375C6.11156 43.5938 4.21875 45.4866 4.21875 47.8125V75.9375C4.21875 78.2634 6.11156 80.1562 8.4375 80.1562H23.2481L29.2837 87.3984C29.9166 88.1578 30.8461 88.5938 31.8347 88.5938C33.6656 88.5938 35.1562 87.1031 35.1562 85.2722V80.1562H50.625C52.9509 80.1562 54.8438 78.2634 54.8438 75.9375V52.0312H57.6562V57.1472C57.6562 58.9781 59.1469 60.4688 60.9778 60.4688C61.9664 60.4688 62.8959 60.0328 63.5287 59.2734L69.5644 52.0312H84.375C86.7009 52.0312 88.5938 50.1384 88.5938 47.8125V16.875C88.5938 14.5491 86.7009 12.6562 84.375 12.6562ZM5.625 37.9688C4.85016 37.9688 4.21875 37.3387 4.21875 36.5625V5.625C4.21875 4.84875 4.85016 4.21875 5.625 4.21875H42.1875C42.9623 4.21875 43.5938 4.84875 43.5938 5.625V36.5625C43.5938 37.3387 42.9623 37.9688 42.1875 37.9688H26.7188V45.8972C26.7188 46.3317 26.0972 46.5567 25.8188 46.222L18.9394 37.9688H5.625ZM37.9688 43.5938H29.5312V40.7812H37.9688V43.5938ZM52.0312 75.9375C52.0312 76.7137 51.3998 77.3438 50.625 77.3438H32.3438V85.2722C32.3438 85.7067 31.7222 85.9317 31.4438 85.597L24.5644 77.3438H8.4375C7.66266 77.3438 7.03125 76.7137 7.03125 75.9375V47.8125C7.03125 47.0363 7.66266 46.4062 8.4375 46.4062H22.3102L23.6587 48.0234C24.2916 48.7828 25.2211 49.2188 26.2097 49.2188C27.8663 49.2188 29.2317 47.9953 29.4792 46.4062H37.9688V47.8125C37.9688 50.1384 39.8616 52.0312 42.1875 52.0312H52.0312V75.9375ZM85.7812 47.8125C85.7812 48.5887 85.1498 49.2188 84.375 49.2188H68.2481L61.3687 57.472C61.0903 57.8039 60.4688 57.5803 60.4688 57.1472V49.2188H42.1875C41.4127 49.2188 40.7812 48.5887 40.7812 47.8125V40.7812H42.1875C44.5134 40.7812 46.4062 38.8884 46.4062 36.5625V15.4688H84.375C85.1498 15.4688 85.7812 16.0988 85.7812 16.875V47.8125Z" fill="#595959"/>
<path d="M35.1562 60.4687C35.1562 61.3027 35.3503 62.0873 35.6766 62.7989C35.0705 62.2617 34.3955 61.8033 33.6656 61.4391C34.5825 60.4378 35.1562 59.1173 35.1562 57.6562C35.1562 54.5541 32.6334 52.0312 29.5312 52.0312C26.4291 52.0312 23.9062 54.5541 23.9062 57.6562C23.9062 59.1173 24.48 60.4378 25.3969 61.4391C24.667 61.8033 23.992 62.2617 23.3859 62.7989C23.7122 62.0873 23.9062 61.3027 23.9062 60.4687C23.9062 57.3666 21.3834 54.8437 18.2812 54.8437C15.1791 54.8437 12.6562 57.3666 12.6562 60.4687C12.6562 61.9678 13.2539 63.322 14.213 64.3317C11.6114 65.7703 9.84375 68.5406 9.84375 71.7187V74.5312H12.6562V71.7187C12.6562 68.6166 15.1791 66.0937 18.2812 66.0937C19.1672 66.0937 20.0166 66.3047 20.79 66.6914C20.5678 67.3341 20.4047 68.0063 20.3259 68.708L19.6959 74.3752L22.4902 74.6859L23.1202 69.0188C23.4844 65.7478 26.2406 63.2812 29.5312 63.2812C32.8219 63.2812 35.5781 65.7478 35.9423 69.0188L36.5723 74.6859L39.3666 74.3752L38.7366 68.708C38.6592 68.0063 38.4947 67.3341 38.2725 66.6914C39.0459 66.3047 39.8953 66.0937 40.7812 66.0937C43.8834 66.0937 46.4062 68.6166 46.4062 71.7187V74.5312H49.2188V71.7187C49.2188 68.5406 47.4511 65.7703 44.8495 64.3317C45.8086 63.322 46.4062 61.9678 46.4062 60.4687C46.4062 57.3666 43.8834 54.8437 40.7812 54.8437C37.6791 54.8437 35.1562 57.3666 35.1562 60.4687ZM15.4688 60.4687C15.4688 58.9177 16.7302 57.6562 18.2812 57.6562C19.8323 57.6562 21.0938 58.9177 21.0938 60.4687C21.0938 62.0198 19.8323 63.2812 18.2812 63.2812C16.7302 63.2812 15.4688 62.0198 15.4688 60.4687ZM26.7188 57.6562C26.7188 56.1052 27.9802 54.8437 29.5312 54.8437C31.0823 54.8437 32.3438 56.1052 32.3438 57.6562C32.3438 59.2073 31.0823 60.4687 29.5312 60.4687C27.9802 60.4687 26.7188 59.2073 26.7188 57.6562ZM43.5938 60.4687C43.5938 62.0198 42.3323 63.2812 40.7812 63.2812C39.2302 63.2812 37.9688 62.0198 37.9688 60.4687C37.9688 58.9177 39.2302 57.6562 40.7812 57.6562C42.3323 57.6562 43.5938 58.9177 43.5938 60.4687Z" fill="#595959"/>
<path d="M74.5312 26.7188H71.9719L72.3108 24.6881C72.5766 23.0892 72.1294 21.4636 71.0817 20.2275C70.0341 18.99 68.5041 18.2812 66.8841 18.2812C64.9448 18.2812 63.2616 19.5961 62.7905 21.4763C62.2814 23.5153 61.2267 25.3772 59.7403 26.865L59.3255 27.2798C58.8572 26.9325 58.2834 26.7188 57.6562 26.7188H52.0312C50.4802 26.7188 49.2188 27.9802 49.2188 29.5312V43.5938C49.2188 45.1448 50.4802 46.4062 52.0312 46.4062H57.6562C58.8839 46.4062 59.9175 45.6117 60.3014 44.5134C62.7961 45.7509 65.5369 46.4062 68.3508 46.4062H74.5312C77.6334 46.4062 80.1562 43.8834 80.1562 40.7812V32.3438C80.1562 29.2416 77.6334 26.7188 74.5312 26.7188ZM52.0312 43.5938V29.5312H57.6562L57.6577 43.5938H52.0312ZM77.3438 40.7812C77.3438 42.3323 76.0823 43.5938 74.5312 43.5938H68.3508C65.5594 43.5938 62.8523 42.833 60.4688 41.4028V30.1134L61.7287 28.8534C63.5752 27.007 64.8872 24.6909 65.52 22.1583C65.6761 21.5325 66.2372 21.0938 66.8841 21.0938C67.6758 21.0938 68.4239 21.4397 68.9358 22.0458C69.4477 22.6505 69.667 23.445 69.5363 24.2269L68.6531 29.5312H74.5312C76.0823 29.5312 77.3438 30.7927 77.3438 32.3438V40.7812Z" fill="#595959"/>
</svg>
