<svg width="531" height="228" viewBox="0 0 531 228" fill="none" xmlns="http://www.w3.org/2000/svg">
<g filter="url(#filter0_d)">
<path d="M284.07 133.971H273.599L268.896 120.736H249.464L244.938 133.971H235L253.723 82.1772H264.637L284.07 133.971ZM266.589 112.706L259.047 90.736L251.859 112.706H266.589Z" fill="white"/>
<path d="M343.965 133.971H334.205V110.236C334.205 107.677 333.85 105.736 333.051 104.677C332.252 103.53 331.01 103.001 329.324 103.001C327.904 103.001 326.573 103.442 325.242 104.324C323.911 105.207 322.58 106.442 321.249 108.207V134.059H311.489V110.236C311.489 107.677 311.134 105.736 310.335 104.677C309.537 103.53 308.383 103.001 306.608 103.001C305.189 103.001 303.858 103.442 302.438 104.324C301.107 105.207 299.776 106.442 298.445 108.207V134.059H288.684V96.4714H298.179V101.236C299.865 99.3831 301.639 97.9713 303.503 97.089C305.366 96.1184 307.318 95.6772 309.27 95.6772C314.861 95.6772 318.41 97.8831 320.096 102.295C320.983 101.324 321.871 100.354 322.758 99.5596C323.645 98.7655 324.621 98.0596 325.597 97.4419C326.573 96.8243 327.55 96.3831 328.614 96.1184C329.679 95.8537 330.833 95.6772 331.986 95.6772C339.972 95.6772 343.965 100.265 343.965 109.442V133.971V133.971Z" fill="white"/>
<path d="M370.408 134.765C367.302 134.765 364.551 134.324 362.156 133.442C359.76 132.559 357.719 131.236 356.122 129.559C354.524 127.883 353.193 125.853 352.395 123.383C351.508 121.001 351.064 118.265 351.064 115.177C351.064 112.089 351.508 109.354 352.395 106.883C353.282 104.501 354.524 102.383 356.122 100.707C357.719 99.0301 359.671 97.7066 362.067 96.8243C364.374 95.9419 367.036 95.5008 369.964 95.5008C372.804 95.5008 375.377 95.9419 377.684 96.736C379.991 97.5301 381.943 98.8537 383.54 100.442C385.138 102.03 386.38 104.148 387.267 106.53C388.154 108.912 388.598 111.648 388.598 114.736V117.295H361.091C361.179 119.236 361.446 120.912 361.978 122.324C362.51 123.736 363.132 124.883 363.93 125.765C364.729 126.648 365.705 127.353 366.77 127.795C367.834 128.236 369.077 128.412 370.408 128.412C372.449 128.412 374.135 127.971 375.554 127.089C376.974 126.206 377.95 124.706 378.66 122.589H387.711C387.356 124.53 386.646 126.206 385.67 127.706C384.694 129.206 383.452 130.442 381.943 131.5C380.435 132.559 378.749 133.353 376.797 133.795C374.844 134.236 372.715 134.765 370.408 134.765ZM378.66 111.383C378.305 108.118 377.329 105.648 375.821 104.06C374.312 102.471 372.36 101.677 369.875 101.677C367.48 101.677 365.527 102.471 364.019 104.06C362.51 105.648 361.534 108.118 361.179 111.383H378.66ZM380.612 81.0303L371.828 91.1773H364.995L369.52 81.0303H380.612Z" fill="white"/>
<path d="M418.679 104.589C418.147 104.412 417.437 104.236 416.727 104.148C416.017 104.06 415.13 103.971 414.242 103.971C412.556 103.971 410.959 104.324 409.539 105.118C408.031 105.912 406.7 107.06 405.458 108.736V133.795H395.697V96.4714H405.192V102.295C406.7 100.089 408.297 98.4125 410.072 97.2655C411.847 96.1184 413.71 95.6772 415.662 95.6772C416.106 95.6772 416.638 95.6772 417.082 95.7655C417.525 95.7655 418.058 95.8537 418.59 95.9419V104.589H418.679Z" fill="white"/>
<path d="M433.409 90.2066H423.648V82.0007H433.409V90.2066ZM433.409 133.971H423.648V96.4712H433.409V133.971Z" fill="white"/>
<path d="M459.407 134.765C456.479 134.765 453.817 134.324 451.51 133.442C449.203 132.559 447.251 131.324 445.565 129.648C443.968 127.971 442.725 125.942 441.838 123.471C440.951 121.089 440.507 118.265 440.507 115.177C440.507 112.089 440.951 109.265 441.838 106.883C442.725 104.413 443.968 102.383 445.565 100.707C447.162 99.0303 449.114 97.795 451.51 96.9126C453.817 96.0303 456.479 95.5891 459.407 95.5891C461.626 95.5891 463.667 95.8538 465.619 96.4715C467.482 97.0009 469.168 97.8832 470.588 98.942C472.008 100.089 473.161 101.413 474.048 103.001C474.936 104.589 475.468 106.53 475.734 108.56H466.683C466.417 106.707 465.707 105.295 464.376 104.236C463.134 103.177 461.537 102.648 459.496 102.648C458.165 102.648 456.923 102.913 455.858 103.354C454.793 103.883 453.817 104.589 453.019 105.648C452.22 106.707 451.599 107.942 451.244 109.53C450.889 111.118 450.623 112.971 450.623 115.089C450.623 117.207 450.8 119.06 451.244 120.56C451.688 122.148 452.309 123.383 453.019 124.442C453.817 125.501 454.704 126.207 455.858 126.736C456.923 127.265 458.165 127.53 459.496 127.53C460.472 127.53 461.359 127.354 462.158 127.089C462.957 126.824 463.755 126.383 464.376 125.942C464.998 125.412 465.53 124.795 465.885 124.089C466.24 123.383 466.506 122.501 466.595 121.618H475.646C475.379 123.648 474.758 125.501 473.96 127.177C473.072 128.765 471.919 130.177 470.588 131.324C469.257 132.471 467.571 133.265 465.707 133.883C463.844 134.501 461.714 134.765 459.407 134.765Z" fill="white"/>
<path d="M505.283 130.53C503.597 131.942 501.733 133.089 499.604 133.795C497.474 134.5 495.078 134.853 492.416 134.853C490.553 134.853 488.867 134.589 487.27 134.148C485.672 133.706 484.341 133 483.099 132.03C481.857 131.059 480.97 130.001 480.348 128.589C479.639 127.265 479.372 125.677 479.372 123.824C479.372 115.177 486.915 110.854 501.911 110.854H505.194C505.194 108.912 505.105 107.412 505.016 106.53C504.928 105.912 504.75 105.383 504.484 104.854C504.218 104.324 503.952 103.883 503.508 103.53C503.064 102.824 502.354 102.383 501.29 102.118C500.313 101.854 499.071 101.677 497.651 101.677C495.078 101.677 493.215 102.118 491.884 103.089C490.553 104.06 489.843 105.383 489.665 107.236H480.881C481.413 99.5596 487.092 95.6772 497.918 95.6772C500.58 95.6772 502.887 95.8537 504.928 96.2949C506.968 96.7361 508.743 97.4419 510.34 98.5008C511.849 99.4713 513.002 100.795 513.712 102.56C514.422 104.324 514.866 106.707 514.866 109.707V133.883H505.194V130.53H505.283ZM505.194 116.677H501.467C497.385 116.677 494.368 117.206 492.416 118.265C490.375 119.324 489.399 121.001 489.399 123.295C489.399 125.059 490.02 126.383 491.174 127.177C492.416 128.059 494.013 128.501 495.966 128.501C496.853 128.501 497.829 128.412 498.716 128.148C499.604 127.971 500.491 127.618 501.29 127.265C502.088 126.912 502.798 126.471 503.508 125.853C504.218 125.324 504.75 124.706 505.283 124.001V116.677H505.194Z" fill="white"/>
<path d="M260.555 201.823C253.368 201.823 247.778 200.323 243.962 197.235C240.147 194.147 238.017 189.735 237.662 183.912H247.245C247.423 185.588 247.866 187 248.576 188.235C249.286 189.471 250.173 190.441 251.327 191.324C252.481 192.118 253.812 192.735 255.32 193.176C256.828 193.618 258.514 193.794 260.289 193.794C261.975 193.794 263.572 193.618 264.992 193.265C266.412 192.912 267.565 192.471 268.541 191.853C269.517 191.235 270.227 190.441 270.76 189.559C271.292 188.676 271.558 187.618 271.558 186.471C271.558 185.412 271.292 184.529 270.848 183.824C270.405 183.118 269.606 182.412 268.719 181.882C267.743 181.265 266.589 180.824 265.081 180.382C263.661 179.941 261.886 179.5 259.934 178.971C257.095 178.265 254.521 177.647 252.126 176.941C249.73 176.235 247.778 175.441 246.003 174.471C244.228 173.5 242.897 172.265 241.832 170.853C240.768 169.441 240.147 167.677 239.792 165.471C239.703 164.941 239.614 164.324 239.614 163.794C239.614 163.265 239.614 162.647 239.614 162.03C239.792 160 240.324 158.147 241.3 156.471C242.276 154.794 243.607 153.383 245.293 152.147C246.979 150.912 249.02 150.03 251.327 149.324C253.634 148.618 256.296 148.353 259.136 148.353C262.241 148.353 265.081 148.706 267.565 149.412C270.138 150.118 272.268 151.177 274.043 152.589C275.817 154 277.237 155.677 278.302 157.618C279.367 159.559 279.899 161.853 279.988 164.324H270.316C269.784 159.03 266.145 156.383 259.402 156.383C257.805 156.383 256.385 156.559 255.054 156.824C253.812 157.177 252.747 157.618 251.859 158.147C250.972 158.765 250.351 159.383 249.819 160.177C249.286 160.971 249.109 161.853 249.109 162.824C249.109 163.794 249.286 164.588 249.73 165.206C250.085 165.912 250.795 166.441 251.682 166.971C252.569 167.5 253.723 167.941 255.054 168.383C256.474 168.824 258.159 169.265 260.112 169.706C261.975 170.147 263.75 170.5 265.524 170.941C267.299 171.383 268.896 171.824 270.493 172.353C272.091 172.883 273.51 173.588 274.841 174.294C276.172 175 277.326 175.971 278.213 177.03C279.189 178.088 279.899 179.324 280.432 180.735C280.964 182.147 281.23 183.824 281.23 185.765C281.23 188.235 280.698 190.441 279.633 192.382C278.568 194.324 277.148 196 275.285 197.412C273.422 198.823 271.203 199.882 268.719 200.588C266.234 201.294 263.572 201.823 260.555 201.823Z" fill="white"/>
<path d="M303.414 162.735C306.253 162.735 308.826 163.177 311.133 163.971C313.441 164.765 315.393 166.088 317.079 167.676C318.676 169.353 319.918 171.382 320.805 173.853C321.693 176.323 322.136 179.059 322.136 182.323C322.136 185.5 321.693 188.323 320.805 190.706C319.918 193.176 318.676 195.206 317.079 196.882C315.481 198.559 313.441 199.794 311.133 200.676C308.826 201.559 306.253 202 303.414 202C300.574 202 297.912 201.559 295.605 200.676C293.298 199.794 291.346 198.559 289.66 196.882C288.063 195.206 286.732 193.176 285.844 190.706C284.957 188.235 284.513 185.5 284.513 182.323C284.513 179.147 284.957 176.323 285.844 173.853C286.732 171.382 287.974 169.353 289.66 167.676C291.257 166 293.298 164.765 295.605 163.971C297.912 163.177 300.574 162.735 303.414 162.735ZM303.414 194.676C304.745 194.676 305.898 194.412 307.052 193.882C308.117 193.353 309.093 192.647 309.802 191.588C310.601 190.529 311.133 189.294 311.577 187.706C312.021 186.118 312.198 184.353 312.198 182.235C312.198 180.118 312.021 178.265 311.577 176.676C311.133 175.088 310.601 173.853 309.802 172.794C309.004 171.735 308.117 171.029 307.052 170.5C305.987 169.971 304.745 169.706 303.414 169.706C302.083 169.706 300.84 169.971 299.776 170.5C298.711 171.029 297.735 171.735 297.025 172.794C296.226 173.853 295.694 175.088 295.25 176.676C294.806 178.265 294.629 180.118 294.629 182.235C294.629 184.353 294.806 186.206 295.25 187.706C295.694 189.294 296.226 190.529 297.025 191.588C297.823 192.647 298.711 193.353 299.776 193.882C300.84 194.5 302.083 194.676 303.414 194.676Z" fill="white"/>
<path d="M336.511 201.03H326.751V149.236H336.511V201.03Z" fill="white"/>
<path d="M353.016 157.265H343.255V149.059H353.016V157.265ZM353.016 201.03H343.255V163.618H353.016V201.03Z" fill="white"/>
<path d="M383.806 196.441C382.298 198.206 380.612 199.53 378.748 200.412C376.885 201.382 374.844 201.824 372.714 201.824C370.23 201.824 368.1 201.382 366.237 200.5C364.373 199.618 362.776 198.294 361.445 196.618C360.114 194.941 359.227 192.912 358.517 190.53C357.896 188.147 357.541 185.5 357.541 182.5C357.541 179.5 357.896 176.853 358.695 174.383C359.404 171.912 360.469 169.883 361.889 168.118C363.22 166.353 364.906 165.03 366.858 164.059C368.81 163.089 371.029 162.648 373.513 162.648C375.643 162.648 377.506 162.912 379.192 163.53C380.789 164.147 382.386 165.03 383.806 166.353C383.717 165.03 383.717 163.795 383.629 162.648C383.629 161.5 383.629 160.353 383.629 159.295V149.236H393.389V200.941H383.895V196.441H383.806ZM383.54 173.236C381.233 170.942 378.571 169.795 375.554 169.795C372.981 169.795 371.029 170.853 369.609 172.971C368.189 175.089 367.479 178.265 367.479 182.5C367.479 186.559 368.1 189.647 369.343 191.677C370.585 193.706 372.448 194.677 374.933 194.677C376.53 194.677 377.95 194.235 379.369 193.265C380.789 192.383 382.12 190.971 383.363 189.206V173.236H383.54Z" fill="white"/>
<path d="M423.825 197.588C422.14 199 420.276 200.147 418.147 200.853C416.017 201.559 413.621 201.912 410.959 201.912C409.096 201.912 407.41 201.647 405.813 201.206C404.215 200.764 402.884 200.059 401.642 199.088C400.489 198.206 399.512 197.059 398.891 195.647C398.181 194.323 397.915 192.735 397.915 190.882C397.915 182.235 405.458 177.912 420.454 177.912H423.737C423.737 175.971 423.648 174.471 423.559 173.588C423.471 172.971 423.293 172.441 423.027 171.912C422.761 171.382 422.494 170.941 422.051 170.588C421.607 169.882 420.897 169.441 419.832 169.176C418.856 168.912 417.614 168.735 416.194 168.735C413.621 168.735 411.758 169.176 410.427 170.147C409.096 171.118 408.386 172.441 408.208 174.294H399.424C399.956 166.618 405.635 162.735 416.461 162.735C419.123 162.735 421.43 162.912 423.471 163.353C425.511 163.794 427.286 164.5 428.883 165.559C430.392 166.529 431.545 167.853 432.255 169.618C432.965 171.382 433.409 173.765 433.409 176.765V200.941H423.737V197.588H423.825ZM423.737 183.735H420.01C415.928 183.735 412.911 184.265 410.959 185.323C409.007 186.382 407.942 188.059 407.942 190.353C407.942 192.117 408.563 193.441 409.717 194.235C410.959 195.117 412.556 195.559 414.508 195.559C415.396 195.559 416.372 195.47 417.259 195.206C418.147 195.029 419.034 194.676 419.832 194.323C420.631 193.97 421.341 193.529 422.051 192.912C422.761 192.294 423.293 191.765 423.825 191.059V183.735H423.737Z" fill="white"/>
<path d="M463.134 171.647C462.602 171.471 461.892 171.295 461.182 171.206C460.472 171.118 459.585 171.03 458.697 171.03C457.011 171.03 455.414 171.383 453.994 172.177C452.486 172.971 451.155 174.118 449.913 175.795V200.853H440.152V163.442H449.646V169.177C451.155 166.971 452.752 165.295 454.527 164.148C456.301 163 458.165 162.559 460.117 162.559C460.561 162.559 461.093 162.559 461.537 162.648C461.98 162.648 462.513 162.736 463.045 162.824V171.647H463.134Z" fill="white"/>
<path d="M475.202 157.265H465.441V149.059H475.202V157.265ZM475.202 201.03H465.441V163.618H475.202V201.03Z" fill="white"/>
<path d="M505.726 197.588C504.04 199 502.177 200.147 500.047 200.853C497.918 201.559 495.522 201.912 492.86 201.912C490.996 201.912 489.311 201.647 487.713 201.206C486.116 200.764 484.785 200.059 483.543 199.088C482.389 198.206 481.413 197.059 480.792 195.647C480.082 194.323 479.816 192.735 479.816 190.882C479.816 182.235 487.358 177.912 502.354 177.912H505.638C505.638 175.971 505.549 174.471 505.46 173.588C505.371 172.971 505.194 172.441 504.928 171.912C504.661 171.382 504.395 170.941 503.952 170.588C503.508 169.882 502.798 169.441 501.733 169.176C500.757 168.912 499.515 168.735 498.095 168.735C495.522 168.735 493.658 169.176 492.327 170.147C490.996 171.118 490.287 172.441 490.109 174.294H481.324C481.857 166.618 487.536 162.735 498.361 162.735C501.023 162.735 503.33 162.912 505.371 163.353C507.412 163.794 509.187 164.5 510.784 165.559C512.293 166.529 513.446 167.853 514.156 169.618C514.866 171.382 515.31 173.765 515.31 176.765V200.941H505.726V197.588ZM505.638 183.735H501.911C497.829 183.735 494.812 184.265 492.86 185.323C490.819 186.382 489.843 188.059 489.843 190.353C489.843 192.117 490.464 193.441 491.618 194.235C492.86 195.117 494.457 195.559 496.409 195.559C497.297 195.559 498.273 195.47 499.16 195.206C500.047 195.029 500.935 194.676 501.733 194.323C502.532 193.97 503.242 193.529 503.952 192.912C504.661 192.294 505.194 191.765 505.726 191.059V183.735H505.638Z" fill="white"/>
<path d="M96.9994 130.191C86.2023 107.733 86.2023 89.2182 86.7532 81.6589C67.583 70.8131 36.2936 62.3774 20.4286 58.543C16.5725 57.6666 13.5978 61.7201 15.6911 65.1162C34.0901 94.4768 64.7184 122.523 73.973 130.63C75.5155 131.944 75.846 134.245 74.8544 135.998C71.7696 141.476 67.1423 151.116 62.1844 161.743C70.8882 150.788 83.3378 137.422 96.9994 130.191Z" fill="white"/>
<path d="M88.9565 82.6448C88.5158 90.3136 88.9565 108.171 98.9823 129.315C103.83 127.014 110.661 124.933 118.593 122.413C125.975 120.112 134.128 117.483 142.17 114.416C141.179 113.21 140.077 112.005 138.975 110.8C123.661 93.9289 102.398 84.7264 92.8126 81.1111C91.9312 82.3162 90.3888 82.864 88.9565 82.6448Z" fill="white"/>
<path d="M57.7773 171.165C52.5991 182.559 47.3107 194.171 43.5648 202.826C41.8021 206.88 46.4294 210.714 50.0651 208.194L115.839 163.277C116.169 163.058 116.61 162.839 117.051 162.729C111.212 155.17 104.271 144.872 97.9907 132.164C80.9138 141.147 65.8199 159.99 57.7773 171.165Z" fill="white"/>
<path d="M119.254 124.385C111.432 126.795 104.601 128.986 99.9739 131.178C106.694 144.653 113.966 155.28 119.915 162.839C120.576 163.058 121.237 163.496 121.788 164.153C134.568 179.929 158.807 198.334 171.807 207.756C175.002 210.057 179.519 207.208 178.638 203.374C176.435 192.747 172.468 175.985 166.299 162.181C161.231 150.678 159.358 144.543 158.807 141.257C158.586 139.942 159.027 138.737 159.798 137.751C155.722 131.506 150.323 123.947 143.603 116.059C135.34 119.346 126.856 122.085 119.254 124.385Z" fill="white"/>
<path d="M140.518 109.267C141.84 110.691 143.052 112.115 144.264 113.43C157.485 108.062 170.265 101.16 178.418 91.2997L145.365 95.5724C142.501 95.901 140.077 93.4908 140.408 90.752L149.662 15.9264C150.213 11.7633 145.035 9.3531 142.17 12.3111C125.204 29.7302 102.177 65.8831 93.9142 79.2488C104.05 82.9736 125.204 92.5048 140.518 109.267Z" fill="white"/>
<path d="M218.521 86.1508L181.613 90.9711C173.35 102.036 159.908 109.595 145.806 115.292C152.306 122.961 157.595 130.411 161.561 136.546C184.367 126.028 208.826 105.651 222.046 93.71C225.242 90.752 222.818 85.4934 218.521 86.1508Z" fill="white"/>
</g>
<defs>
<filter id="filter0_d" x="0" y="0" width="530.31" height="228" filterUnits="userSpaceOnUse" color-interpolation-filters="sRGB">
<feFlood flood-opacity="0" result="BackgroundImageFix"/>
<feColorMatrix in="SourceAlpha" type="matrix" values="0 0 0 0 0 0 0 0 0 0 0 0 0 0 0 0 0 0 127 0"/>
<feOffset dy="4"/>
<feGaussianBlur stdDeviation="7.5"/>
<feColorMatrix type="matrix" values="0 0 0 0 0 0 0 0 0 0 0 0 0 0 0 0 0 0 0.25 0"/>
<feBlend mode="normal" in2="BackgroundImageFix" result="effect1_dropShadow"/>
<feBlend mode="normal" in="SourceGraphic" in2="effect1_dropShadow" result="shape"/>
</filter>
</defs>
</svg>
