<svg width="545" height="304" viewBox="0 0 545 304" fill="none" xmlns="http://www.w3.org/2000/svg">
<g filter="url(#filter0_d)">
<ellipse cx="123" cy="159.071" rx="13" ry="14" fill="white"/>
<path fill-rule="evenodd" clip-rule="evenodd" d="M80.2814 141.244C81.3133 140.212 82.9863 140.212 84.0181 141.244L92.4257 149.651C93.4575 150.683 93.4575 152.356 92.4257 153.388C91.3938 154.42 89.7208 154.42 88.689 153.388L80.2814 144.98C79.2496 143.949 79.2496 142.276 80.2814 141.244Z" fill="white"/>
<path fill-rule="evenodd" clip-rule="evenodd" d="M154.447 153.443C153.39 152.437 153.35 150.764 154.356 149.708L162.558 141.099C163.564 140.043 165.237 140.002 166.293 141.009C167.35 142.015 167.39 143.688 166.384 144.744L158.182 153.353C157.176 154.409 155.503 154.45 154.447 153.443Z" fill="white"/>
<path fill-rule="evenodd" clip-rule="evenodd" d="M142.105 145.269C140.799 144.618 140.267 143.032 140.918 141.726L146.219 131.083C146.87 129.777 148.456 129.245 149.762 129.896C151.068 130.547 151.6 132.133 150.949 133.439L145.648 144.082C144.997 145.388 143.411 145.92 142.105 145.269Z" fill="white"/>
<path fill-rule="evenodd" clip-rule="evenodd" d="M130.816 140.13C129.369 139.942 128.347 138.617 128.535 137.17L130.063 125.379C130.251 123.931 131.576 122.91 133.023 123.098C134.47 123.285 135.491 124.611 135.304 126.058L133.776 137.849C133.588 139.296 132.263 140.317 130.816 140.13Z" fill="white"/>
<path fill-rule="evenodd" clip-rule="evenodd" d="M117.025 140.766C115.575 140.93 114.267 139.888 114.103 138.438L112.767 126.623C112.603 125.173 113.645 123.865 115.095 123.701C116.545 123.537 117.854 124.579 118.018 126.029L119.354 137.844C119.518 139.294 118.475 140.602 117.025 140.766Z" fill="white"/>
<path fill-rule="evenodd" clip-rule="evenodd" d="M103.973 145.03C102.644 145.633 101.078 145.044 100.475 143.715L95.565 132.886C94.9624 131.557 95.5513 129.991 96.8803 129.388C98.2094 128.786 99.7753 129.375 100.378 130.704L105.288 141.533C105.891 142.862 105.302 144.427 103.973 145.03Z" fill="white"/>
<path fill-rule="evenodd" clip-rule="evenodd" d="M154.791 91.5885H161.14C151.938 81.0625 138.411 74.4138 123.331 74.4138C108.252 74.4138 94.7248 81.0625 85.5223 91.5885H91.8722C100.256 84.1885 111.269 79.6983 123.331 79.6983C135.393 79.6983 146.406 84.1885 154.791 91.5885Z" fill="white"/>
<path fill-rule="evenodd" clip-rule="evenodd" d="M82.8924 219.651C44.5866 203.774 17.642 166.021 17.642 121.974C17.642 63.6033 64.9607 16.2846 123.331 16.2846C181.702 16.2846 229.021 63.6033 229.021 121.974C229.021 165.632 202.55 203.107 164.783 219.225C164.665 219.35 164.546 219.473 164.427 219.597C203.879 203.41 231.663 164.615 231.663 119.332C231.663 59.5017 183.162 11 123.332 11C63.5017 11 15 59.5017 15 119.332C15 165.027 43.2919 204.114 83.3144 220.032C83.1733 219.906 83.0326 219.779 82.8924 219.651Z" fill="white"/>
<path fill-rule="evenodd" clip-rule="evenodd" d="M66.5238 176.039C54.2089 162.443 46.7071 144.405 46.7071 124.616C46.7071 82.2974 81.0132 47.9913 123.332 47.9913C165.651 47.9913 199.957 82.2974 199.957 124.616C199.957 144.405 192.455 162.443 180.14 176.039V177.256C194.038 162.976 202.599 143.474 202.599 121.974C202.599 78.1957 167.11 42.7067 123.332 42.7067C79.5535 42.7067 44.0645 78.1957 44.0645 121.974C44.0645 143.475 52.6251 162.977 66.5238 177.256V176.039Z" fill="white"/>
<path fill-rule="evenodd" clip-rule="evenodd" d="M60.1853 96.8264C57.992 98.5101 56.2727 101.072 56.2727 104.882C56.2727 108.65 57.9515 110.981 60.1312 112.567C62.4237 114.235 65.2816 115.063 67.3352 115.473C68.5675 115.72 69.4545 116.801 69.4545 118.057V183.936C69.4545 196.212 75.9338 208.113 84.3864 217.04C88.5913 221.481 93.2086 225.101 97.5955 227.596C102.032 230.118 106.017 231.368 109 231.368C110.456 231.368 111.636 232.548 111.636 234.003V268.26C111.636 268.348 111.632 268.435 111.623 268.522C111.469 270.068 111.95 272.669 113.695 274.849C115.347 276.913 118.295 278.801 123.5 278.801C128.644 278.801 131.481 276.852 133.105 274.729C134.828 272.476 135.364 269.778 135.364 268.26V234.003C135.364 232.548 136.544 231.368 138 231.368C141.016 231.368 145.017 230.178 149.444 227.759C153.826 225.364 158.435 221.868 162.63 217.517C171.049 208.785 177.545 196.889 177.545 183.936V118.057C177.545 116.706 178.568 115.575 179.911 115.436C179.912 115.436 179.912 115.436 179.913 115.436C179.914 115.436 179.915 115.436 179.916 115.436C179.916 115.436 179.917 115.436 179.917 115.436C179.917 115.436 179.917 115.436 179.917 115.436C179.918 115.435 179.919 115.435 179.919 115.435L179.92 115.435L179.99 115.427C180.059 115.418 180.172 115.402 180.321 115.377C180.62 115.328 181.063 115.244 181.602 115.11C182.69 114.838 184.109 114.373 185.502 113.607C188.219 112.114 190.727 109.582 190.727 104.882C190.727 100.181 188.219 97.6498 185.502 96.156C184.109 95.3904 182.69 94.9255 181.602 94.6537C181.063 94.5191 180.62 94.4353 180.321 94.3861C180.193 94.3651 180.092 94.3506 180.022 94.3412H66.8182C65.2124 94.3412 62.4794 95.0654 60.1853 96.8264ZM180.182 91.7061L180.444 89.084C180.357 89.0753 180.269 89.0709 180.182 89.0709H66.8182C64.03 89.0709 60.1722 90.1913 56.9737 92.6465C53.6747 95.1791 51 99.2048 51 104.882C51 110.6 53.7152 114.417 57.0279 116.828C59.3794 118.539 62.0188 119.542 64.1818 120.139V183.936C64.1818 198.011 71.5434 211.144 80.5568 220.663C85.0848 225.445 90.1068 229.401 94.9883 232.176C98.8523 234.374 102.768 235.91 106.364 236.438V268.139C106.12 270.974 106.972 274.885 109.578 278.141C112.32 281.567 116.842 284.071 123.5 284.071C130.22 284.071 134.633 281.408 137.293 277.931C139.853 274.584 140.636 270.695 140.636 268.26V236.447C144.207 235.947 148.107 234.496 151.973 232.383C156.859 229.714 161.889 225.881 166.427 221.174C175.474 211.79 182.818 198.651 182.818 183.936V120.238C182.839 120.233 182.86 120.228 182.881 120.223C184.265 119.877 186.141 119.271 188.043 118.225C191.917 116.096 196 112.04 196 104.882C196 97.7239 191.917 93.6677 188.043 91.5382C186.141 90.4922 184.265 89.8865 182.881 89.5408C182.184 89.3665 181.597 89.2548 181.176 89.1856C180.964 89.1509 180.794 89.1267 180.67 89.1106C180.608 89.1026 180.557 89.0965 180.52 89.0922L180.472 89.0869L180.456 89.0852L180.449 89.0845L180.447 89.0842C180.445 89.0841 180.444 89.084 180.182 91.7061Z" fill="white"/>
<path d="M257.598 156.216C257.451 155.103 257.075 154.1 256.471 153.207C255.591 152.003 254.226 151.401 252.375 151.401C249.737 151.401 247.932 152.705 246.96 155.313C246.447 156.699 246.191 158.541 246.191 160.838C246.191 163.027 246.447 164.787 246.96 166.118C247.895 168.598 249.654 169.838 252.238 169.838C254.07 169.838 255.371 169.346 256.141 168.361C256.91 167.376 257.378 166.1 257.543 164.531H265.541C265.358 166.902 264.496 169.145 262.957 171.26C260.502 174.67 256.865 176.375 252.045 176.375C247.226 176.375 243.68 174.953 241.408 172.108C239.136 169.263 238 165.571 238 161.03C238 155.906 239.255 151.921 241.766 149.076C244.276 146.231 247.739 144.809 252.155 144.809C255.912 144.809 258.981 145.648 261.363 147.326C263.764 149.003 265.184 151.967 265.623 156.216H257.598Z" fill="white"/>
<path d="M295.737 169.838C298.028 169.838 299.787 169.026 301.014 167.403C302.242 165.78 302.856 163.474 302.856 160.483C302.856 157.492 302.242 155.194 301.014 153.59C299.787 151.967 298.028 151.155 295.737 151.155C293.447 151.155 291.678 151.967 290.432 153.59C289.205 155.194 288.591 157.492 288.591 160.483C288.591 163.474 289.205 165.78 290.432 167.403C291.678 169.026 293.447 169.838 295.737 169.838ZM311.074 160.483C311.074 164.859 309.81 168.607 307.281 171.725C304.752 174.825 300.914 176.375 295.765 176.375C290.615 176.375 286.777 174.825 284.248 171.725C281.719 168.607 280.455 164.859 280.455 160.483C280.455 156.179 281.719 152.45 284.248 149.295C286.777 146.14 290.615 144.563 295.765 144.563C300.914 144.563 304.752 146.14 307.281 149.295C309.81 152.45 311.074 156.179 311.074 160.483Z" fill="white"/>
<path d="M348.609 160.428C348.609 158.13 348.078 156.097 347.015 154.328C345.97 152.559 344.266 151.675 341.902 151.675C339.062 151.675 337.111 153.015 336.048 155.696C335.498 157.118 335.223 158.924 335.223 161.112C335.223 164.577 336.149 167.011 337.999 168.415C339.099 169.236 340.4 169.646 341.902 169.646C344.083 169.646 345.741 168.808 346.877 167.13C348.032 165.452 348.609 163.218 348.609 160.428ZM344.156 144.864C347.656 144.864 350.616 146.149 353.034 148.721C355.471 151.292 356.69 155.067 356.69 160.045C356.69 165.297 355.499 169.3 353.117 172.054C350.753 174.807 347.702 176.184 343.964 176.184C341.582 176.184 339.603 175.591 338.027 174.406C337.166 173.75 336.323 172.792 335.498 171.534V187.071H327.747V145.52H335.251V149.924C336.094 148.629 336.992 147.608 337.945 146.861C339.685 145.529 341.756 144.864 344.156 144.864Z" fill="white"/>
<path d="M390.157 160.838C389.662 161.148 389.158 161.404 388.645 161.604C388.15 161.787 387.463 161.96 386.584 162.124L384.825 162.452C383.175 162.744 381.994 163.1 381.279 163.519C380.07 164.23 379.465 165.334 379.465 166.829C379.465 168.16 379.831 169.127 380.564 169.728C381.316 170.312 382.223 170.604 383.285 170.604C384.971 170.604 386.52 170.111 387.93 169.127C389.36 168.142 390.102 166.346 390.157 163.738V160.838ZM385.402 157.2C386.849 157.018 387.885 156.79 388.508 156.516C389.625 156.042 390.184 155.304 390.184 154.301C390.184 153.079 389.754 152.24 388.893 151.784C388.05 151.31 386.804 151.073 385.154 151.073C383.304 151.073 381.994 151.529 381.224 152.441C380.674 153.115 380.308 154.027 380.124 155.176H372.566C372.731 152.568 373.464 150.426 374.765 148.748C376.835 146.122 380.39 144.809 385.429 144.809C388.709 144.809 391.623 145.456 394.17 146.751C396.717 148.046 397.99 150.489 397.99 154.082V167.759C397.99 168.707 398.009 169.856 398.045 171.206C398.1 172.227 398.256 172.92 398.513 173.284C398.769 173.649 399.154 173.95 399.667 174.187V175.336H391.146C390.908 174.734 390.743 174.169 390.652 173.64C390.56 173.111 390.487 172.509 390.432 171.835C389.351 173.002 388.105 173.996 386.694 174.816C385.008 175.783 383.102 176.266 380.977 176.266C378.265 176.266 376.02 175.5 374.242 173.968C372.483 172.418 371.604 170.23 371.604 167.403C371.604 163.738 373.024 161.085 375.864 159.443C377.422 158.55 379.712 157.912 382.736 157.529L385.402 157.2Z" fill="white"/>
<path d="M427.279 144.809C429.094 144.809 430.706 145.21 432.117 146.013C433.528 146.797 434.673 147.891 435.553 149.295V135.071H443.496V175.336H435.883V171.206C434.765 172.974 433.491 174.26 432.062 175.063C430.633 175.865 428.855 176.266 426.73 176.266C423.23 176.266 420.28 174.862 417.879 172.054C415.497 169.227 414.306 165.607 414.306 161.194C414.306 156.106 415.479 152.103 417.824 149.186C420.188 146.268 423.34 144.809 427.279 144.809ZM428.984 169.701C431.201 169.701 432.887 168.88 434.041 167.239C435.195 165.598 435.773 163.474 435.773 160.866C435.773 157.219 434.847 154.611 432.997 153.043C431.86 152.094 430.541 151.62 429.039 151.62C426.748 151.62 425.062 152.486 423.981 154.219C422.918 155.933 422.387 158.067 422.387 160.62C422.387 163.373 422.927 165.58 424.009 167.239C425.108 168.88 426.766 169.701 428.984 169.701Z" fill="white"/>
<path d="M478.42 160.838C477.925 161.148 477.421 161.404 476.908 161.604C476.413 161.787 475.726 161.96 474.847 162.124L473.088 162.452C471.438 162.744 470.256 163.1 469.542 163.519C468.332 164.23 467.728 165.334 467.728 166.829C467.728 168.16 468.094 169.127 468.827 169.728C469.579 170.312 470.486 170.604 471.548 170.604C473.234 170.604 474.783 170.111 476.193 169.127C477.623 168.142 478.365 166.346 478.42 163.738V160.838ZM473.665 157.2C475.112 157.018 476.148 156.79 476.771 156.516C477.888 156.042 478.447 155.304 478.447 154.301C478.447 153.079 478.017 152.24 477.155 151.784C476.313 151.31 475.067 151.073 473.417 151.073C471.567 151.073 470.256 151.529 469.487 152.441C468.937 153.115 468.571 154.027 468.387 155.176H460.829C460.994 152.568 461.727 150.426 463.028 148.748C465.098 146.122 468.653 144.809 473.692 144.809C476.972 144.809 479.886 145.456 482.433 146.751C484.98 148.046 486.253 150.489 486.253 154.082V167.759C486.253 168.707 486.272 169.856 486.308 171.206C486.363 172.227 486.519 172.92 486.776 173.284C487.032 173.649 487.417 173.95 487.93 174.187V175.336H479.409C479.171 174.734 479.006 174.169 478.915 173.64C478.823 173.111 478.75 172.509 478.695 171.835C477.614 173.002 476.368 173.996 474.957 174.816C473.271 175.783 471.365 176.266 469.24 176.266C466.528 176.266 464.283 175.5 462.505 173.968C460.746 172.418 459.867 170.23 459.867 167.403C459.867 163.738 461.287 161.085 464.127 159.443C465.685 158.55 467.975 157.912 470.999 157.529L473.665 157.2Z" fill="white"/>
<path d="M510.595 165.817C510.76 167.203 511.117 168.188 511.667 168.771C512.638 169.811 514.434 170.33 517.054 170.33C518.593 170.33 519.812 170.102 520.71 169.646C521.626 169.191 522.084 168.507 522.084 167.595C522.084 166.72 521.718 166.054 520.985 165.598C520.252 165.142 517.531 164.358 512.821 163.246C509.431 162.407 507.04 161.358 505.647 160.1C504.255 158.86 503.558 157.073 503.558 154.738C503.558 151.985 504.64 149.623 506.802 147.654C508.982 145.666 512.042 144.672 515.982 144.672C519.72 144.672 522.762 145.42 525.107 146.915C527.471 148.392 528.827 150.954 529.175 154.602H521.342C521.232 153.599 520.948 152.805 520.49 152.222C519.629 151.164 518.163 150.635 516.092 150.635C514.388 150.635 513.169 150.9 512.436 151.429C511.722 151.957 511.365 152.577 511.365 153.289C511.365 154.182 511.749 154.83 512.519 155.231C513.289 155.65 516.01 156.371 520.682 157.392C523.797 158.121 526.134 159.225 527.691 160.702C529.23 162.197 530 164.066 530 166.309C530 169.263 528.891 171.68 526.674 173.558C524.475 175.418 521.067 176.348 516.449 176.348C511.74 176.348 508.259 175.363 506.005 173.394C503.769 171.406 502.651 168.88 502.651 165.817H510.595Z" fill="white"/>
<path fill-rule="evenodd" clip-rule="evenodd" d="M92.6857 163.416C92.954 163.716 93.2536 164.046 93.5833 164.4C95.2407 166.18 97.6391 168.554 100.596 170.921C106.579 175.713 114.499 180.204 123 180.204C131.501 180.204 139.421 175.713 145.404 170.921C148.361 168.554 150.759 166.18 152.417 164.4C152.746 164.046 153.046 163.716 153.314 163.416C153.066 163.159 152.792 162.881 152.494 162.584C150.84 160.939 148.444 158.743 145.489 156.552C139.519 152.125 131.569 147.938 123 147.938C114.431 147.938 106.481 152.125 100.512 156.552C97.5562 158.743 95.1601 160.939 93.5059 162.584C93.2075 162.881 92.9338 163.159 92.6857 163.416ZM157.154 163.338C159.381 165.164 159.381 165.165 159.38 165.166L159.374 165.173L159.362 165.19L159.32 165.243C159.284 165.288 159.234 165.351 159.17 165.432C159.041 165.592 158.854 165.821 158.612 166.109C158.129 166.684 157.425 167.494 156.524 168.462C154.725 170.395 152.122 172.972 148.897 175.554C142.519 180.662 133.362 186.071 123 186.071C112.638 186.071 103.481 180.662 97.1028 175.554C93.8785 172.972 91.2752 170.395 89.476 168.462C88.5748 167.494 87.8712 166.684 87.388 166.109C87.1463 165.821 86.9595 165.592 86.8304 165.432C86.7658 165.351 86.7157 165.288 86.6803 165.243L86.6383 165.19L86.6257 165.173L86.6215 165.168C86.6208 165.167 86.6187 165.164 88.8456 163.338C86.6872 161.425 86.6878 161.425 86.6885 161.424L86.6945 161.417L86.7074 161.401L86.7499 161.351C86.7856 161.309 86.8361 161.25 86.9011 161.175C87.0309 161.026 87.2184 160.813 87.4609 160.546C87.9455 160.012 88.6506 159.26 89.5533 158.362C91.3557 156.57 93.9614 154.182 97.1869 151.79C103.579 147.05 112.706 142.071 123 142.071C133.294 142.071 142.421 147.05 148.813 151.79C152.039 154.182 154.644 156.57 156.447 158.362C157.349 159.26 158.055 160.012 158.539 160.546C158.782 160.813 158.969 161.026 159.099 161.175C159.164 161.25 159.214 161.309 159.25 161.351L159.293 161.401L159.306 161.417L159.31 161.422C159.311 161.423 159.313 161.425 157.154 163.338ZM88.8456 163.338L86.6885 161.424C85.7979 162.492 85.7678 164.063 86.6187 165.164L88.8456 163.338ZM157.154 163.338L159.313 161.425C160.203 162.493 160.231 164.064 159.38 165.166L157.154 163.338Z" fill="white"/>
</g>
<defs>
<filter id="filter0_d" x="0" y="0" width="545" height="303.071" filterUnits="userSpaceOnUse" color-interpolation-filters="sRGB">
<feFlood flood-opacity="0" result="BackgroundImageFix"/>
<feColorMatrix in="SourceAlpha" type="matrix" values="0 0 0 0 0 0 0 0 0 0 0 0 0 0 0 0 0 0 127 0"/>
<feOffset dy="4"/>
<feGaussianBlur stdDeviation="7.5"/>
<feColorMatrix type="matrix" values="0 0 0 0 0 0 0 0 0 0 0 0 0 0 0 0 0 0 0.25 0"/>
<feBlend mode="normal" in2="BackgroundImageFix" result="effect1_dropShadow"/>
<feBlend mode="normal" in="SourceGraphic" in2="effect1_dropShadow" result="shape"/>
</filter>
</defs>
</svg>
