<svg width="154" height="34" viewBox="0 0 154 34" fill="none" xmlns="http://www.w3.org/2000/svg">
<path d="M16.474 11.0947V5.71545L5.04309 16.7995L16.474 28.241V21.8532" stroke="black" stroke-width="1.5" stroke-miterlimit="10"/>
<path d="M20.3736 26.8962V19.7179V16.7368V12.1842V5.71545L31.2668 16.1511H14.1205" stroke="black" stroke-width="1.5" stroke-miterlimit="10"/>
<path d="M19.7775 0L19.6678 33.9564" stroke="black" stroke-width="0.1" stroke-miterlimit="10"/>
<path d="M17.1464 0V33.9564" stroke="black" stroke-width="0.1" stroke-miterlimit="10"/>
<path d="M19.8359 1.68103L1.68103 19.1635" stroke="black" stroke-width="0.1" stroke-miterlimit="10"/>
<path d="M0 16.8101H36.646" stroke="black" stroke-width="0.1" stroke-miterlimit="10"/>
<path d="M21.0126 26.8962L19.7247 29.922V26.8962H21.0126Z" fill="black"/>
<path d="M15.8015 11.0947L17.1463 13.7843V11.0947H15.8015Z" fill="black"/>
<path d="M15.8015 21.8532L17.1463 18.8273V21.8532H15.8015Z" fill="black"/>
<path d="M14.1205 15.4653L11.0947 16.8101H14.1205V15.4653Z" fill="black"/>
<path d="M35.3013 19.1635L17.1464 1.68103" stroke="black" stroke-width="0.1" stroke-miterlimit="10"/>
<path d="M20.1721 32.6116L2.01721 14.7929" stroke="black" stroke-width="0.1" stroke-miterlimit="10"/>
<path d="M48.0888 17.5457C47.9006 17.6901 47.6621 17.7905 47.3734 17.847C47.0847 17.9035 46.7772 17.9317 46.4509 17.9317C46.0555 17.9317 45.6852 17.8658 45.34 17.734C44.9949 17.5959 44.6936 17.3888 44.4363 17.1127C44.179 16.8366 43.9751 16.4851 43.8244 16.0584C43.6738 15.6253 43.5985 15.1139 43.5985 14.5239C43.5985 13.9089 43.6801 13.388 43.8433 12.9613C44.0127 12.5283 44.2324 12.1768 44.5022 11.907C44.7784 11.6308 45.0859 11.43 45.4248 11.3045C45.7637 11.179 46.1088 11.1162 46.4603 11.1162C46.8368 11.1162 47.1443 11.1382 47.3828 11.1821C47.6213 11.2198 47.8252 11.2731 47.9947 11.3421L47.8064 12.0293C47.5052 11.885 47.0753 11.8128 46.5167 11.8128C46.2594 11.8128 46.0053 11.8599 45.7542 11.954C45.5032 12.0482 45.2773 12.2019 45.0765 12.4153C44.8819 12.6287 44.725 12.9079 44.6058 13.2531C44.4865 13.5983 44.4269 14.0219 44.4269 14.5239C44.4269 14.9758 44.4834 15.3712 44.5964 15.7101C44.7093 16.049 44.8631 16.3314 45.0576 16.5573C45.2585 16.7832 45.4907 16.9527 45.7542 17.0656C46.0241 17.1786 46.3159 17.2351 46.6297 17.2351C46.9121 17.2351 47.1569 17.2068 47.364 17.1504C47.5774 17.0939 47.7562 17.0217 47.9006 16.9338L48.0888 17.5457Z" fill="black"/>
<path d="M56.8244 15.9925H54.3957L53.7367 17.8187H52.9648L55.4594 11.1256H55.8171L58.3212 17.8187H57.5022L56.8244 15.9925ZM54.6499 15.3147H56.5891L55.8548 13.3096L55.6195 12.3117H55.61L55.3747 13.3284L54.6499 15.3147Z" fill="black"/>
<path d="M68.9677 13.3943L69.0618 12.4059H69.0147L68.657 13.3096L66.9437 16.2843H66.7084L64.8916 13.3002L64.5527 12.4059H64.5056L64.6374 13.3849V17.8187H63.9031V11.2292H64.4868L66.5484 14.5993L66.859 15.3335H66.8778L67.1697 14.5804L69.1371 11.2292H69.749V17.8187H68.9677V13.3943Z" fill="black"/>
<path d="M76.2352 11.2292H77.0165V17.8187H76.2352V11.2292Z" fill="black"/>
<path d="M87.3999 17.8187H83.5027V11.2292H84.284V17.1221H87.3999V17.8187Z" fill="black"/>
<path d="M96.2625 15.9925H93.8338L93.1748 17.8187H92.4029L94.8975 11.1256H95.2552L97.7593 17.8187H96.9403L96.2625 15.9925ZM94.0879 15.3147H96.0272L95.2929 13.3096L95.0576 12.3117H95.0481L94.8128 13.3284L94.0879 15.3147Z" fill="black"/>
<path d="M110.172 11.2951C110.41 11.2386 110.667 11.2009 110.944 11.1821C111.22 11.1633 111.493 11.1539 111.763 11.1539C112.051 11.1539 112.343 11.1821 112.638 11.2386C112.939 11.2951 113.212 11.3986 113.457 11.5492C113.702 11.6999 113.899 11.907 114.05 12.1705C114.207 12.4341 114.285 12.7699 114.285 13.1778C114.285 13.5794 114.213 13.9183 114.069 14.1945C113.925 14.4706 113.733 14.6965 113.495 14.8723C113.256 15.0417 112.983 15.1641 112.676 15.2394C112.368 15.3147 112.051 15.3524 111.725 15.3524C111.694 15.3524 111.64 15.3524 111.565 15.3524C111.496 15.3524 111.421 15.3524 111.339 15.3524C111.264 15.3461 111.188 15.3398 111.113 15.3335C111.038 15.3272 110.984 15.321 110.953 15.3147V17.8187H110.172V11.2951ZM111.781 11.8316C111.618 11.8316 111.461 11.8348 111.311 11.8411C111.16 11.8473 111.041 11.863 110.953 11.8881V14.6181C110.984 14.6306 111.035 14.6401 111.104 14.6463C111.173 14.6463 111.245 14.6495 111.32 14.6557C111.395 14.6557 111.468 14.6557 111.537 14.6557C111.606 14.6557 111.656 14.6557 111.687 14.6557C111.901 14.6557 112.111 14.6369 112.318 14.5993C112.531 14.5553 112.723 14.48 112.892 14.3733C113.062 14.2666 113.197 14.116 113.297 13.9215C113.404 13.7269 113.457 13.479 113.457 13.1778C113.457 12.9205 113.407 12.7071 113.306 12.5377C113.212 12.3619 113.084 12.2239 112.92 12.1235C112.764 12.0168 112.585 11.9415 112.384 11.8975C112.183 11.8536 111.982 11.8316 111.781 11.8316Z" fill="black"/>
<path d="M120.137 11.2292H123.723V11.9258H120.918V14.0815H123.488V14.7781H120.918V17.1221H123.771V17.8187H120.137V11.2292ZM122.443 9.62885H123.516V9.82653L121.982 10.7397H121.332L122.443 9.62885Z" fill="black"/>
<path d="M129.891 11.2951C130.129 11.2511 130.402 11.2166 130.71 11.1915C131.023 11.1664 131.309 11.1539 131.566 11.1539C131.855 11.1539 132.128 11.1852 132.385 11.248C132.649 11.3108 132.878 11.4143 133.072 11.5586C133.273 11.703 133.433 11.8913 133.553 12.1235C133.672 12.3557 133.731 12.6381 133.731 12.9707C133.731 13.4853 133.59 13.9026 133.308 14.2227C133.025 14.5428 132.668 14.7562 132.235 14.8628L132.687 15.2111L134.325 17.8187H133.411L131.595 14.9758L130.672 14.8346V17.8187H129.891V11.2951ZM131.585 11.8316C131.504 11.8316 131.419 11.8316 131.331 11.8316C131.243 11.8316 131.158 11.8348 131.077 11.8411C130.995 11.8473 130.917 11.8536 130.841 11.8599C130.772 11.8662 130.716 11.8756 130.672 11.8881V14.3168H131.406C131.839 14.3168 132.197 14.2102 132.479 13.9968C132.762 13.7834 132.903 13.4508 132.903 12.9989C132.903 12.66 132.787 12.3808 132.555 12.1611C132.323 11.9415 131.999 11.8316 131.585 11.8316Z" fill="black"/>
<path d="M140.196 11.2292H143.783V11.9258H140.977V14.0815H143.547V14.7781H140.977V17.1221H143.83V17.8187H140.196V11.2292Z" fill="black"/>
<path d="M149.507 17.1127L152.83 12.3023L153.226 11.9258H149.507V11.2292H153.932V11.9352L150.59 16.7738L150.195 17.1221H153.932V17.8187H149.507V17.1127Z" fill="black"/>
<path d="M47.3521 20.7101H47.6749V22.5941C47.6749 22.7636 47.652 22.9102 47.6063 23.0339C47.5632 23.1576 47.5 23.2598 47.4166 23.3405C47.336 23.4185 47.2378 23.4763 47.1221 23.514C47.0065 23.5517 46.8787 23.5705 46.7389 23.5705C46.4054 23.5705 46.1539 23.4952 45.9844 23.3446C45.815 23.1939 45.7303 22.9653 45.7303 22.6587V20.7101H46.0651V22.5014C46.0651 22.6439 46.0786 22.7649 46.1055 22.8645C46.135 22.9613 46.1781 23.0406 46.2346 23.1025C46.291 23.1617 46.361 23.2047 46.4444 23.2316C46.5304 23.2585 46.6299 23.2719 46.7429 23.2719C46.9608 23.2719 47.1168 23.2128 47.2109 23.0944C47.305 22.9734 47.3521 22.7757 47.3521 22.5014V20.7101Z" fill="black"/>
<path d="M52.2109 22.0979L51.3516 20.7101H51.755L52.3279 21.6662L52.4288 21.8962L52.5256 21.6662L53.1308 20.7101H53.502L52.6144 22.0697L53.5423 23.5342H53.151L52.5135 22.5215L52.4046 22.2795L52.2997 22.5215L51.6461 23.5342H51.2709L52.2109 22.0979Z" fill="black"/>
<path d="M61.3832 22.7797C61.3832 22.6721 61.402 22.5699 61.4397 22.4731C61.4773 22.3736 61.5284 22.2822 61.593 22.1988C61.6575 22.1154 61.7301 22.0387 61.8108 21.9688C61.8942 21.8989 61.9803 21.837 62.069 21.7832C62.0045 21.6864 61.948 21.5896 61.8996 21.4927C61.8539 21.3959 61.831 21.291 61.831 21.1781C61.831 21.1135 61.8418 21.0503 61.8633 20.9884C61.8848 20.9266 61.9184 20.8714 61.9641 20.823C62.0125 20.7746 62.0731 20.7356 62.1457 20.706C62.221 20.6765 62.3111 20.6617 62.416 20.6617C62.5263 20.6617 62.6191 20.6765 62.6944 20.706C62.7697 20.7329 62.8302 20.7692 62.8759 20.815C62.9216 20.8607 62.9539 20.9118 62.9727 20.9683C62.9943 21.0248 63.005 21.0826 63.005 21.1418C63.005 21.2547 62.9606 21.3717 62.8719 21.4927C62.7858 21.6111 62.6486 21.7254 62.4604 21.8357C62.5034 21.9137 62.5532 21.9944 62.6096 22.0777C62.6688 22.1584 62.7307 22.2391 62.7952 22.3198C62.8598 22.4005 62.9257 22.4812 62.9929 22.5619C63.0601 22.6399 63.1274 22.7125 63.1946 22.7797C63.2242 22.7475 63.2538 22.7071 63.2834 22.6587C63.313 22.6076 63.3412 22.5551 63.3681 22.5014C63.3977 22.4449 63.4232 22.387 63.4448 22.3279C63.469 22.2687 63.4905 22.2122 63.5093 22.1584L63.7594 22.2754C63.7433 22.3212 63.7204 22.3763 63.6909 22.4408C63.6613 22.5027 63.6277 22.5673 63.59 22.6345C63.555 22.699 63.5187 22.7622 63.4811 22.8241C63.4434 22.8833 63.4085 22.933 63.3762 22.9734C63.4327 23.0272 63.4838 23.0742 63.5295 23.1146C63.5752 23.1522 63.6169 23.1859 63.6546 23.2154C63.6949 23.2423 63.7326 23.2679 63.7675 23.2921C63.8052 23.3136 63.8428 23.3351 63.8805 23.3567L63.6788 23.5826C63.5362 23.5127 63.3735 23.3876 63.1906 23.2074C63.1422 23.2558 63.0884 23.3029 63.0292 23.3486C62.9727 23.3916 62.9082 23.4306 62.8356 23.4656C62.7629 23.5005 62.6823 23.5288 62.5935 23.5503C62.5074 23.5718 62.4119 23.5826 62.3071 23.5826C62.1806 23.5826 62.061 23.5651 61.948 23.5301C61.8377 23.4952 61.7409 23.4441 61.6575 23.3768C61.5741 23.3069 61.5069 23.2222 61.4558 23.1227C61.4074 23.0231 61.3832 22.9088 61.3832 22.7797ZM63.001 23.0057C62.923 22.9277 62.8463 22.8429 62.771 22.7515C62.6957 22.66 62.6231 22.5686 62.5532 22.4771C62.4859 22.3857 62.4227 22.2983 62.3635 22.2149C62.3071 22.1288 62.2586 22.0535 62.2183 21.989C62.1457 22.0428 62.0784 22.0979 62.0166 22.1544C61.9547 22.2109 61.8996 22.2714 61.8512 22.3359C61.8054 22.3978 61.7691 22.465 61.7422 22.5377C61.718 22.6103 61.7059 22.6883 61.7059 22.7717C61.7059 22.855 61.7234 22.9303 61.7584 22.9976C61.7933 23.0621 61.8404 23.1173 61.8996 23.163C61.9614 23.206 62.0314 23.2397 62.1094 23.2639C62.1874 23.2881 62.2694 23.3002 62.3555 23.3002C62.4227 23.3002 62.4873 23.2921 62.5491 23.276C62.6137 23.2571 62.6742 23.2343 62.7307 23.2074C62.7872 23.1805 62.8383 23.1496 62.884 23.1146C62.9324 23.0796 62.9714 23.0433 63.001 23.0057ZM62.1457 21.1781C62.1457 21.2588 62.1618 21.3394 62.1941 21.4201C62.2291 21.4981 62.2734 21.5761 62.3272 21.6541C62.4698 21.5627 62.5679 21.4793 62.6217 21.404C62.6782 21.3287 62.7065 21.2628 62.7065 21.2063C62.7065 21.1202 62.6849 21.0503 62.6419 20.9965C62.6016 20.9427 62.5303 20.9158 62.4281 20.9158C62.3313 20.9158 62.26 20.94 62.2143 20.9884C62.1685 21.0369 62.1457 21.1001 62.1457 21.1781Z" fill="black"/>
<path d="M72.8573 22.1262H73.8054V23.3688C73.7624 23.401 73.7099 23.4306 73.648 23.4575C73.5889 23.4844 73.5243 23.5073 73.4544 23.5261C73.3872 23.5449 73.3159 23.5584 73.2406 23.5664C73.168 23.5772 73.0967 23.5826 73.0267 23.5826C72.8465 23.5826 72.6811 23.5543 72.5305 23.4979C72.3799 23.4387 72.2494 23.3499 72.1392 23.2316C72.0289 23.1106 71.9428 22.9586 71.881 22.7757C71.8191 22.5901 71.7882 22.3723 71.7882 22.1221C71.7882 21.8612 71.8258 21.638 71.9011 21.4524C71.9765 21.2668 72.0746 21.1162 72.1957 21.0005C72.3167 20.8822 72.4525 20.7961 72.6031 20.7423C72.7537 20.6886 72.9044 20.6617 73.055 20.6617C73.2164 20.6617 73.3495 20.6711 73.4544 20.6899C73.5593 20.706 73.648 20.7289 73.7207 20.7585L73.6359 21.053C73.5068 20.9911 73.3226 20.9602 73.0832 20.9602C72.9703 20.9602 72.8573 20.9804 72.7443 21.0207C72.6341 21.0584 72.5345 21.1229 72.4458 21.2144C72.357 21.3058 72.2844 21.4255 72.2279 21.5734C72.1714 21.7214 72.1432 21.9043 72.1432 22.1221C72.1432 22.3212 72.1661 22.4933 72.2118 22.6385C72.2575 22.7838 72.3207 22.9048 72.4014 23.0016C72.4848 23.0958 72.5843 23.167 72.7 23.2154C72.8156 23.2612 72.942 23.284 73.0792 23.284C73.2513 23.284 73.3979 23.2504 73.5189 23.1832V22.3965L72.8573 22.3158V22.1262Z" fill="black"/>
<path d="M77.5223 20.7383C77.6245 20.7195 77.7415 20.7047 77.8733 20.6939C78.0078 20.6832 78.1302 20.6778 78.2405 20.6778C78.3642 20.6778 78.4812 20.6912 78.5914 20.7181C78.7044 20.745 78.8026 20.7894 78.886 20.8513C78.972 20.9131 79.0406 20.9938 79.0917 21.0933C79.1428 21.1929 79.1684 21.3139 79.1684 21.4564C79.1684 21.677 79.1079 21.8558 78.9868 21.993C78.8658 22.1302 78.7125 22.2216 78.5269 22.2674L78.7205 22.4166L79.4225 23.5342H79.0312L78.2526 22.3158L77.8572 22.2553V23.5342H77.5223V20.7383ZM78.2485 20.9683C78.2136 20.9683 78.1772 20.9683 78.1396 20.9683C78.1019 20.9683 78.0656 20.9696 78.0307 20.9723C77.9957 20.975 77.9621 20.9777 77.9298 20.9804C77.9002 20.9831 77.876 20.9871 77.8572 20.9925V22.0334H78.1719C78.3575 22.0334 78.5108 21.9876 78.6318 21.8962C78.7528 21.8047 78.8133 21.6622 78.8133 21.4685C78.8133 21.3233 78.7636 21.2036 78.6641 21.1095C78.5646 21.0153 78.426 20.9683 78.2485 20.9683Z" fill="black"/>
<path d="M84.3056 22.7515H83.2648L82.9824 23.5342H82.6515L83.7207 20.6657H83.874L84.9471 23.5342H84.5961L84.3056 22.7515ZM83.3737 22.461H84.2048L83.8901 21.6017L83.7892 21.174H83.7852L83.6843 21.6097L83.3737 22.461Z" fill="black"/>
<path d="M88.469 20.7383C88.5712 20.7141 88.6815 20.698 88.7998 20.6899C88.9182 20.6818 89.0352 20.6778 89.1508 20.6778C89.2746 20.6778 89.3996 20.6899 89.526 20.7141C89.6551 20.7383 89.7721 20.7827 89.877 20.8472C89.9819 20.9118 90.0667 21.0005 90.1312 21.1135C90.1984 21.2265 90.2321 21.3704 90.2321 21.5452C90.2321 21.7173 90.2011 21.8626 90.1393 21.9809C90.0774 22.0993 89.9954 22.1961 89.8932 22.2714C89.791 22.344 89.674 22.3965 89.5422 22.4287C89.4104 22.461 89.2746 22.4771 89.1347 22.4771C89.1212 22.4771 89.0984 22.4771 89.0661 22.4771C89.0365 22.4771 89.0042 22.4771 88.9693 22.4771C88.937 22.4745 88.9047 22.4718 88.8725 22.4691C88.8402 22.4664 88.8173 22.4637 88.8039 22.461V23.5342H88.469V20.7383ZM89.1589 20.9683C89.089 20.9683 89.0217 20.9696 88.9572 20.9723C88.8926 20.975 88.8415 20.9817 88.8039 20.9925V22.1625C88.8173 22.1678 88.8388 22.1719 88.8684 22.1746C88.898 22.1746 88.9289 22.1759 88.9612 22.1786C88.9935 22.1786 89.0244 22.1786 89.054 22.1786C89.0836 22.1786 89.1051 22.1786 89.1186 22.1786C89.21 22.1786 89.3001 22.1705 89.3889 22.1544C89.4803 22.1356 89.5623 22.1033 89.635 22.0576C89.7076 22.0118 89.7654 21.9473 89.8084 21.8639C89.8542 21.7805 89.877 21.6743 89.877 21.5452C89.877 21.4349 89.8555 21.3435 89.8125 21.2709C89.7721 21.1955 89.717 21.1364 89.6471 21.0933C89.5798 21.0476 89.5032 21.0153 89.4171 20.9965C89.331 20.9777 89.245 20.9683 89.1589 20.9683Z" fill="black"/>
<path d="M95.5599 22.2391H94.2043V23.5342H93.8695V20.7101H94.2043V21.9406H95.5599V20.7101H95.8948V23.5342H95.5599V22.2391Z" fill="black"/>
<path d="M99.8036 20.7101H100.138V23.5342H99.8036V20.7101Z" fill="black"/>
<path d="M105.855 23.4172C105.775 23.479 105.672 23.5221 105.549 23.5463C105.425 23.5705 105.293 23.5826 105.153 23.5826C104.984 23.5826 104.825 23.5543 104.677 23.4979C104.529 23.4387 104.4 23.3499 104.29 23.2316C104.18 23.1132 104.092 22.9626 104.028 22.7797C103.963 22.5941 103.931 22.3749 103.931 22.1221C103.931 21.8585 103.966 21.6353 104.036 21.4524C104.108 21.2668 104.203 21.1162 104.318 21.0005C104.437 20.8822 104.568 20.7961 104.714 20.7423C104.859 20.6886 105.007 20.6617 105.157 20.6617C105.319 20.6617 105.451 20.6711 105.553 20.6899C105.655 20.706 105.742 20.7289 105.815 20.7585L105.734 21.053C105.605 20.9911 105.421 20.9602 105.182 20.9602C105.071 20.9602 104.962 20.9804 104.855 21.0207C104.747 21.0611 104.65 21.127 104.564 21.2184C104.481 21.3099 104.414 21.4295 104.363 21.5775C104.311 21.7254 104.286 21.9069 104.286 22.1221C104.286 22.3158 104.31 22.4852 104.359 22.6305C104.407 22.7757 104.473 22.8967 104.556 22.9936C104.642 23.0904 104.742 23.163 104.855 23.2114C104.97 23.2598 105.095 23.284 105.23 23.284C105.351 23.284 105.456 23.2719 105.545 23.2477C105.636 23.2235 105.713 23.1926 105.775 23.1549L105.855 23.4172Z" fill="black"/>
<path d="M113.56 20.7101C113.612 20.702 113.668 20.6966 113.73 20.6939C113.794 20.6886 113.86 20.6859 113.928 20.6859C113.998 20.6832 114.065 20.6818 114.129 20.6818C114.197 20.6791 114.258 20.6778 114.315 20.6778C114.541 20.6778 114.736 20.7128 114.9 20.7827C115.067 20.8526 115.204 20.9508 115.311 21.0772C115.419 21.2009 115.498 21.3502 115.549 21.525C115.603 21.6999 115.63 21.8922 115.63 22.1019C115.63 22.2929 115.605 22.4771 115.553 22.6547C115.505 22.8295 115.427 22.9855 115.319 23.1227C115.212 23.2571 115.072 23.3661 114.9 23.4494C114.728 23.5301 114.519 23.5705 114.275 23.5705C114.232 23.5705 114.175 23.5691 114.105 23.5664C114.038 23.5664 113.968 23.5638 113.895 23.5584C113.823 23.5557 113.755 23.553 113.694 23.5503C113.632 23.5476 113.587 23.5436 113.56 23.5382V20.7101ZM114.323 20.9763C114.288 20.9763 114.249 20.9763 114.206 20.9763C114.166 20.9763 114.125 20.9777 114.085 20.9804C114.045 20.9831 114.007 20.9858 113.972 20.9884C113.94 20.9911 113.914 20.9938 113.895 20.9965V23.2558C113.909 23.2585 113.934 23.2612 113.972 23.2639C114.01 23.2639 114.049 23.2652 114.089 23.2679C114.129 23.2679 114.168 23.2692 114.206 23.2719C114.244 23.2719 114.269 23.2719 114.283 23.2719C114.471 23.2719 114.628 23.2397 114.755 23.1751C114.884 23.1106 114.986 23.0245 115.061 22.9169C115.139 22.8066 115.194 22.6816 115.227 22.5417C115.259 22.3992 115.275 22.2526 115.275 22.1019C115.275 21.9702 115.26 21.8384 115.231 21.7066C115.201 21.5721 115.15 21.4511 115.077 21.3435C115.005 21.2359 114.907 21.1485 114.783 21.0812C114.662 21.0113 114.509 20.9763 114.323 20.9763Z" fill="black"/>
<path d="M119.347 20.7101H120.884V21.0086H119.682V21.9325H120.783V22.231H119.682V23.2356H120.904V23.5342H119.347V20.7101Z" fill="black"/>
<path d="M125.932 22.816C125.932 22.7031 125.898 22.6116 125.831 22.5417C125.764 22.4691 125.679 22.4059 125.577 22.3521C125.477 22.2956 125.368 22.2432 125.25 22.1947C125.132 22.1463 125.021 22.0885 124.919 22.0213C124.82 21.9513 124.736 21.8666 124.669 21.7671C124.602 21.6649 124.568 21.5358 124.568 21.3798C124.568 21.1592 124.645 20.9844 124.798 20.8553C124.951 20.7262 125.169 20.6617 125.452 20.6617C125.616 20.6617 125.765 20.6738 125.899 20.698C126.034 20.7222 126.139 20.7531 126.214 20.7908L126.113 21.0853C126.051 21.0557 125.96 21.0274 125.839 21.0005C125.721 20.9737 125.586 20.9602 125.436 20.9602C125.258 20.9602 125.125 21.0005 125.036 21.0812C124.947 21.1592 124.903 21.252 124.903 21.3596C124.903 21.4645 124.937 21.5519 125.004 21.6219C125.071 21.6918 125.154 21.755 125.254 21.8115C125.356 21.8653 125.466 21.9191 125.585 21.9728C125.703 22.0266 125.812 22.0898 125.912 22.1625C126.014 22.2324 126.099 22.3171 126.166 22.4166C126.233 22.5161 126.267 22.6399 126.267 22.7878C126.267 22.9088 126.245 23.0178 126.202 23.1146C126.159 23.2114 126.096 23.2948 126.012 23.3647C125.929 23.4347 125.828 23.4884 125.71 23.5261C125.592 23.5638 125.457 23.5826 125.306 23.5826C125.105 23.5826 124.938 23.5664 124.806 23.5342C124.674 23.5046 124.572 23.471 124.5 23.4333L124.612 23.1307C124.674 23.1657 124.766 23.2007 124.887 23.2356C125.008 23.2679 125.144 23.284 125.294 23.284C125.383 23.284 125.466 23.276 125.544 23.2598C125.622 23.241 125.69 23.2128 125.746 23.1751C125.803 23.1348 125.847 23.085 125.879 23.0258C125.914 22.9667 125.932 22.8967 125.932 22.816Z" fill="black"/>
<path d="M130.024 20.7101H130.359V23.5342H130.024V20.7101Z" fill="black"/>
<path d="M135.22 22.1262H136.168V23.3688C136.125 23.401 136.073 23.4306 136.011 23.4575C135.952 23.4844 135.887 23.5073 135.817 23.5261C135.75 23.5449 135.679 23.5584 135.603 23.5664C135.531 23.5772 135.459 23.5826 135.39 23.5826C135.209 23.5826 135.044 23.5543 134.893 23.4979C134.743 23.4387 134.612 23.3499 134.502 23.2316C134.392 23.1106 134.306 22.9586 134.244 22.7757C134.182 22.5901 134.151 22.3723 134.151 22.1221C134.151 21.8612 134.189 21.638 134.264 21.4524C134.339 21.2668 134.437 21.1162 134.558 21.0005C134.679 20.8822 134.815 20.7961 134.966 20.7423C135.117 20.6886 135.267 20.6617 135.418 20.6617C135.579 20.6617 135.712 20.6711 135.817 20.6899C135.922 20.706 136.011 20.7289 136.083 20.7585L135.999 21.053C135.87 20.9911 135.685 20.9602 135.446 20.9602C135.333 20.9602 135.22 20.9804 135.107 21.0207C134.997 21.0584 134.897 21.1229 134.809 21.2144C134.72 21.3058 134.647 21.4255 134.591 21.5734C134.534 21.7214 134.506 21.9043 134.506 22.1221C134.506 22.3212 134.529 22.4933 134.575 22.6385C134.62 22.7838 134.684 22.9048 134.764 23.0016C134.848 23.0958 134.947 23.167 135.063 23.2154C135.178 23.2612 135.305 23.284 135.442 23.284C135.614 23.284 135.761 23.2504 135.882 23.1832V22.3965L135.22 22.3158V22.1262Z" fill="black"/>
<path d="M140.393 21.6864L140.176 21.2789H140.159L140.2 21.6864V23.5342H139.885V20.6657H140.063L141.414 22.5498L141.624 22.9371H141.644L141.6 22.5498V20.7101H141.914V23.5785H141.737L140.393 21.6864Z" fill="black"/>
<path d="M145.747 20.7101H147.284V21.0086H146.081V21.9325H147.183V22.231H146.081V23.2356H147.304V23.5342H145.747V20.7101Z" fill="black"/>
<path d="M151.056 20.7383C151.159 20.7195 151.276 20.7047 151.407 20.6939C151.542 20.6832 151.664 20.6778 151.774 20.6778C151.898 20.6778 152.015 20.6912 152.125 20.7181C152.238 20.745 152.337 20.7894 152.42 20.8513C152.506 20.9131 152.575 20.9938 152.626 21.0933C152.677 21.1929 152.702 21.3139 152.702 21.4564C152.702 21.677 152.642 21.8558 152.521 21.993C152.4 22.1302 152.247 22.2216 152.061 22.2674L152.255 22.4166L152.957 23.5342H152.565L151.787 22.3158L151.391 22.2553V23.5342H151.056V20.7383ZM151.783 20.9683C151.748 20.9683 151.711 20.9683 151.674 20.9683C151.636 20.9683 151.6 20.9696 151.565 20.9723C151.53 20.975 151.496 20.9777 151.464 20.9804C151.434 20.9831 151.41 20.9871 151.391 20.9925V22.0334H151.706C151.891 22.0334 152.045 21.9876 152.166 21.8962C152.287 21.8047 152.347 21.6622 152.347 21.4685C152.347 21.3233 152.298 21.2036 152.198 21.1095C152.099 21.0153 151.96 20.9683 151.783 20.9683Z" fill="black"/>
</svg>
