<svg width="255" height="57" viewBox="0 0 255 57" fill="none" xmlns="http://www.w3.org/2000/svg">
<path d="M28.007 19.2469V10.3639L9.13043 28.6676L28.007 47.5618V37.0131" stroke="black" stroke-width="2.3" stroke-miterlimit="10"/>
<path d="M34.4466 45.341V33.4869V28.5642V21.0462V10.3639L52.4353 27.5969H24.1205" stroke="black" stroke-width="2.3" stroke-miterlimit="10"/>
<path d="M33.4623 0.925537L33.2812 57" stroke="black" stroke-width="0.1" stroke-miterlimit="10"/>
<path d="M29.1173 0.925537V57" stroke="black" stroke-width="0.1" stroke-miterlimit="10"/>
<path d="M33.5589 3.70157L3.57849 32.5716" stroke="black" stroke-width="0.1" stroke-miterlimit="10"/>
<path d="M0.802429 28.6852H61.3184" stroke="black" stroke-width="0.1" stroke-miterlimit="10"/>
<path d="M35.502 45.341L33.3751 50.3377V45.341H35.502Z" fill="black"/>
<path d="M26.8965 19.2469L29.1173 23.6885V19.2469H26.8965Z" fill="black"/>
<path d="M26.8965 37.0131L29.1173 32.0163V37.0131H26.8965Z" fill="black"/>
<path d="M24.1206 26.4644L19.1239 28.6851H24.1206V26.4644Z" fill="black"/>
<path d="M59.0977 32.5716L29.1173 3.70157" stroke="black" stroke-width="0.1" stroke-miterlimit="10"/>
<path d="M34.114 54.7792L4.13361 25.354" stroke="black" stroke-width="0.1" stroke-miterlimit="10"/>
<path d="M80.2147 29.9C79.9037 30.1383 79.5099 30.3041 79.0332 30.3974C78.5565 30.4907 78.0487 30.5373 77.5098 30.5373C76.8568 30.5373 76.2454 30.4285 75.6754 30.2109C75.1054 29.9829 74.6079 29.6409 74.183 29.1849C73.7581 28.7289 73.4213 28.1485 73.1726 27.4438C72.9239 26.7287 72.7995 25.8841 72.7995 24.9099C72.7995 23.8943 72.9342 23.0341 73.2037 22.3294C73.4835 21.6143 73.8462 21.0339 74.2919 20.5883C74.7479 20.1323 75.2557 19.8006 75.8153 19.5934C76.3749 19.3861 76.9449 19.2825 77.5253 19.2825C78.1471 19.2825 78.6549 19.3187 79.0487 19.3913C79.4426 19.4535 79.7794 19.5416 80.0592 19.6556L79.7483 20.7904C79.2508 20.552 78.5409 20.4328 77.6186 20.4328C77.1937 20.4328 76.7739 20.5106 76.3594 20.666C75.9449 20.8215 75.5718 21.0754 75.2401 21.4277C74.9189 21.7801 74.6598 22.2413 74.4629 22.8113C74.2659 23.3813 74.1675 24.0808 74.1675 24.9099C74.1675 25.6561 74.2608 26.309 74.4473 26.8686C74.6339 27.4283 74.8878 27.8946 75.209 28.2677C75.5407 28.6408 75.9241 28.9206 76.3594 29.1072C76.805 29.2937 77.2869 29.387 77.8051 29.387C78.2715 29.387 78.6757 29.3403 79.0177 29.2471C79.37 29.1538 79.6654 29.0346 79.9037 28.8895L80.2147 29.9Z" fill="black"/>
<path d="M94.6403 27.335H90.6296L89.5414 30.3508H88.2667L92.3862 19.298H92.9769L97.112 30.3508H95.7596L94.6403 27.335ZM91.0493 26.2157H94.2517L93.0391 22.9045L92.6505 21.2567H92.6349L92.2463 22.9356L91.0493 26.2157Z" fill="black"/>
<path d="M114.693 23.0445L114.849 21.4122H114.771L114.18 22.9045L111.351 27.8169H110.962L107.962 22.889L107.402 21.4122H107.325L107.542 23.0289V30.3508H106.33V19.469H107.294L110.698 25.0343L111.211 26.2468H111.242L111.724 25.0032L114.973 19.469H115.984V30.3508H114.693V23.0445Z" fill="black"/>
<path d="M126.695 19.469H127.985V30.3508H126.695V19.469Z" fill="black"/>
<path d="M145.132 30.3508H138.696V19.469H139.986V29.2004H145.132V30.3508Z" fill="black"/>
<path d="M159.767 27.335H155.756L154.668 30.3508H153.393L157.513 19.298H158.104L162.239 30.3508H160.886L159.767 27.335ZM156.176 26.2157H159.378L158.166 22.9045L157.777 21.2567H157.762L157.373 22.9356L156.176 26.2157Z" fill="black"/>
<path d="M182.736 19.5778C183.13 19.4846 183.555 19.4224 184.011 19.3913C184.467 19.3602 184.918 19.3446 185.363 19.3446C185.84 19.3446 186.322 19.3913 186.809 19.4846C187.306 19.5778 187.757 19.7488 188.161 19.9976C188.566 20.2463 188.892 20.5883 189.141 21.0235C189.4 21.4588 189.529 22.0133 189.529 22.6869C189.529 23.3502 189.41 23.9098 189.172 24.3658C188.933 24.8218 188.617 25.1949 188.224 25.4851C187.83 25.7649 187.379 25.967 186.871 26.0913C186.363 26.2157 185.84 26.2779 185.301 26.2779C185.249 26.2779 185.161 26.2779 185.037 26.2779C184.923 26.2779 184.798 26.2779 184.664 26.2779C184.539 26.2675 184.415 26.2572 184.291 26.2468C184.166 26.2364 184.078 26.2261 184.026 26.2157V30.3508H182.736V19.5778ZM185.394 20.4639C185.125 20.4639 184.866 20.4691 184.617 20.4795C184.368 20.4898 184.171 20.5157 184.026 20.5572V25.0654C184.078 25.0861 184.161 25.1016 184.275 25.112C184.389 25.112 184.508 25.1172 184.633 25.1275C184.757 25.1275 184.876 25.1275 184.99 25.1275C185.104 25.1275 185.187 25.1275 185.239 25.1275C185.591 25.1275 185.938 25.0964 186.28 25.0343C186.633 24.9617 186.949 24.8374 187.229 24.6612C187.508 24.485 187.731 24.2363 187.897 23.915C188.073 23.5937 188.161 23.1844 188.161 22.6869C188.161 22.262 188.078 21.9096 187.913 21.6298C187.757 21.3396 187.545 21.1116 187.275 20.9458C187.016 20.7696 186.721 20.6453 186.389 20.5727C186.058 20.5002 185.726 20.4639 185.394 20.4639Z" fill="black"/>
<path d="M199.192 19.469H205.115V20.6194H200.483V24.1793H204.726V25.3296H200.483V29.2004H205.193V30.3508H199.192V19.469ZM203.001 16.8263H204.773V17.1527L202.239 18.6607H201.167L203.001 16.8263Z" fill="black"/>
<path d="M215.299 19.5778C215.693 19.5053 216.144 19.4483 216.652 19.4068C217.17 19.3654 217.642 19.3446 218.066 19.3446C218.543 19.3446 218.994 19.3965 219.419 19.5001C219.854 19.6037 220.232 19.7747 220.554 20.0131C220.885 20.2515 221.15 20.5624 221.347 20.9458C221.543 21.3293 221.642 21.7956 221.642 22.3449C221.642 23.1947 221.409 23.8839 220.942 24.4124C220.476 24.941 219.885 25.2934 219.17 25.4695L219.916 26.0447L222.621 30.3508H221.113L218.113 25.6561L216.59 25.4229V30.3508H215.299V19.5778ZM218.098 20.4639C217.963 20.4639 217.823 20.4639 217.678 20.4639C217.533 20.4639 217.393 20.4691 217.258 20.4795C217.123 20.4898 216.994 20.5002 216.869 20.5106C216.755 20.5209 216.662 20.5365 216.59 20.5572V24.5679H217.802C218.517 24.5679 219.108 24.3917 219.574 24.0394C220.041 23.687 220.274 23.1377 220.274 22.3915C220.274 21.8319 220.082 21.3707 219.699 21.008C219.315 20.6453 218.782 20.4639 218.098 20.4639Z" fill="black"/>
<path d="M232.317 19.469H238.24V20.6194H233.608V24.1793H237.851V25.3296H233.608V29.2004H238.318V30.3508H232.317V19.469Z" fill="black"/>
<path d="M247.694 29.1849L253.181 21.2412L253.834 20.6194H247.694V19.469H255V20.6349L249.481 28.6252L248.829 29.2004H255V30.3508H247.694V29.1849Z" fill="black"/>
<path d="M78.998 35.1254H79.531V38.2367C79.531 38.5166 79.4933 38.7586 79.4178 38.9629C79.3467 39.1672 79.2423 39.336 79.1046 39.4693C78.9714 39.5981 78.8093 39.6936 78.6183 39.7557C78.4273 39.8179 78.2163 39.849 77.9854 39.849C77.4346 39.849 77.0193 39.7247 76.7395 39.4759C76.4597 39.2272 76.3198 38.8497 76.3198 38.3433V35.1254H76.8728V38.0835C76.8728 38.3189 76.895 38.5188 76.9394 38.6831C76.9882 38.843 77.0593 38.974 77.1526 39.0762C77.2459 39.1739 77.3613 39.245 77.499 39.2894C77.6412 39.3338 77.8055 39.356 77.992 39.356C78.3518 39.356 78.6094 39.2583 78.7649 39.0629C78.9203 38.863 78.998 38.5365 78.998 38.0835V35.1254Z" fill="black"/>
<path d="M87.0218 37.4173L85.6027 35.1254H86.2689L87.215 36.7044L87.3815 37.0842L87.5414 36.7044L88.5408 35.1254H89.1537L87.688 37.3706L89.2203 39.7891H88.5741L87.5214 38.1168L87.3415 37.7171L87.1683 38.1168L86.089 39.7891H85.4694L87.0218 37.4173Z" fill="black"/>
<path d="M102.168 38.5432C102.168 38.3655 102.2 38.1968 102.262 38.0369C102.324 37.8725 102.408 37.7215 102.515 37.5838C102.621 37.4461 102.741 37.3196 102.875 37.2041C103.012 37.0886 103.154 36.9864 103.301 36.8976C103.194 36.7377 103.101 36.5778 103.021 36.4179C102.946 36.258 102.908 36.0848 102.908 35.8983C102.908 35.7917 102.926 35.6873 102.961 35.5851C102.997 35.483 103.052 35.3919 103.128 35.312C103.208 35.232 103.308 35.1676 103.428 35.1188C103.552 35.0699 103.701 35.0455 103.874 35.0455C104.056 35.0455 104.209 35.0699 104.334 35.1188C104.458 35.1632 104.558 35.2232 104.634 35.2987C104.709 35.3742 104.762 35.4586 104.793 35.5518C104.829 35.6451 104.847 35.7406 104.847 35.8383C104.847 36.0248 104.773 36.2181 104.627 36.4179C104.485 36.6134 104.258 36.8021 103.947 36.9842C104.018 37.113 104.101 37.2463 104.194 37.384C104.292 37.5172 104.394 37.6505 104.5 37.7837C104.607 37.9169 104.716 38.0502 104.827 38.1834C104.938 38.3122 105.049 38.4322 105.16 38.5432C105.209 38.4899 105.258 38.4233 105.306 38.3433C105.355 38.2589 105.402 38.1723 105.446 38.0835C105.495 37.9902 105.537 37.8947 105.573 37.797C105.613 37.6993 105.648 37.606 105.679 37.5172L106.093 37.7104C106.066 37.7859 106.028 37.877 105.979 37.9836C105.93 38.0857 105.875 38.1923 105.813 38.3034C105.755 38.41 105.695 38.5143 105.633 38.6165C105.571 38.7142 105.513 38.7964 105.46 38.863C105.553 38.9518 105.637 39.0296 105.713 39.0962C105.788 39.1584 105.857 39.2139 105.919 39.2627C105.986 39.3071 106.048 39.3493 106.106 39.3893C106.168 39.4249 106.23 39.4604 106.292 39.4959L105.959 39.869C105.724 39.7535 105.455 39.547 105.153 39.2494C105.073 39.3294 104.984 39.4071 104.887 39.4826C104.793 39.5537 104.687 39.6181 104.567 39.6758C104.447 39.7335 104.314 39.7802 104.167 39.8157C104.025 39.8512 103.867 39.869 103.694 39.869C103.485 39.869 103.288 39.8401 103.101 39.7824C102.919 39.7247 102.759 39.6403 102.621 39.5292C102.484 39.4137 102.373 39.2738 102.288 39.1095C102.208 38.9452 102.168 38.7564 102.168 38.5432ZM104.84 38.9163C104.711 38.7875 104.585 38.6476 104.46 38.4966C104.336 38.3456 104.216 38.1945 104.101 38.0435C103.989 37.8925 103.885 37.7482 103.787 37.6105C103.694 37.4684 103.614 37.344 103.548 37.2374C103.428 37.3262 103.317 37.4173 103.214 37.5105C103.112 37.6038 103.021 37.7038 102.941 37.8103C102.866 37.9125 102.806 38.0235 102.761 38.1435C102.721 38.2634 102.701 38.3922 102.701 38.5299C102.701 38.6676 102.73 38.7919 102.788 38.903C102.846 39.0096 102.924 39.1006 103.021 39.1761C103.123 39.2472 103.239 39.3027 103.368 39.3427C103.496 39.3827 103.632 39.4026 103.774 39.4026C103.885 39.4026 103.992 39.3893 104.094 39.3627C104.2 39.3316 104.3 39.2938 104.394 39.2494C104.487 39.205 104.571 39.1539 104.647 39.0962C104.727 39.0384 104.791 38.9785 104.84 38.9163ZM103.428 35.8983C103.428 36.0315 103.454 36.1648 103.508 36.298C103.565 36.4268 103.639 36.5556 103.727 36.6844C103.963 36.5334 104.125 36.3957 104.214 36.2714C104.307 36.147 104.354 36.0382 104.354 35.9449C104.354 35.8028 104.318 35.6873 104.247 35.5985C104.18 35.5096 104.063 35.4652 103.894 35.4652C103.734 35.4652 103.616 35.5052 103.541 35.5851C103.465 35.6651 103.428 35.7695 103.428 35.8983Z" fill="black"/>
<path d="M121.116 37.4639H122.682V39.5159C122.611 39.5692 122.524 39.6181 122.422 39.6625C122.325 39.7069 122.218 39.7446 122.102 39.7757C121.991 39.8068 121.874 39.829 121.749 39.8424C121.629 39.8601 121.512 39.869 121.396 39.869C121.099 39.869 120.826 39.8224 120.577 39.7291C120.328 39.6314 120.113 39.4848 119.931 39.2894C119.748 39.0895 119.606 38.8386 119.504 38.5365C119.402 38.2301 119.351 37.8703 119.351 37.4572C119.351 37.0264 119.413 36.6578 119.537 36.3513C119.662 36.0448 119.824 35.7961 120.024 35.6051C120.224 35.4097 120.448 35.2676 120.697 35.1787C120.945 35.0899 121.194 35.0455 121.443 35.0455C121.709 35.0455 121.929 35.061 122.102 35.0921C122.276 35.1188 122.422 35.1565 122.542 35.2054L122.402 35.6917C122.189 35.5896 121.885 35.5385 121.49 35.5385C121.303 35.5385 121.116 35.5718 120.93 35.6384C120.748 35.7006 120.583 35.8072 120.437 35.9582C120.29 36.1092 120.17 36.3069 120.077 36.5512C119.984 36.7955 119.937 37.0975 119.937 37.4572C119.937 37.7859 119.975 38.0702 120.05 38.31C120.126 38.5499 120.23 38.7497 120.364 38.9096C120.501 39.0651 120.666 39.1828 120.857 39.2627C121.048 39.3382 121.256 39.376 121.483 39.376C121.767 39.376 122.009 39.3205 122.209 39.2094V37.9103L121.116 37.777V37.4639Z" fill="black"/>
<path d="M128.82 35.1721C128.989 35.141 129.182 35.1166 129.4 35.0988C129.622 35.081 129.824 35.0721 130.006 35.0721C130.21 35.0721 130.404 35.0943 130.586 35.1388C130.772 35.1832 130.934 35.2565 131.072 35.3586C131.214 35.4608 131.327 35.594 131.412 35.7584C131.496 35.9227 131.538 36.1226 131.538 36.358C131.538 36.7222 131.438 37.0175 131.239 37.2441C131.039 37.4706 130.785 37.6216 130.479 37.6971L130.799 37.9436L131.958 39.7891H131.312L130.026 37.777L129.373 37.6771V39.7891H128.82V35.1721ZM130.019 35.5518C129.962 35.5518 129.902 35.5518 129.839 35.5518C129.777 35.5518 129.717 35.554 129.66 35.5585C129.602 35.5629 129.546 35.5674 129.493 35.5718C129.444 35.5763 129.404 35.5829 129.373 35.5918V37.3107H129.893C130.199 37.3107 130.452 37.2352 130.652 37.0842C130.852 36.9331 130.952 36.6977 130.952 36.378C130.952 36.1381 130.87 35.9405 130.706 35.785C130.541 35.6296 130.312 35.5518 130.019 35.5518Z" fill="black"/>
<path d="M140.022 38.4966H138.303L137.837 39.7891H137.29L139.056 35.0522H139.309L141.081 39.7891H140.502L140.022 38.4966ZM138.483 38.0169H139.855L139.336 36.5978L139.169 35.8916H139.162L138.996 36.6111L138.483 38.0169Z" fill="black"/>
<path d="M146.897 35.1721C147.066 35.1321 147.248 35.1055 147.443 35.0921C147.639 35.0788 147.832 35.0721 148.023 35.0721C148.227 35.0721 148.434 35.0921 148.643 35.1321C148.856 35.1721 149.049 35.2454 149.222 35.352C149.395 35.4586 149.535 35.6051 149.642 35.7917C149.753 35.9782 149.809 36.2158 149.809 36.5045C149.809 36.7888 149.757 37.0286 149.655 37.2241C149.553 37.4195 149.418 37.5794 149.249 37.7038C149.08 37.8237 148.887 37.9103 148.669 37.9636C148.452 38.0169 148.227 38.0435 147.996 38.0435C147.974 38.0435 147.936 38.0435 147.883 38.0435C147.834 38.0435 147.781 38.0435 147.723 38.0435C147.67 38.0391 147.617 38.0346 147.563 38.0302C147.51 38.0258 147.472 38.0213 147.45 38.0169V39.7891H146.897V35.1721ZM148.036 35.5518C147.921 35.5518 147.81 35.554 147.703 35.5585C147.597 35.5629 147.512 35.574 147.45 35.5918V37.5239C147.472 37.5328 147.508 37.5394 147.557 37.5439C147.606 37.5439 147.657 37.5461 147.71 37.5505C147.763 37.5505 147.814 37.5505 147.863 37.5505C147.912 37.5505 147.947 37.5505 147.97 37.5505C148.121 37.5505 148.27 37.5372 148.416 37.5105C148.567 37.4795 148.703 37.4262 148.822 37.3507C148.942 37.2751 149.038 37.1685 149.109 37.0309C149.184 36.8932 149.222 36.7177 149.222 36.5045C149.222 36.3224 149.187 36.1714 149.116 36.0515C149.049 35.9271 148.958 35.8294 148.842 35.7584C148.731 35.6829 148.605 35.6296 148.463 35.5985C148.321 35.5674 148.178 35.5518 148.036 35.5518Z" fill="black"/>
<path d="M158.607 37.6505H156.368V39.7891H155.815V35.1254H156.368V37.1574H158.607V35.1254H159.16V39.7891H158.607V37.6505Z" fill="black"/>
<path d="M165.615 35.1254H166.168V39.7891H165.615V35.1254Z" fill="black"/>
<path d="M175.608 39.5958C175.475 39.698 175.306 39.7691 175.102 39.809C174.898 39.849 174.68 39.869 174.449 39.869C174.169 39.869 173.907 39.8224 173.663 39.7291C173.419 39.6314 173.205 39.4848 173.023 39.2894C172.841 39.094 172.697 38.8452 172.59 38.5432C172.484 38.2367 172.43 37.8748 172.43 37.4572C172.43 37.022 172.488 36.6533 172.603 36.3513C172.723 36.0448 172.879 35.7961 173.07 35.6051C173.265 35.4097 173.483 35.2676 173.723 35.1787C173.963 35.0899 174.207 35.0455 174.456 35.0455C174.722 35.0455 174.94 35.061 175.109 35.0921C175.277 35.1188 175.422 35.1565 175.542 35.2054L175.408 35.6917C175.195 35.5896 174.891 35.5385 174.496 35.5385C174.313 35.5385 174.134 35.5718 173.956 35.6384C173.778 35.7051 173.618 35.8139 173.476 35.9649C173.339 36.1159 173.228 36.3136 173.143 36.5578C173.059 36.8021 173.017 37.1019 173.017 37.4572C173.017 37.777 173.057 38.0569 173.136 38.2967C173.216 38.5365 173.325 38.7364 173.463 38.8963C173.605 39.0562 173.769 39.1761 173.956 39.2561C174.147 39.336 174.353 39.376 174.576 39.376C174.775 39.376 174.949 39.356 175.095 39.316C175.246 39.2761 175.373 39.225 175.475 39.1628L175.608 39.5958Z" fill="black"/>
<path d="M188.332 35.1254C188.417 35.1121 188.51 35.1032 188.612 35.0988C188.719 35.0899 188.827 35.0855 188.938 35.0855C189.054 35.081 189.165 35.0788 189.272 35.0788C189.383 35.0744 189.485 35.0721 189.578 35.0721C189.951 35.0721 190.273 35.1299 190.544 35.2454C190.819 35.3608 191.046 35.523 191.224 35.7317C191.401 35.936 191.532 36.1825 191.617 36.4712C191.706 36.7599 191.75 37.0775 191.75 37.4239C191.75 37.7393 191.708 38.0435 191.623 38.3367C191.543 38.6254 191.415 38.883 191.237 39.1095C191.059 39.3316 190.828 39.5115 190.544 39.6491C190.26 39.7824 189.916 39.849 189.511 39.849C189.44 39.849 189.347 39.8468 189.232 39.8424C189.121 39.8424 189.005 39.8379 188.885 39.829C188.765 39.8246 188.654 39.8201 188.552 39.8157C188.45 39.8113 188.377 39.8046 188.332 39.7957V35.1254ZM189.591 35.5652C189.534 35.5652 189.469 35.5652 189.398 35.5652C189.332 35.5652 189.265 35.5674 189.198 35.5718C189.132 35.5763 189.07 35.5807 189.012 35.5851C188.958 35.5896 188.916 35.594 188.885 35.5985V39.3294C188.907 39.3338 188.95 39.3382 189.012 39.3427C189.074 39.3427 189.138 39.3449 189.205 39.3493C189.272 39.3493 189.336 39.3516 189.398 39.356C189.46 39.356 189.503 39.356 189.525 39.356C189.836 39.356 190.096 39.3027 190.304 39.1961C190.517 39.0895 190.686 38.9474 190.811 38.7697C190.939 38.5876 191.03 38.3811 191.084 38.1501C191.137 37.9147 191.164 37.6727 191.164 37.4239C191.164 37.2063 191.139 36.9887 191.09 36.771C191.042 36.549 190.957 36.3491 190.837 36.1714C190.717 35.9938 190.555 35.8494 190.351 35.7384C190.151 35.6229 189.898 35.5652 189.591 35.5652Z" fill="black"/>
<path d="M197.888 35.1254H200.426V35.6184H198.441V37.1441H200.26V37.6371H198.441V39.296H200.46V39.7891H197.888V35.1254Z" fill="black"/>
<path d="M208.762 38.6032C208.762 38.4166 208.706 38.2656 208.595 38.1501C208.484 38.0302 208.344 37.9258 208.175 37.837C208.011 37.7437 207.831 37.6571 207.636 37.5772C207.44 37.4972 207.258 37.4017 207.089 37.2907C206.925 37.1752 206.787 37.0353 206.676 36.871C206.565 36.7022 206.51 36.489 206.51 36.2314C206.51 35.8672 206.636 35.5785 206.89 35.3653C207.143 35.1521 207.503 35.0455 207.969 35.0455C208.24 35.0455 208.486 35.0655 208.708 35.1055C208.93 35.1454 209.104 35.1965 209.228 35.2587L209.062 35.745C208.959 35.6962 208.808 35.6495 208.608 35.6051C208.413 35.5607 208.191 35.5385 207.942 35.5385C207.649 35.5385 207.429 35.6051 207.283 35.7384C207.136 35.8672 207.063 36.0204 207.063 36.1981C207.063 36.3713 207.118 36.5156 207.229 36.6311C207.34 36.7466 207.478 36.851 207.642 36.9442C207.811 37.0331 207.993 37.1219 208.189 37.2107C208.384 37.2996 208.564 37.4039 208.728 37.5239C208.897 37.6394 209.037 37.7793 209.148 37.9436C209.259 38.1079 209.315 38.3122 209.315 38.5565C209.315 38.7564 209.279 38.9363 209.208 39.0962C209.137 39.2561 209.033 39.3938 208.895 39.5092C208.757 39.6247 208.591 39.7135 208.395 39.7757C208.2 39.8379 207.978 39.869 207.729 39.869C207.396 39.869 207.121 39.8424 206.903 39.7891C206.685 39.7402 206.517 39.6847 206.397 39.6225L206.583 39.1228C206.685 39.1806 206.836 39.2383 207.036 39.296C207.236 39.3493 207.46 39.376 207.709 39.376C207.856 39.376 207.993 39.3627 208.122 39.336C208.251 39.3049 208.362 39.2583 208.455 39.1961C208.549 39.1295 208.622 39.0473 208.675 38.9496C208.733 38.8519 208.762 38.7364 208.762 38.6032Z" fill="black"/>
<path d="M215.519 35.1254H216.072V39.7891H215.519V35.1254Z" fill="black"/>
<path d="M224.1 37.4639H225.666V39.5159C225.595 39.5692 225.508 39.6181 225.406 39.6625C225.308 39.7069 225.202 39.7446 225.086 39.7757C224.975 39.8068 224.857 39.829 224.733 39.8424C224.613 39.8601 224.495 39.869 224.38 39.869C224.082 39.869 223.809 39.8224 223.56 39.7291C223.312 39.6314 223.096 39.4848 222.914 39.2894C222.732 39.0895 222.59 38.8386 222.488 38.5365C222.386 38.2301 222.335 37.8703 222.335 37.4572C222.335 37.0264 222.397 36.6578 222.521 36.3513C222.646 36.0448 222.808 35.7961 223.008 35.6051C223.207 35.4097 223.432 35.2676 223.68 35.1787C223.929 35.0899 224.178 35.0455 224.427 35.0455C224.693 35.0455 224.913 35.061 225.086 35.0921C225.259 35.1188 225.406 35.1565 225.526 35.2054L225.386 35.6917C225.173 35.5896 224.869 35.5385 224.473 35.5385C224.287 35.5385 224.1 35.5718 223.914 35.6384C223.731 35.7006 223.567 35.8072 223.421 35.9582C223.274 36.1092 223.154 36.3069 223.061 36.5512C222.968 36.7955 222.921 37.0975 222.921 37.4572C222.921 37.7859 222.959 38.0702 223.034 38.31C223.11 38.5499 223.214 38.7497 223.347 38.9096C223.485 39.0651 223.649 39.1828 223.84 39.2627C224.031 39.3382 224.24 39.376 224.467 39.376C224.751 39.376 224.993 39.3205 225.193 39.2094V37.9103L224.1 37.777V37.4639Z" fill="black"/>
<path d="M232.643 36.7377L232.283 36.0648H232.257L232.323 36.7377V39.7891H231.804V35.0522H232.097L234.329 38.1635L234.675 38.803H234.709L234.635 38.1635V35.1254H235.155V39.8623H234.862L232.643 36.7377Z" fill="black"/>
<path d="M241.483 35.1254H244.021V35.6184H242.036V37.1441H243.855V37.6371H242.036V39.296H244.055V39.7891H241.483V35.1254Z" fill="black"/>
<path d="M250.252 35.1721C250.42 35.141 250.614 35.1166 250.831 35.0988C251.053 35.081 251.255 35.0721 251.438 35.0721C251.642 35.0721 251.835 35.0943 252.017 35.1388C252.204 35.1832 252.366 35.2565 252.503 35.3586C252.646 35.4608 252.759 35.594 252.843 35.7584C252.928 35.9227 252.97 36.1226 252.97 36.358C252.97 36.7222 252.87 37.0175 252.67 37.2441C252.47 37.4706 252.217 37.6216 251.911 37.6971L252.23 37.9436L253.39 39.7891H252.743L251.457 37.777L250.805 37.6771V39.7891H250.252V35.1721ZM251.451 35.5518C251.393 35.5518 251.333 35.5518 251.271 35.5518C251.209 35.5518 251.149 35.554 251.091 35.5585C251.033 35.5629 250.978 35.5674 250.925 35.5718C250.876 35.5763 250.836 35.5829 250.805 35.5918V37.3107H251.324C251.631 37.3107 251.884 37.2352 252.084 37.0842C252.284 36.9331 252.384 36.6977 252.384 36.378C252.384 36.1381 252.301 35.9405 252.137 35.785C251.973 35.6296 251.744 35.5518 251.451 35.5518Z" fill="black"/>
</svg>
