<svg xmlns="http://www.w3.org/2000/svg" viewBox="0 0 299.75 66.12"><defs><style>.cls-1,.cls-2{fill:none;stroke:#000;stroke-miterlimit:10;}.cls-1{stroke-width:4px;}.cls-2{stroke-width:0.3px;}</style></defs><title>logo3_1</title><g id="Capa_2" data-name="Capa 2"><g id="Capa_1-2" data-name="Capa 1"><path class="cls-1" d="M32.08,21.6V11.13L9.82,32.71,32.08,55V42.56"/><path class="cls-1" d="M39.67,52.38V11.13L60.89,31.45H27.5"/><path class="cls-2" d="M34.08,0V66.12"/><path class="cls-2" d="M37.66,0V66.12"/><path class="cls-2" d="M38,2.62l-35.36,34"/><path class="cls-2" d="M0,33.45H71.36"/><path d="M41.68,52.38l-4,5.89V52.38Z"/><path d="M30,21.6l4,5.24V21.6Z"/><path d="M30.08,42.56l4-5.9v5.9Z"/><path d="M27.5,29.45l-5.9,4h5.9Z"/><path class="cls-2" d="M68.72,36.3l-35.35-34"/><path class="cls-2" d="M39.28,64.38,3.93,29.68"/><path d="M93.64,34.17a3.27,3.27,0,0,1-1.39.58,9.32,9.32,0,0,1-1.8.17,5.92,5.92,0,0,1-2.16-.39,4.83,4.83,0,0,1-1.76-1.21,5.69,5.69,0,0,1-1.19-2.05,9.19,9.19,0,0,1-.44-3,8.51,8.51,0,0,1,.48-3,5.79,5.79,0,0,1,1.28-2A5.06,5.06,0,0,1,88.46,22a5.84,5.84,0,0,1,2-.36,9.84,9.84,0,0,1,1.8.13,5,5,0,0,1,1.19.31l-.37,1.33A6,6,0,0,0,90.58,23a4,4,0,0,0-1.48.28,3.39,3.39,0,0,0-1.32.9,4.55,4.55,0,0,0-.92,1.63,7.69,7.69,0,0,0-.35,2.47,7.31,7.31,0,0,0,.33,2.31,4.83,4.83,0,0,0,.9,1.65,3.76,3.76,0,0,0,1.36,1,4.33,4.33,0,0,0,1.7.33,5.47,5.47,0,0,0,1.43-.16,4,4,0,0,0,1-.42Zm17-3h-4.72l-1.29,3.56h-1.5l4.86-13h.69l4.88,13H112Zm-4.23-1.32h3.78l-1.43-3.9-.46-2h0l-.46,2Zm27.88-3.74.19-1.92h-.1l-.69,1.76-3.34,5.79h-.46l-3.54-5.81-.66-1.74h-.09l.26,1.9V34.7h-1.43V21.87h1.14l4,6.56.61,1.43h0l.57-1.47,3.83-6.52h1.19V34.7H134.3Zm14.15-4.21H150V34.7h-1.53ZM170.2,34.7h-7.59V21.87h1.52V33.34h6.07Zm17.25-3.56h-4.73l-1.28,3.56h-1.5l4.86-13h.69l4.88,13h-1.6Zm-4.23-1.32H187l-1.43-3.9-.46-2h0l-.46,2ZM214.54,22a8.45,8.45,0,0,1,1.5-.22c.54,0,1.07-.06,1.6-.06a9,9,0,0,1,1.7.17,4.74,4.74,0,0,1,1.6.6,3.35,3.35,0,0,1,1.15,1.21,3.74,3.74,0,0,1,.46,2,4.26,4.26,0,0,1-.42,2A3.8,3.8,0,0,1,221,29a4.71,4.71,0,0,1-1.59.72,8.16,8.16,0,0,1-1.86.22h-.75l-.44,0-.31,0V34.7h-1.52Zm3.13,1-.91,0a2.91,2.91,0,0,0-.7.09v5.32a1.29,1.29,0,0,0,.29.05l.43,0h.71a7.12,7.12,0,0,0,1.23-.11,3.45,3.45,0,0,0,1.12-.44,2.25,2.25,0,0,0,.79-.88,3.08,3.08,0,0,0,.31-1.45,2.39,2.39,0,0,0-.3-1.25,2,2,0,0,0-.75-.8,2.77,2.77,0,0,0-1-.44A5.2,5.2,0,0,0,217.67,23Zm16.27-1.17h7v1.35h-5.46v4.2h5v1.36h-5v4.56H241V34.7h-7.08Zm4.5-3.12h2.09v.39l-3,1.77h-1.27ZM252.94,22a14.74,14.74,0,0,1,1.59-.21c.61-.05,1.17-.07,1.67-.07a6.88,6.88,0,0,1,1.6.18,3.7,3.7,0,0,1,1.33.61,3,3,0,0,1,.94,1.1,4,4,0,0,1-.48,4.09,4,4,0,0,1-2.09,1.24l.88.68,3.19,5.08h-1.78l-3.53-5.54-1.8-.27V34.7h-1.52Zm3.3,1h-.5l-.49,0-.46,0-.33.06v4.73h1.43a3.41,3.41,0,0,0,2.09-.62,2.29,2.29,0,0,0,.82-2,2.15,2.15,0,0,0-.67-1.63A2.66,2.66,0,0,0,256.24,23ZM273,21.87h7v1.35h-5.46v4.2h5v1.36h-5v4.56h5.55V34.7H273Zm18.13,11.45L297.61,24l.77-.74h-7.24V21.87h8.61v1.37l-6.5,9.42-.77.68h7.27V34.7h-8.61Z"/><path d="M92.21,40.33h.63V44a2.4,2.4,0,0,1-.14.85,1.44,1.44,0,0,1-.36.6,1.46,1.46,0,0,1-.58.34,2.45,2.45,0,0,1-.74.11,2.17,2.17,0,0,1-1.47-.44,1.7,1.7,0,0,1-.5-1.34V40.33h.65v3.49a2.81,2.81,0,0,0,.08.7A1.24,1.24,0,0,0,90,45a1,1,0,0,0,.41.25,2,2,0,0,0,.58.08,1.09,1.09,0,0,0,.91-.35,1.83,1.83,0,0,0,.28-1.15Zm9.46,2.7L100,40.33h.78l1.12,1.86.2.45.18-.45,1.18-1.86h.73L102.46,43l1.8,2.85h-.76l-1.24-2-.21-.47-.21.47-1.27,2h-.73Zm17.86,1.33a1.73,1.73,0,0,1,.11-.6,2.5,2.5,0,0,1,.3-.53,3.64,3.64,0,0,1,.43-.45,3.31,3.31,0,0,1,.5-.36,4.18,4.18,0,0,1-.33-.57,1.4,1.4,0,0,1-.14-.61,1.16,1.16,0,0,1,.07-.37.8.8,0,0,1,.19-.32,1.11,1.11,0,0,1,.36-.23,1.35,1.35,0,0,1,.52-.09,1.47,1.47,0,0,1,.55.09.93.93,0,0,1,.35.21.8.8,0,0,1,.19.3,1,1,0,0,1,.06.34,1.16,1.16,0,0,1-.26.68,2.53,2.53,0,0,1-.8.67,5,5,0,0,0,.29.47l.36.47.39.48q.19.23.39.42a.92.92,0,0,0,.17-.24c.06-.1.12-.2.17-.3a2.52,2.52,0,0,0,.15-.34c0-.12.09-.23.12-.33l.49.23c0,.09-.08.19-.13.32l-.2.38-.21.37c-.08.11-.14.21-.21.29l.3.27.25.2.22.15.22.12-.4.44a4,4,0,0,1-1-.73,2.8,2.8,0,0,1-.31.28,2,2,0,0,1-.38.22,2.17,2.17,0,0,1-.47.17,2.4,2.4,0,0,1-.56.06,2.32,2.32,0,0,1-.7-.1,1.77,1.77,0,0,1-.56-.3,1.46,1.46,0,0,1-.4-.49A1.6,1.6,0,0,1,119.53,44.36Zm3.15.44a5.41,5.41,0,0,1-.44-.5c-.15-.17-.29-.35-.43-.53l-.37-.51-.28-.44a4.16,4.16,0,0,0-.39.32,2.82,2.82,0,0,0-.33.36,1.47,1.47,0,0,0-.21.39,1.33,1.33,0,0,0-.07.45,1,1,0,0,0,.1.44,1,1,0,0,0,.28.33,1.29,1.29,0,0,0,.41.19,1.7,1.7,0,0,0,.85,0,3,3,0,0,0,.36-.14,1.49,1.49,0,0,0,.3-.18A1.12,1.12,0,0,0,122.68,44.8ZM121,41.24a1.31,1.31,0,0,0,.09.47,3.57,3.57,0,0,0,.26.46,2,2,0,0,0,.57-.49.69.69,0,0,0,.17-.38.59.59,0,0,0-.13-.41.45.45,0,0,0-.41-.16.57.57,0,0,0-.42.14A.52.52,0,0,0,121,41.24Zm20.86,1.85h1.84v2.42a1.39,1.39,0,0,1-.3.17,2.12,2.12,0,0,1-.38.13,1.84,1.84,0,0,1-.42.08l-.41,0a2.74,2.74,0,0,1-1-.16,2.1,2.1,0,0,1-.76-.52,2.4,2.4,0,0,1-.5-.89,3.73,3.73,0,0,1-.19-1.27,3.66,3.66,0,0,1,.22-1.31,2.55,2.55,0,0,1,.58-.88,2.21,2.21,0,0,1,.79-.5,2.73,2.73,0,0,1,.88-.16,4.11,4.11,0,0,1,.78.06,2.81,2.81,0,0,1,.52.13l-.17.58a2.55,2.55,0,0,0-1.07-.18,2.17,2.17,0,0,0-.66.11,1.46,1.46,0,0,0-.58.38,1.94,1.94,0,0,0-.43.7,3,3,0,0,0-.16,1.07,3.28,3.28,0,0,0,.13,1,2,2,0,0,0,.37.71,1.63,1.63,0,0,0,.58.42,2,2,0,0,0,.74.13,1.79,1.79,0,0,0,.86-.19V43.61l-1.29-.15ZM151,40.38l.68-.08.72,0a3,3,0,0,1,.68.07,1.8,1.8,0,0,1,.58.26,1.35,1.35,0,0,1,.4.48,1.48,1.48,0,0,1,.15.7,1.52,1.52,0,0,1-.36,1,1.72,1.72,0,0,1-.89.53l.37.29,1.37,2.18h-.76l-1.52-2.37-.77-.12v2.49H151Zm1.41.45H152l-.2,0-.14,0v2h.62a1.41,1.41,0,0,0,.89-.27,1,1,0,0,0,.35-.83.89.89,0,0,0-.29-.7A1.09,1.09,0,0,0,152.37,40.83Zm11.8,3.47h-2l-.55,1.53H161L163,40.24h.3l2.09,5.59h-.68Zm-1.81-.56H164l-.61-1.67-.2-.84h0l-.2.85Zm9.92-3.36a5.8,5.8,0,0,1,.64-.09c.23,0,.46,0,.68,0a3.71,3.71,0,0,1,.74.07,1.81,1.81,0,0,1,.68.26,1.34,1.34,0,0,1,.49.51,1.64,1.64,0,0,1,.2.85,1.8,1.8,0,0,1-.18.84,1.66,1.66,0,0,1-.48.57,2.22,2.22,0,0,1-.68.31,3.5,3.5,0,0,1-.8.09h-.32l-.19,0h-.13v2.09h-.65Zm1.34.45h-.39a1.08,1.08,0,0,0-.3,0v2.28l.13,0h.48a3.07,3.07,0,0,0,.53,0,1.46,1.46,0,0,0,.48-.19,1,1,0,0,0,.34-.37A1.42,1.42,0,0,0,175,42a1,1,0,0,0-.13-.54.81.81,0,0,0-.32-.34,1.14,1.14,0,0,0-.45-.19A2.07,2.07,0,0,0,173.62,40.83Zm12.47,2.48h-2.64v2.52h-.66v-5.5h.66v2.4h2.64v-2.4h.65v5.5h-.65Zm8.26-3H195v5.5h-.65Zm11.78,5.27a1.39,1.39,0,0,1-.59.25,3.8,3.8,0,0,1-.77.07,2.6,2.6,0,0,1-.93-.16,2.07,2.07,0,0,1-.75-.52,2.3,2.3,0,0,1-.51-.88,3.79,3.79,0,0,1-.19-1.28,3.65,3.65,0,0,1,.2-1.31,2.64,2.64,0,0,1,.55-.88,2.22,2.22,0,0,1,.77-.5,2.57,2.57,0,0,1,.86-.16,3.93,3.93,0,0,1,.77.06,3,3,0,0,1,.52.13l-.16.58a2.57,2.57,0,0,0-1.08-.18,2,2,0,0,0-.63.11,1.53,1.53,0,0,0-.57.39,2,2,0,0,0-.39.7,3.7,3.7,0,0,0,0,2,2.09,2.09,0,0,0,.38.71,1.73,1.73,0,0,0,.59.42,1.9,1.9,0,0,0,.73.14,2.22,2.22,0,0,0,.61-.07,1.91,1.91,0,0,0,.45-.18Zm15-5.27a1.69,1.69,0,0,1,.33,0l.38,0h.76a2.83,2.83,0,0,1,1.14.2,2.24,2.24,0,0,1,.8.57,2.31,2.31,0,0,1,.46.88,3.61,3.61,0,0,1,.16,1.12,3.91,3.91,0,0,1-.15,1.08,2.53,2.53,0,0,1-.46.91,2.33,2.33,0,0,1-.81.63,2.82,2.82,0,0,1-1.22.24h-.74l-.39,0-.26,0Zm1.48.52h-.68l-.15,0v4.4h.75a1.93,1.93,0,0,0,.92-.19,1.57,1.57,0,0,0,.6-.5,2.09,2.09,0,0,0,.32-.73,3.55,3.55,0,0,0,.1-.86,3.37,3.37,0,0,0-.09-.77,2.14,2.14,0,0,0-.3-.71,1.57,1.57,0,0,0-.57-.51A1.87,1.87,0,0,0,222.62,40.85Zm9.79-.52h3v.58h-2.34v1.8h2.14v.58h-2.14v2h2.38v.58h-3Zm12.82,4.1a.72.72,0,0,0-.2-.53,1.54,1.54,0,0,0-.49-.37,5.43,5.43,0,0,0-.64-.31,3.55,3.55,0,0,1-.64-.34,1.76,1.76,0,0,1-.49-.49,1.36,1.36,0,0,1-.2-.76,1.26,1.26,0,0,1,.45-1,1.92,1.92,0,0,1,1.27-.38,4.79,4.79,0,0,1,.88.08,1.93,1.93,0,0,1,.61.18l-.2.57a3,3,0,0,0-.53-.17,3.74,3.74,0,0,0-.79-.07,1.14,1.14,0,0,0-.78.23.74.74,0,0,0-.06,1.05,2.1,2.1,0,0,0,.49.37l.64.32a3.34,3.34,0,0,1,.64.37,1.76,1.76,0,0,1,.49.49,1.23,1.23,0,0,1,.2.73,1.61,1.61,0,0,1-.12.63,1.48,1.48,0,0,1-.37.49,1.84,1.84,0,0,1-.59.31,2.43,2.43,0,0,1-.79.11,4.32,4.32,0,0,1-1-.09,2.32,2.32,0,0,1-.6-.2l.22-.59a2.63,2.63,0,0,0,.53.21,3.26,3.26,0,0,0,.8.09,1.86,1.86,0,0,0,.48-.05,1.12,1.12,0,0,0,.4-.16,1,1,0,0,0,.26-.29A.78.78,0,0,0,245.23,44.43Zm8-4.1h.65v5.5h-.65Zm10.12,2.76h1.84v2.42a1.39,1.39,0,0,1-.3.17,2.12,2.12,0,0,1-.38.13,1.84,1.84,0,0,1-.42.08l-.41,0a2.74,2.74,0,0,1-1-.16,2.1,2.1,0,0,1-.76-.52,2.4,2.4,0,0,1-.5-.89,4,4,0,0,1-.19-1.27,3.66,3.66,0,0,1,.22-1.31,2.55,2.55,0,0,1,.58-.88,2.21,2.21,0,0,1,.79-.5,2.78,2.78,0,0,1,.88-.16,4.11,4.11,0,0,1,.78.06,2.81,2.81,0,0,1,.52.13l-.17.58a2.55,2.55,0,0,0-1.07-.18,2.17,2.17,0,0,0-.66.11,1.46,1.46,0,0,0-.58.38,1.94,1.94,0,0,0-.43.7,3,3,0,0,0-.16,1.07,3.28,3.28,0,0,0,.13,1,2,2,0,0,0,.37.71,1.73,1.73,0,0,0,.58.42,2,2,0,0,0,.74.13,1.79,1.79,0,0,0,.86-.19V43.61l-1.29-.15Zm10.07-.86-.42-.79h0l.07.79v3.6h-.61V40.24h.35l2.63,3.67.41.76h0l-.09-.76V40.33h.61v5.58H276Zm10.42-1.9h3v.58h-2.34v1.8h2.14v.58h-2.14v2h2.38v.58h-3Zm10.34.05c.2,0,.43-.06.69-.08l.71,0a3.11,3.11,0,0,1,.69.07,1.66,1.66,0,0,1,.57.26,1.26,1.26,0,0,1,.4.48,1.48,1.48,0,0,1,.15.7,1.57,1.57,0,0,1-.35,1,1.79,1.79,0,0,1-.9.53l.38.29,1.37,2.18h-.77l-1.51-2.37-.77-.12v2.49h-.66Zm1.42.45h-.43l-.19,0-.14,0v2h.61a1.46,1.46,0,0,0,.9-.27,1,1,0,0,0,.35-.83.92.92,0,0,0-.29-.7A1.13,1.13,0,0,0,295.57,40.83Z"/></g></g></svg>