<svg width="477" height="101" viewBox="0 0 477 101" fill="none" xmlns="http://www.w3.org/2000/svg">
<path d="M49 33V17L15 49.9683L49 84V65" stroke="black" stroke-width="4" stroke-miterlimit="10"/>
<path d="M60.5991 80V58.6488V49.782V36.2408V17L93 48.0397H42" stroke="black" stroke-width="4" stroke-miterlimit="10"/>
<path d="M58.8261 0L58.5 101" stroke="black" stroke-width="0.3" stroke-miterlimit="10"/>
<path d="M51 0V101" stroke="black" stroke-width="0.3" stroke-miterlimit="10"/>
<path d="M59 5L5 57" stroke="black" stroke-width="0.3" stroke-miterlimit="10"/>
<path d="M0 50H109" stroke="black" stroke-width="0.3" stroke-miterlimit="10"/>
<path d="M62.5 80L58.6691 89V80H62.5Z" fill="black"/>
<path d="M47 33L51 41V33H47Z" fill="black"/>
<path d="M47 65L51 56V65H47Z" fill="black"/>
<path d="M42 46L33 50H42V46Z" fill="black"/>
<path d="M105 57L51 5" stroke="black" stroke-width="0.3" stroke-miterlimit="10"/>
<path d="M60 97L6 44" stroke="black" stroke-width="0.3" stroke-miterlimit="10"/>
<path d="M143.035 52.188C142.475 52.6173 141.766 52.916 140.907 53.084C140.049 53.252 139.134 53.336 138.163 53.336C136.987 53.336 135.886 53.14 134.859 52.748C133.833 52.3373 132.937 51.7213 132.171 50.9C131.406 50.0787 130.799 49.0333 130.351 47.764C129.903 46.476 129.679 44.9547 129.679 43.2C129.679 41.3707 129.922 39.8213 130.407 38.552C130.911 37.264 131.565 36.2187 132.367 35.416C133.189 34.5947 134.103 33.9973 135.111 33.624C136.119 33.2507 137.146 33.064 138.191 33.064C139.311 33.064 140.226 33.1293 140.935 33.26C141.645 33.372 142.251 33.5307 142.755 33.736L142.195 35.78C141.299 35.3507 140.021 35.136 138.359 35.136C137.594 35.136 136.838 35.276 136.091 35.556C135.345 35.836 134.673 36.2933 134.075 36.928C133.497 37.5627 133.03 38.3933 132.675 39.42C132.321 40.4467 132.143 41.7067 132.143 43.2C132.143 44.544 132.311 45.72 132.647 46.728C132.983 47.736 133.441 48.576 134.019 49.248C134.617 49.92 135.307 50.424 136.091 50.76C136.894 51.096 137.762 51.264 138.695 51.264C139.535 51.264 140.263 51.18 140.879 51.012C141.514 50.844 142.046 50.6293 142.475 50.368L143.035 52.188ZM169.018 47.568H161.794L159.834 53H157.538L164.958 33.092H166.022L173.47 53H171.034L169.018 47.568ZM162.55 45.552H168.318L166.134 39.588L165.434 36.62H165.406L164.706 39.644L162.55 45.552ZM205.137 39.84L205.417 36.9H205.277L204.213 39.588L199.117 48.436H198.417L193.013 39.56L192.005 36.9H191.865L192.257 39.812V53H190.073V33.4H191.809L197.941 43.424L198.865 45.608H198.921L199.789 43.368L205.641 33.4H207.461V53H205.137V39.84ZM226.754 33.4H229.078V53H226.754V33.4ZM259.962 53H248.37V33.4H250.694V50.928H259.962V53ZM286.323 47.568H279.099L277.139 53H274.843L282.263 33.092H283.327L290.775 53H288.339L286.323 47.568ZM279.855 45.552H285.623L283.439 39.588L282.739 36.62H282.711L282.011 39.644L279.855 45.552ZM327.694 33.596C328.404 33.428 329.169 33.316 329.99 33.26C330.812 33.204 331.624 33.176 332.426 33.176C333.285 33.176 334.153 33.26 335.03 33.428C335.926 33.596 336.738 33.904 337.466 34.352C338.194 34.8 338.782 35.416 339.23 36.2C339.697 36.984 339.93 37.9827 339.93 39.196C339.93 40.3907 339.716 41.3987 339.286 42.22C338.857 43.0413 338.288 43.7133 337.578 44.236C336.869 44.74 336.057 45.104 335.142 45.328C334.228 45.552 333.285 45.664 332.314 45.664C332.221 45.664 332.062 45.664 331.838 45.664C331.633 45.664 331.409 45.664 331.166 45.664C330.942 45.6453 330.718 45.6267 330.494 45.608C330.27 45.5893 330.112 45.5707 330.018 45.552V53H327.694V33.596ZM332.482 35.192C331.997 35.192 331.53 35.2013 331.082 35.22C330.634 35.2387 330.28 35.2853 330.018 35.36V43.48C330.112 43.5173 330.261 43.5453 330.466 43.564C330.672 43.564 330.886 43.5733 331.11 43.592C331.334 43.592 331.549 43.592 331.754 43.592C331.96 43.592 332.109 43.592 332.202 43.592C332.837 43.592 333.462 43.536 334.078 43.424C334.713 43.2933 335.282 43.0693 335.786 42.752C336.29 42.4347 336.692 41.9867 336.99 41.408C337.308 40.8293 337.466 40.092 337.466 39.196C337.466 38.4307 337.317 37.796 337.018 37.292C336.738 36.7693 336.356 36.3587 335.87 36.06C335.404 35.7427 334.872 35.5187 334.274 35.388C333.677 35.2573 333.08 35.192 332.482 35.192ZM357.335 33.4H368.003V35.472H359.659V41.884H367.303V43.956H359.659V50.928H368.143V53H357.335V33.4ZM364.195 28.64H367.387V29.228L362.823 31.944H360.891L364.195 28.64ZM386.347 33.596C387.056 33.4653 387.868 33.3627 388.783 33.288C389.716 33.2133 390.565 33.176 391.331 33.176C392.189 33.176 393.001 33.2693 393.767 33.456C394.551 33.6427 395.232 33.9507 395.811 34.38C396.408 34.8093 396.884 35.3693 397.239 36.06C397.593 36.7507 397.771 37.5907 397.771 38.58C397.771 40.1107 397.351 41.352 396.511 42.304C395.671 43.256 394.607 43.8907 393.319 44.208L394.663 45.244L399.535 53H396.819L391.415 44.544L388.671 44.124V53H386.347V33.596ZM391.387 35.192C391.144 35.192 390.892 35.192 390.631 35.192C390.369 35.192 390.117 35.2013 389.875 35.22C389.632 35.2387 389.399 35.2573 389.175 35.276C388.969 35.2947 388.801 35.3227 388.671 35.36V42.584H390.855C392.143 42.584 393.207 42.2667 394.047 41.632C394.887 40.9973 395.307 40.008 395.307 38.664C395.307 37.656 394.961 36.8253 394.271 36.172C393.58 35.5187 392.619 35.192 391.387 35.192ZM416.999 33.4H427.667V35.472H419.323V41.884H426.967V43.956H419.323V50.928H427.807V53H416.999V33.4ZM444.695 50.9L454.579 36.592L455.755 35.472H444.695V33.4H457.855V35.5L447.915 49.892L446.739 50.928H457.855V53H444.695V50.9Z" fill="black"/>
<path d="M140.844 61.6H141.804V67.204C141.804 67.708 141.736 68.144 141.6 68.512C141.472 68.88 141.284 69.184 141.036 69.424C140.796 69.656 140.504 69.828 140.16 69.94C139.816 70.052 139.436 70.108 139.02 70.108C138.028 70.108 137.28 69.884 136.776 69.436C136.272 68.988 136.02 68.308 136.02 67.396V61.6H137.016V66.928C137.016 67.352 137.056 67.712 137.136 68.008C137.224 68.296 137.352 68.532 137.52 68.716C137.688 68.892 137.896 69.02 138.144 69.1C138.4 69.18 138.696 69.22 139.032 69.22C139.68 69.22 140.144 69.044 140.424 68.692C140.704 68.332 140.844 67.744 140.844 66.928V61.6ZM155.296 65.728L152.74 61.6H153.94L155.644 64.444L155.944 65.128L156.232 64.444L158.032 61.6H159.136L156.496 65.644L159.256 70H158.092L156.196 66.988L155.872 66.268L155.56 66.988L153.616 70H152.5L155.296 65.728ZM182.578 67.756C182.578 67.436 182.634 67.132 182.746 66.844C182.858 66.548 183.01 66.276 183.202 66.028C183.394 65.78 183.61 65.552 183.85 65.344C184.098 65.136 184.354 64.952 184.618 64.792C184.426 64.504 184.258 64.216 184.114 63.928C183.978 63.64 183.91 63.328 183.91 62.992C183.91 62.8 183.942 62.612 184.006 62.428C184.07 62.244 184.17 62.08 184.306 61.936C184.45 61.792 184.63 61.676 184.846 61.588C185.07 61.5 185.338 61.456 185.65 61.456C185.978 61.456 186.254 61.5 186.478 61.588C186.702 61.668 186.882 61.776 187.018 61.912C187.154 62.048 187.25 62.2 187.306 62.368C187.37 62.536 187.402 62.708 187.402 62.884C187.402 63.22 187.27 63.568 187.006 63.928C186.75 64.28 186.342 64.62 185.782 64.948C185.91 65.18 186.058 65.42 186.226 65.668C186.402 65.908 186.586 66.148 186.778 66.388C186.97 66.628 187.166 66.868 187.366 67.108C187.566 67.34 187.766 67.556 187.966 67.756C188.054 67.66 188.142 67.54 188.23 67.396C188.318 67.244 188.402 67.088 188.482 66.928C188.57 66.76 188.646 66.588 188.71 66.412C188.782 66.236 188.846 66.068 188.902 65.908L189.646 66.256C189.598 66.392 189.53 66.556 189.442 66.748C189.354 66.932 189.254 67.124 189.142 67.324C189.038 67.516 188.93 67.704 188.818 67.888C188.706 68.064 188.602 68.212 188.506 68.332C188.674 68.492 188.826 68.632 188.962 68.752C189.098 68.864 189.222 68.964 189.334 69.052C189.454 69.132 189.566 69.208 189.67 69.28C189.782 69.344 189.894 69.408 190.006 69.472L189.406 70.144C188.982 69.936 188.498 69.564 187.954 69.028C187.81 69.172 187.65 69.312 187.474 69.448C187.306 69.576 187.114 69.692 186.898 69.796C186.682 69.9 186.442 69.984 186.178 70.048C185.922 70.112 185.638 70.144 185.326 70.144C184.95 70.144 184.594 70.092 184.258 69.988C183.93 69.884 183.642 69.732 183.394 69.532C183.146 69.324 182.946 69.072 182.794 68.776C182.65 68.48 182.578 68.14 182.578 67.756ZM187.39 68.428C187.158 68.196 186.93 67.944 186.706 67.672C186.482 67.4 186.266 67.128 186.058 66.856C185.858 66.584 185.67 66.324 185.494 66.076C185.326 65.82 185.182 65.596 185.062 65.404C184.846 65.564 184.646 65.728 184.462 65.896C184.278 66.064 184.114 66.244 183.97 66.436C183.834 66.62 183.726 66.82 183.646 67.036C183.574 67.252 183.538 67.484 183.538 67.732C183.538 67.98 183.59 68.204 183.694 68.404C183.798 68.596 183.938 68.76 184.114 68.896C184.298 69.024 184.506 69.124 184.738 69.196C184.97 69.268 185.214 69.304 185.47 69.304C185.67 69.304 185.862 69.28 186.046 69.232C186.238 69.176 186.418 69.108 186.586 69.028C186.754 68.948 186.906 68.856 187.042 68.752C187.186 68.648 187.302 68.54 187.39 68.428ZM184.846 62.992C184.846 63.232 184.894 63.472 184.99 63.712C185.094 63.944 185.226 64.176 185.386 64.408C185.81 64.136 186.102 63.888 186.262 63.664C186.43 63.44 186.514 63.244 186.514 63.076C186.514 62.82 186.45 62.612 186.322 62.452C186.202 62.292 185.99 62.212 185.686 62.212C185.398 62.212 185.186 62.284 185.05 62.428C184.914 62.572 184.846 62.76 184.846 62.992ZM216.707 65.812H219.527V69.508C219.399 69.604 219.243 69.692 219.059 69.772C218.883 69.852 218.691 69.92 218.483 69.976C218.283 70.032 218.071 70.072 217.847 70.096C217.631 70.128 217.419 70.144 217.211 70.144C216.675 70.144 216.183 70.06 215.735 69.892C215.287 69.716 214.899 69.452 214.571 69.1C214.243 68.74 213.987 68.288 213.803 67.744C213.619 67.192 213.527 66.544 213.527 65.8C213.527 65.024 213.639 64.36 213.863 63.808C214.087 63.256 214.379 62.808 214.739 62.464C215.099 62.112 215.503 61.856 215.951 61.696C216.399 61.536 216.847 61.456 217.295 61.456C217.775 61.456 218.171 61.484 218.483 61.54C218.795 61.588 219.059 61.656 219.275 61.744L219.023 62.62C218.639 62.436 218.091 62.344 217.379 62.344C217.043 62.344 216.707 62.404 216.371 62.524C216.043 62.636 215.747 62.828 215.483 63.1C215.219 63.372 215.003 63.728 214.835 64.168C214.667 64.608 214.583 65.152 214.583 65.8C214.583 66.392 214.651 66.904 214.787 67.336C214.923 67.768 215.111 68.128 215.351 68.416C215.599 68.696 215.895 68.908 216.239 69.052C216.583 69.188 216.959 69.256 217.367 69.256C217.879 69.256 218.315 69.156 218.675 68.956V66.616L216.707 66.376V65.812ZM230.582 61.684C230.886 61.628 231.234 61.584 231.626 61.552C232.026 61.52 232.39 61.504 232.718 61.504C233.086 61.504 233.434 61.544 233.762 61.624C234.098 61.704 234.39 61.836 234.638 62.02C234.894 62.204 235.098 62.444 235.25 62.74C235.402 63.036 235.478 63.396 235.478 63.82C235.478 64.476 235.298 65.008 234.938 65.416C234.578 65.824 234.122 66.096 233.57 66.232L234.146 66.676L236.234 70H235.07L232.754 66.376L231.578 66.196V70H230.582V61.684ZM232.742 62.368C232.638 62.368 232.53 62.368 232.418 62.368C232.306 62.368 232.198 62.372 232.094 62.38C231.99 62.388 231.89 62.396 231.794 62.404C231.706 62.412 231.634 62.424 231.578 62.44V65.536H232.514C233.066 65.536 233.522 65.4 233.882 65.128C234.242 64.856 234.422 64.432 234.422 63.856C234.422 63.424 234.274 63.068 233.978 62.788C233.682 62.508 233.27 62.368 232.742 62.368ZM250.759 67.672H247.663L246.823 70H245.839L249.019 61.468H249.475L252.667 70H251.623L250.759 67.672ZM247.987 66.808H250.459L249.523 64.252L249.223 62.98H249.211L248.911 64.276L247.987 66.808ZM263.142 61.684C263.446 61.612 263.774 61.564 264.126 61.54C264.478 61.516 264.826 61.504 265.17 61.504C265.538 61.504 265.91 61.54 266.286 61.612C266.67 61.684 267.018 61.816 267.33 62.008C267.642 62.2 267.894 62.464 268.086 62.8C268.286 63.136 268.386 63.564 268.386 64.084C268.386 64.596 268.294 65.028 268.11 65.38C267.926 65.732 267.682 66.02 267.378 66.244C267.074 66.46 266.726 66.616 266.334 66.712C265.942 66.808 265.538 66.856 265.122 66.856C265.082 66.856 265.014 66.856 264.918 66.856C264.83 66.856 264.734 66.856 264.63 66.856C264.534 66.848 264.438 66.84 264.342 66.832C264.246 66.824 264.178 66.816 264.138 66.808V70H263.142V61.684ZM265.194 62.368C264.986 62.368 264.786 62.372 264.594 62.38C264.402 62.388 264.25 62.408 264.138 62.44V65.92C264.178 65.936 264.242 65.948 264.33 65.956C264.418 65.956 264.51 65.96 264.606 65.968C264.702 65.968 264.794 65.968 264.882 65.968C264.97 65.968 265.034 65.968 265.074 65.968C265.346 65.968 265.614 65.944 265.878 65.896C266.15 65.84 266.394 65.744 266.61 65.608C266.826 65.472 266.998 65.28 267.126 65.032C267.262 64.784 267.33 64.468 267.33 64.084C267.33 63.756 267.266 63.484 267.138 63.268C267.018 63.044 266.854 62.868 266.646 62.74C266.446 62.604 266.218 62.508 265.962 62.452C265.706 62.396 265.45 62.368 265.194 62.368ZM284.233 66.148H280.201V70H279.205V61.6H280.201V65.26H284.233V61.6H285.229V70H284.233V66.148ZM296.856 61.6H297.852V70H296.856V61.6ZM314.856 69.652C314.616 69.836 314.312 69.964 313.944 70.036C313.576 70.108 313.184 70.144 312.768 70.144C312.264 70.144 311.792 70.06 311.352 69.892C310.912 69.716 310.528 69.452 310.2 69.1C309.872 68.748 309.612 68.3 309.42 67.756C309.228 67.204 309.132 66.552 309.132 65.8C309.132 65.016 309.236 64.352 309.444 63.808C309.66 63.256 309.94 62.808 310.284 62.464C310.636 62.112 311.028 61.856 311.46 61.696C311.892 61.536 312.332 61.456 312.78 61.456C313.26 61.456 313.652 61.484 313.956 61.54C314.26 61.588 314.52 61.656 314.736 61.744L314.496 62.62C314.112 62.436 313.564 62.344 312.852 62.344C312.524 62.344 312.2 62.404 311.88 62.524C311.56 62.644 311.272 62.84 311.016 63.112C310.768 63.384 310.568 63.74 310.416 64.18C310.264 64.62 310.188 65.16 310.188 65.8C310.188 66.376 310.26 66.88 310.404 67.312C310.548 67.744 310.744 68.104 310.992 68.392C311.248 68.68 311.544 68.896 311.88 69.04C312.224 69.184 312.596 69.256 312.996 69.256C313.356 69.256 313.668 69.22 313.932 69.148C314.204 69.076 314.432 68.984 314.616 68.872L314.856 69.652ZM337.774 61.6C337.926 61.576 338.094 61.56 338.278 61.552C338.47 61.536 338.666 61.528 338.866 61.528C339.074 61.52 339.274 61.516 339.466 61.516C339.666 61.508 339.85 61.504 340.018 61.504C340.69 61.504 341.27 61.608 341.758 61.816C342.254 62.024 342.662 62.316 342.982 62.692C343.302 63.06 343.538 63.504 343.69 64.024C343.85 64.544 343.93 65.116 343.93 65.74C343.93 66.308 343.854 66.856 343.702 67.384C343.558 67.904 343.326 68.368 343.006 68.776C342.686 69.176 342.27 69.5 341.758 69.748C341.246 69.988 340.626 70.108 339.898 70.108C339.77 70.108 339.602 70.104 339.394 70.096C339.194 70.096 338.986 70.088 338.77 70.072C338.554 70.064 338.354 70.056 338.17 70.048C337.986 70.04 337.854 70.028 337.774 70.012V61.6ZM340.042 62.392C339.938 62.392 339.822 62.392 339.694 62.392C339.574 62.392 339.454 62.396 339.334 62.404C339.214 62.412 339.102 62.42 338.998 62.428C338.902 62.436 338.826 62.444 338.77 62.452V69.172C338.81 69.18 338.886 69.188 338.998 69.196C339.11 69.196 339.226 69.2 339.346 69.208C339.466 69.208 339.582 69.212 339.694 69.22C339.806 69.22 339.882 69.22 339.922 69.22C340.482 69.22 340.95 69.124 341.326 68.932C341.71 68.74 342.014 68.484 342.238 68.164C342.47 67.836 342.634 67.464 342.73 67.048C342.826 66.624 342.874 66.188 342.874 65.74C342.874 65.348 342.83 64.956 342.742 64.564C342.654 64.164 342.502 63.804 342.286 63.484C342.07 63.164 341.778 62.904 341.41 62.704C341.05 62.496 340.594 62.392 340.042 62.392ZM354.986 61.6H359.558V62.488H355.982V65.236H359.258V66.124H355.982V69.112H359.618V70H354.986V61.6ZM374.571 67.864C374.571 67.528 374.471 67.256 374.271 67.048C374.071 66.832 373.819 66.644 373.515 66.484C373.219 66.316 372.895 66.16 372.543 66.016C372.191 65.872 371.863 65.7 371.559 65.5C371.263 65.292 371.015 65.04 370.815 64.744C370.615 64.44 370.515 64.056 370.515 63.592C370.515 62.936 370.743 62.416 371.199 62.032C371.655 61.648 372.303 61.456 373.143 61.456C373.631 61.456 374.075 61.492 374.475 61.564C374.875 61.636 375.187 61.728 375.411 61.84L375.111 62.716C374.927 62.628 374.655 62.544 374.295 62.464C373.943 62.384 373.543 62.344 373.095 62.344C372.567 62.344 372.171 62.464 371.907 62.704C371.643 62.936 371.511 63.212 371.511 63.532C371.511 63.844 371.611 64.104 371.811 64.312C372.011 64.52 372.259 64.708 372.555 64.876C372.859 65.036 373.187 65.196 373.539 65.356C373.891 65.516 374.215 65.704 374.511 65.92C374.815 66.128 375.067 66.38 375.267 66.676C375.467 66.972 375.567 67.34 375.567 67.78C375.567 68.14 375.503 68.464 375.375 68.752C375.247 69.04 375.059 69.288 374.811 69.496C374.563 69.704 374.263 69.864 373.911 69.976C373.559 70.088 373.159 70.144 372.711 70.144C372.111 70.144 371.615 70.096 371.223 70C370.831 69.912 370.527 69.812 370.311 69.7L370.647 68.8C370.831 68.904 371.103 69.008 371.463 69.112C371.823 69.208 372.227 69.256 372.675 69.256C372.939 69.256 373.187 69.232 373.419 69.184C373.651 69.128 373.851 69.044 374.019 68.932C374.187 68.812 374.319 68.664 374.415 68.488C374.519 68.312 374.571 68.104 374.571 67.864ZM386.742 61.6H387.738V70H386.742V61.6ZM402.199 65.812H405.019V69.508C404.891 69.604 404.735 69.692 404.551 69.772C404.375 69.852 404.183 69.92 403.975 69.976C403.775 70.032 403.563 70.072 403.339 70.096C403.123 70.128 402.911 70.144 402.703 70.144C402.167 70.144 401.675 70.06 401.227 69.892C400.779 69.716 400.391 69.452 400.063 69.1C399.735 68.74 399.479 68.288 399.295 67.744C399.111 67.192 399.019 66.544 399.019 65.8C399.019 65.024 399.131 64.36 399.355 63.808C399.579 63.256 399.871 62.808 400.231 62.464C400.591 62.112 400.995 61.856 401.443 61.696C401.891 61.536 402.339 61.456 402.787 61.456C403.267 61.456 403.663 61.484 403.975 61.54C404.287 61.588 404.551 61.656 404.767 61.744L404.515 62.62C404.131 62.436 403.583 62.344 402.871 62.344C402.535 62.344 402.199 62.404 401.863 62.524C401.535 62.636 401.239 62.828 400.975 63.1C400.711 63.372 400.495 63.728 400.327 64.168C400.159 64.608 400.075 65.152 400.075 65.8C400.075 66.392 400.143 66.904 400.279 67.336C400.415 67.768 400.603 68.128 400.843 68.416C401.091 68.696 401.387 68.908 401.731 69.052C402.075 69.188 402.451 69.256 402.859 69.256C403.371 69.256 403.807 69.156 404.167 68.956V66.616L402.199 66.376V65.812ZM417.586 64.504L416.938 63.292H416.89L417.01 64.504V70H416.074V61.468H416.602L420.622 67.072L421.246 68.224H421.306L421.174 67.072V61.6H422.11V70.132H421.582L417.586 64.504ZM433.508 61.6H438.08V62.488H434.504V65.236H437.78V66.124H434.504V69.112H438.14V70H433.508V61.6ZM449.302 61.684C449.606 61.628 449.954 61.584 450.346 61.552C450.746 61.52 451.11 61.504 451.438 61.504C451.806 61.504 452.154 61.544 452.482 61.624C452.818 61.704 453.11 61.836 453.358 62.02C453.614 62.204 453.818 62.444 453.97 62.74C454.122 63.036 454.198 63.396 454.198 63.82C454.198 64.476 454.018 65.008 453.658 65.416C453.298 65.824 452.842 66.096 452.29 66.232L452.866 66.676L454.954 70H453.79L451.474 66.376L450.298 66.196V70H449.302V61.684ZM451.462 62.368C451.358 62.368 451.25 62.368 451.138 62.368C451.026 62.368 450.918 62.372 450.814 62.38C450.71 62.388 450.61 62.396 450.514 62.404C450.426 62.412 450.354 62.424 450.298 62.44V65.536H451.234C451.786 65.536 452.242 65.4 452.602 65.128C452.962 64.856 453.142 64.432 453.142 63.856C453.142 63.424 452.994 63.068 452.698 62.788C452.402 62.508 451.99 62.368 451.462 62.368Z" fill="black"/>
</svg>
