<svg width="314" height="69" viewBox="0 0 314 69" fill="none" xmlns="http://www.w3.org/2000/svg">
<g opacity="0.3">
<path d="M34.2778 22.5446V11.6139L11.0501 34.1368L34.2778 57.3862V44.406" stroke="white" stroke-width="3" stroke-miterlimit="10"/>
<path d="M42.2018 54.6535V40.067V34.0095V24.7586V11.6139L64.3371 32.8192H29.4955" stroke="white" stroke-width="3" stroke-miterlimit="10"/>
<path d="M40.9906 0L40.7678 69" stroke="white" stroke-width="0.1" stroke-miterlimit="10"/>
<path d="M35.6441 0V69" stroke="white" stroke-width="0.1" stroke-miterlimit="10"/>
<path d="M41.1095 3.41589L4.21838 38.9407" stroke="white" stroke-width="0.1" stroke-miterlimit="10"/>
<path d="M0.802429 34.1584H75.2678" stroke="white" stroke-width="0.1" stroke-miterlimit="10"/>
<path d="M43.5005 54.6535L40.8833 60.802V54.6535H43.5005Z" fill="white"/>
<path d="M32.9114 22.5446L35.6441 28.0099V22.5446H32.9114Z" fill="white"/>
<path d="M32.9114 44.4059L35.6441 38.2574V44.4059H32.9114Z" fill="white"/>
<path d="M29.4956 31.4257L23.3471 34.1583H29.4956V31.4257Z" fill="white"/>
<path d="M72.5352 38.9407L35.6441 3.41589" stroke="white" stroke-width="0.1" stroke-miterlimit="10"/>
<path d="M41.7926 66.2673L4.90149 30.0594" stroke="white" stroke-width="0.1" stroke-miterlimit="10"/>
<path d="M98.5197 35.6532C98.1371 35.9465 97.6526 36.1506 97.0659 36.2653C96.4793 36.3801 95.8545 36.4375 95.1913 36.4375C94.3879 36.4375 93.6355 36.3036 92.9341 36.0358C92.2328 35.7552 91.6206 35.3344 91.0978 34.7733C90.5749 34.2122 90.1605 33.4981 89.8544 32.6309C89.5484 31.751 89.3953 30.7116 89.3953 29.5129C89.3953 28.2632 89.5611 27.2047 89.8927 26.3375C90.237 25.4576 90.6833 24.7435 91.2317 24.1951C91.7928 23.634 92.4177 23.2259 93.1063 22.9709C93.7949 22.7158 94.4963 22.5883 95.2105 22.5883C95.9756 22.5883 96.6005 22.633 97.0851 22.7222C97.5697 22.7987 97.9841 22.9071 98.3284 23.0474L97.9459 24.4438C97.3337 24.1505 96.4602 24.0038 95.3252 24.0038C94.8024 24.0038 94.2859 24.0995 93.7758 24.2908C93.2657 24.4821 92.8066 24.7945 92.3985 25.2281C92.0032 25.6617 91.6844 26.2291 91.4421 26.9305C91.1998 27.6319 91.0787 28.4927 91.0787 29.5129C91.0787 30.4311 91.1934 31.2345 91.423 31.9231C91.6525 32.6118 91.9649 33.1856 92.3603 33.6447C92.7684 34.1038 93.2402 34.4481 93.7758 34.6777C94.3242 34.9072 94.9171 35.022 95.5548 35.022C96.1286 35.022 96.626 34.9646 97.0468 34.8498C97.4804 34.7351 97.8438 34.5884 98.1371 34.4099L98.5197 35.6532Z" fill="white"/>
<path d="M116.271 32.497H111.335L109.996 36.208H108.428L113.497 22.6074H114.224L119.312 36.208H117.648L116.271 32.497ZM111.852 31.1197H115.792L114.3 27.0453L113.822 25.0177H113.803L113.325 27.0836L111.852 31.1197Z" fill="white"/>
<path d="M140.946 27.2175L141.137 25.2089H141.042L140.315 27.0453L136.833 33.09H136.355L132.663 27.0262L131.974 25.2089H131.879L132.147 27.1983V36.208H130.655V22.8179H131.841L136.03 29.6659L136.661 31.158H136.699L137.292 29.6277L141.29 22.8179H142.534V36.208H140.946V27.2175Z" fill="white"/>
<path d="M155.714 22.8179H157.301V36.208H155.714V22.8179Z" fill="white"/>
<path d="M178.4 36.208H170.481V22.8179H172.069V34.7924H178.4V36.208Z" fill="white"/>
<path d="M196.409 32.497H191.474L190.135 36.208H188.567L193.636 22.6074H194.363L199.451 36.208H197.787L196.409 32.497ZM191.991 31.1197H195.931L194.439 27.0453L193.961 25.0177H193.942L193.464 27.0836L191.991 31.1197Z" fill="white"/>
<path d="M224.673 22.9518C225.158 22.837 225.68 22.7605 226.242 22.7222C226.803 22.684 227.357 22.6648 227.906 22.6648C228.492 22.6648 229.085 22.7222 229.685 22.837C230.297 22.9518 230.852 23.1622 231.349 23.4682C231.846 23.7743 232.248 24.1951 232.554 24.7307C232.873 25.2663 233.032 25.9486 233.032 26.7775C233.032 27.5937 232.886 28.2823 232.592 28.8434C232.299 29.4045 231.91 29.8636 231.425 30.2207C230.941 30.565 230.386 30.8137 229.761 30.9667C229.136 31.1197 228.492 31.1962 227.829 31.1962C227.765 31.1962 227.657 31.1962 227.504 31.1962C227.364 31.1962 227.211 31.1962 227.045 31.1962C226.892 31.1835 226.739 31.1707 226.586 31.158C226.433 31.1452 226.324 31.1325 226.261 31.1197V36.208H224.673V22.9518ZM227.944 24.0421C227.612 24.0421 227.294 24.0485 226.988 24.0612C226.681 24.074 226.439 24.1059 226.261 24.1569V29.7042C226.324 29.7297 226.426 29.7488 226.567 29.7616C226.707 29.7616 226.854 29.768 227.007 29.7807C227.16 29.7807 227.306 29.7807 227.447 29.7807C227.587 29.7807 227.689 29.7807 227.753 29.7807C228.186 29.7807 228.613 29.7425 229.034 29.6659C229.468 29.5767 229.857 29.4236 230.201 29.2069C230.545 28.9901 230.82 28.684 231.024 28.2887C231.241 27.8933 231.349 27.3896 231.349 26.7775C231.349 26.2547 231.247 25.8211 231.043 25.4768C230.852 25.1197 230.59 24.8391 230.259 24.6351C229.94 24.4183 229.576 24.2653 229.168 24.176C228.76 24.0867 228.352 24.0421 227.944 24.0421Z" fill="white"/>
<path d="M244.923 22.8179H252.211V24.2334H246.51V28.6139H251.732V30.0294H246.51V34.7924H252.306V36.208H244.923V22.8179ZM249.609 19.566H251.79V19.9677L248.672 21.8232H247.352L249.609 19.566Z" fill="white"/>
<path d="M264.742 22.9518C265.227 22.8625 265.782 22.7924 266.407 22.7413C267.044 22.6903 267.624 22.6648 268.147 22.6648C268.734 22.6648 269.289 22.7286 269.812 22.8561C270.347 22.9836 270.813 23.1941 271.208 23.4874C271.616 23.7807 271.941 24.1632 272.183 24.6351C272.426 25.1069 272.547 25.6808 272.547 26.3567C272.547 27.4024 272.26 28.2504 271.686 28.9008C271.112 29.5512 270.385 29.9848 269.505 30.2015L270.424 30.9093L273.752 36.208H271.897L268.205 30.4311L266.33 30.1442V36.208H264.742V22.9518ZM268.186 24.0421C268.02 24.0421 267.848 24.0421 267.669 24.0421C267.491 24.0421 267.318 24.0485 267.153 24.0612C266.987 24.074 266.827 24.0867 266.674 24.0995C266.534 24.1122 266.419 24.1314 266.33 24.1569V29.0921H267.822C268.702 29.0921 269.429 28.8753 270.003 28.4417C270.577 28.0081 270.864 27.3322 270.864 26.4141C270.864 25.7254 270.628 25.1579 270.156 24.7116C269.684 24.2653 269.027 24.0421 268.186 24.0421Z" fill="white"/>
<path d="M285.683 22.8179H292.971V24.2334H287.271V28.6139H292.493V30.0294H287.271V34.7924H293.067V36.208H285.683V22.8179Z" fill="white"/>
<path d="M304.604 34.7733L311.356 24.9985L312.16 24.2334H304.604V22.8179H313.594V24.2525L306.804 34.0847L306 34.7924H313.594V36.208H304.604V34.7733Z" fill="white"/>
<path d="M97.0227 42.0832H97.6785V45.9117C97.6785 46.256 97.6321 46.5539 97.5392 46.8053C97.4517 47.0567 97.3233 47.2644 97.1538 47.4283C96.9899 47.5868 96.7904 47.7043 96.5554 47.7808C96.3204 47.8573 96.0608 47.8956 95.7766 47.8956C95.0989 47.8956 94.5879 47.7426 94.2435 47.4365C93.8992 47.1305 93.7271 46.6659 93.7271 46.0429V42.0832H94.4075V45.7231C94.4075 46.0128 94.4348 46.2587 94.4895 46.461C94.5496 46.6577 94.6371 46.8189 94.7518 46.9446C94.8666 47.0649 95.0087 47.1523 95.1781 47.207C95.353 47.2616 95.5552 47.289 95.7848 47.289C96.2275 47.289 96.5445 47.1687 96.7357 46.9282C96.927 46.6823 97.0227 46.2806 97.0227 45.7231V42.0832Z" fill="white"/>
<path d="M106.896 44.9033L105.15 42.0832H105.97L107.134 44.0261L107.339 44.4934L107.535 44.0261L108.765 42.0832H109.519L107.716 44.8459L109.601 47.8218H108.806L107.511 45.7641L107.289 45.2722L107.076 45.7641L105.748 47.8218H104.986L106.896 44.9033Z" fill="white"/>
<path d="M125.534 46.2888C125.534 46.0702 125.572 45.8625 125.649 45.6657C125.725 45.4635 125.829 45.2777 125.96 45.1083C126.092 44.9389 126.239 44.7831 126.403 44.641C126.572 44.4989 126.747 44.3732 126.928 44.2639C126.797 44.0671 126.682 43.8704 126.583 43.6736C126.49 43.4769 126.444 43.2637 126.444 43.0342C126.444 42.903 126.466 42.7746 126.51 42.6489C126.553 42.5232 126.622 42.4111 126.715 42.3128C126.813 42.2144 126.936 42.1351 127.083 42.075C127.236 42.0149 127.42 41.9848 127.633 41.9848C127.857 41.9848 128.045 42.0149 128.198 42.075C128.351 42.1297 128.474 42.2034 128.567 42.2964C128.66 42.3893 128.726 42.4931 128.764 42.6079C128.808 42.7227 128.83 42.8402 128.83 42.9604C128.83 43.1899 128.739 43.4277 128.559 43.6736C128.384 43.9141 128.105 44.1464 127.723 44.3705C127.81 44.529 127.911 44.6929 128.026 44.8623C128.146 45.0263 128.272 45.1903 128.403 45.3542C128.535 45.5182 128.668 45.6821 128.805 45.8461C128.942 46.0046 129.078 46.1522 129.215 46.2888C129.275 46.2232 129.335 46.1412 129.395 46.0429C129.455 45.939 129.513 45.8324 129.567 45.7231C129.628 45.6084 129.68 45.4909 129.723 45.3706C129.772 45.2504 129.816 45.1356 129.854 45.0263L130.363 45.264C130.33 45.357 130.283 45.469 130.223 45.6002C130.163 45.7259 130.095 45.857 130.018 45.9937C129.947 46.1248 129.874 46.2533 129.797 46.379C129.72 46.4992 129.649 46.6003 129.584 46.6823C129.699 46.7916 129.802 46.8872 129.895 46.9692C129.988 47.0457 130.073 47.1141 130.15 47.1742C130.232 47.2288 130.308 47.2808 130.379 47.3299C130.456 47.3737 130.532 47.4174 130.609 47.4611L130.199 47.9202C129.909 47.7781 129.578 47.524 129.207 47.1578C129.108 47.2562 128.999 47.3518 128.879 47.4447C128.764 47.5322 128.633 47.6114 128.485 47.6825C128.338 47.7535 128.174 47.8109 127.993 47.8546C127.819 47.8983 127.625 47.9202 127.411 47.9202C127.155 47.9202 126.911 47.8847 126.682 47.8136C126.458 47.7426 126.261 47.6387 126.092 47.5021C125.922 47.36 125.785 47.1878 125.682 46.9856C125.583 46.7834 125.534 46.5511 125.534 46.2888ZM128.821 46.7479C128.663 46.5894 128.507 46.4172 128.354 46.2314C128.201 46.0456 128.054 45.8598 127.911 45.6739C127.775 45.4881 127.646 45.3105 127.526 45.1411C127.411 44.9662 127.313 44.8131 127.231 44.682C127.083 44.7913 126.947 44.9033 126.821 45.0181C126.695 45.1329 126.583 45.2558 126.485 45.387C126.392 45.5127 126.318 45.6493 126.264 45.7969C126.214 45.9445 126.19 46.103 126.19 46.2724C126.19 46.4418 126.225 46.5949 126.296 46.7315C126.368 46.8627 126.463 46.9747 126.583 47.0676C126.709 47.1551 126.851 47.2234 127.01 47.2726C127.168 47.3217 127.335 47.3463 127.51 47.3463C127.646 47.3463 127.778 47.3299 127.903 47.2972C128.034 47.2589 128.157 47.2124 128.272 47.1578C128.387 47.1031 128.491 47.0403 128.584 46.9692C128.682 46.8982 128.761 46.8244 128.821 46.7479ZM127.083 43.0342C127.083 43.1981 127.116 43.3621 127.182 43.5261C127.253 43.6846 127.343 43.8431 127.452 44.0015C127.742 43.8157 127.942 43.6463 128.051 43.4933C128.166 43.3402 128.223 43.2063 128.223 43.0916C128.223 42.9167 128.179 42.7746 128.092 42.6653C128.01 42.556 127.865 42.5013 127.657 42.5013C127.461 42.5013 127.316 42.5505 127.223 42.6489C127.13 42.7472 127.083 42.8757 127.083 43.0342Z" fill="white"/>
<path d="M148.85 44.9607H150.776V47.4857C150.689 47.5513 150.582 47.6114 150.456 47.6661C150.336 47.7207 150.205 47.7672 150.063 47.8054C149.926 47.8437 149.781 47.871 149.628 47.8874C149.481 47.9093 149.336 47.9202 149.194 47.9202C148.828 47.9202 148.492 47.8628 148.186 47.748C147.88 47.6278 147.614 47.4474 147.39 47.207C147.166 46.961 146.991 46.6522 146.866 46.2806C146.74 45.9035 146.677 45.4608 146.677 44.9525C146.677 44.4224 146.754 43.9688 146.907 43.5916C147.06 43.2145 147.259 42.9085 147.505 42.6735C147.751 42.433 148.027 42.2581 148.333 42.1488C148.639 42.0395 148.945 41.9848 149.251 41.9848C149.579 41.9848 149.85 42.004 150.063 42.0422C150.276 42.075 150.456 42.1215 150.604 42.1816L150.432 42.78C150.17 42.6543 149.795 42.5915 149.309 42.5915C149.079 42.5915 148.85 42.6325 148.62 42.7145C148.396 42.791 148.194 42.9221 148.013 43.108C147.833 43.2938 147.686 43.537 147.571 43.8376C147.456 44.1382 147.399 44.5098 147.399 44.9525C147.399 45.357 147.445 45.7067 147.538 46.0019C147.631 46.297 147.759 46.5429 147.923 46.7397C148.093 46.931 148.295 47.0758 148.53 47.1742C148.765 47.2671 149.022 47.3135 149.301 47.3135C149.65 47.3135 149.948 47.2452 150.194 47.1086V45.51L148.85 45.346V44.9607Z" fill="white"/>
<path d="M158.329 42.1406C158.537 42.1023 158.774 42.0723 159.042 42.0504C159.316 42.0286 159.564 42.0176 159.788 42.0176C160.04 42.0176 160.277 42.045 160.502 42.0996C160.731 42.1543 160.931 42.2444 161.1 42.3701C161.275 42.4958 161.414 42.6598 161.518 42.862C161.622 43.0642 161.674 43.3102 161.674 43.5998C161.674 44.048 161.551 44.4114 161.305 44.6902C161.059 44.9689 160.747 45.1547 160.37 45.2476L160.764 45.551L162.19 47.8218H161.395L159.813 45.346L159.009 45.2231V47.8218H158.329V42.1406ZM159.805 42.6079C159.734 42.6079 159.66 42.6079 159.583 42.6079C159.507 42.6079 159.433 42.6106 159.362 42.6161C159.291 42.6215 159.223 42.627 159.157 42.6325C159.097 42.6379 159.048 42.6461 159.009 42.6571V44.7722H159.649C160.026 44.7722 160.338 44.6792 160.584 44.4934C160.829 44.3076 160.952 44.0179 160.952 43.6244C160.952 43.3293 160.851 43.0861 160.649 42.8948C160.447 42.7035 160.165 42.6079 159.805 42.6079Z" fill="white"/>
<path d="M172.113 46.2314H169.998L169.424 47.8218H168.752L170.924 41.993H171.236L173.416 47.8218H172.703L172.113 46.2314ZM170.219 45.6412H171.908L171.268 43.895L171.064 43.026H171.055L170.85 43.9114L170.219 45.6412Z" fill="white"/>
<path d="M180.573 42.1406C180.781 42.0914 181.005 42.0586 181.245 42.0422C181.486 42.0258 181.723 42.0176 181.958 42.0176C182.21 42.0176 182.464 42.0422 182.721 42.0914C182.983 42.1406 183.221 42.2308 183.434 42.3619C183.647 42.4931 183.819 42.6735 183.951 42.903C184.087 43.1326 184.155 43.425 184.155 43.7802C184.155 44.13 184.093 44.4251 183.967 44.6656C183.841 44.9061 183.674 45.1028 183.467 45.2558C183.259 45.4034 183.021 45.51 182.754 45.5756C182.486 45.6412 182.21 45.6739 181.926 45.6739C181.898 45.6739 181.852 45.6739 181.786 45.6739C181.726 45.6739 181.661 45.6739 181.589 45.6739C181.524 45.6685 181.458 45.663 181.393 45.6575C181.327 45.6521 181.281 45.6466 181.253 45.6412V47.8218H180.573V42.1406ZM181.975 42.6079C181.833 42.6079 181.696 42.6106 181.565 42.6161C181.434 42.6215 181.33 42.6352 181.253 42.6571V45.0345C181.281 45.0454 181.324 45.0536 181.385 45.0591C181.445 45.0591 181.507 45.0618 181.573 45.0673C181.639 45.0673 181.702 45.0673 181.762 45.0673C181.822 45.0673 181.865 45.0673 181.893 45.0673C182.079 45.0673 182.262 45.0509 182.442 45.0181C182.628 44.9798 182.795 44.9143 182.942 44.8213C183.09 44.7284 183.207 44.5973 183.295 44.4278C183.388 44.2584 183.434 44.0425 183.434 43.7802C183.434 43.5561 183.39 43.3703 183.303 43.2227C183.221 43.0697 183.109 42.9495 182.967 42.862C182.83 42.7691 182.674 42.7035 182.499 42.6653C182.325 42.627 182.15 42.6079 181.975 42.6079Z" fill="white"/>
<path d="M194.982 45.1903H192.227V47.8218H191.547V42.0832H192.227V44.5836H194.982V42.0832H195.662V47.8218H194.982V45.1903Z" fill="white"/>
<path d="M203.605 42.0832H204.285V47.8218H203.605V42.0832Z" fill="white"/>
<path d="M215.902 47.5841C215.738 47.7098 215.531 47.7972 215.279 47.8464C215.028 47.8956 214.76 47.9202 214.476 47.9202C214.131 47.9202 213.809 47.8628 213.508 47.748C213.208 47.6278 212.945 47.4474 212.721 47.207C212.497 46.9665 212.32 46.6604 212.188 46.2888C212.057 45.9117 211.992 45.4663 211.992 44.9525C211.992 44.4169 212.063 43.9633 212.205 43.5916C212.352 43.2145 212.544 42.9085 212.779 42.6735C213.019 42.433 213.287 42.2581 213.582 42.1488C213.877 42.0395 214.178 41.9848 214.484 41.9848C214.812 41.9848 215.08 42.004 215.287 42.0422C215.495 42.075 215.673 42.1215 215.82 42.1816L215.656 42.78C215.394 42.6543 215.019 42.5915 214.533 42.5915C214.309 42.5915 214.088 42.6325 213.869 42.7145C213.65 42.7964 213.454 42.9303 213.279 43.1162C213.109 43.302 212.973 43.5452 212.869 43.8458C212.765 44.1464 212.713 44.5153 212.713 44.9525C212.713 45.346 212.762 45.6903 212.861 45.9855C212.959 46.2806 213.093 46.5265 213.262 46.7233C213.437 46.92 213.639 47.0676 213.869 47.166C214.104 47.2644 214.358 47.3135 214.631 47.3135C214.877 47.3135 215.091 47.289 215.271 47.2398C215.457 47.1906 215.612 47.1277 215.738 47.0512L215.902 47.5841Z" fill="white"/>
<path d="M231.559 42.0832C231.663 42.0668 231.778 42.0559 231.903 42.0504C232.035 42.0395 232.169 42.034 232.305 42.034C232.447 42.0286 232.584 42.0258 232.715 42.0258C232.852 42.0204 232.977 42.0176 233.092 42.0176C233.551 42.0176 233.948 42.0887 234.281 42.2308C234.62 42.3729 234.898 42.5724 235.117 42.8292C235.336 43.0806 235.497 43.384 235.601 43.7392C235.71 44.0945 235.765 44.4852 235.765 44.9115C235.765 45.2996 235.713 45.6739 235.609 46.0347C235.511 46.3899 235.352 46.7069 235.133 46.9856C234.915 47.2589 234.631 47.4802 234.281 47.6497C233.931 47.8136 233.508 47.8956 233.01 47.8956C232.923 47.8956 232.808 47.8929 232.666 47.8874C232.529 47.8874 232.387 47.8819 232.24 47.871C232.092 47.8655 231.955 47.8601 231.83 47.8546C231.704 47.8491 231.614 47.841 231.559 47.83V42.0832ZM233.109 42.6243C233.038 42.6243 232.958 42.6243 232.871 42.6243C232.789 42.6243 232.707 42.627 232.625 42.6325C232.543 42.6379 232.466 42.6434 232.395 42.6489C232.33 42.6543 232.278 42.6598 232.24 42.6653V47.2562C232.267 47.2616 232.319 47.2671 232.395 47.2726C232.472 47.2726 232.551 47.2753 232.633 47.2808C232.715 47.2808 232.794 47.2835 232.871 47.289C232.947 47.289 232.999 47.289 233.027 47.289C233.409 47.289 233.729 47.2234 233.986 47.0922C234.248 46.961 234.456 46.7861 234.609 46.5675C234.767 46.3434 234.879 46.0893 234.945 45.8051C235.011 45.5154 235.043 45.2176 235.043 44.9115C235.043 44.6437 235.013 44.3759 234.953 44.1081C234.893 43.8349 234.789 43.5889 234.642 43.3703C234.494 43.1517 234.295 42.9741 234.043 42.8374C233.797 42.6953 233.486 42.6243 233.109 42.6243Z" fill="white"/>
<path d="M243.318 42.0832H246.441V42.6899H243.998V44.5672H246.236V45.1739H243.998V47.2152H246.482V47.8218H243.318V42.0832Z" fill="white"/>
<path d="M256.698 46.3626C256.698 46.133 256.629 45.9472 256.493 45.8051C256.356 45.6575 256.184 45.5291 255.976 45.4198C255.774 45.305 255.553 45.1985 255.312 45.1001C255.072 45.0017 254.848 44.8842 254.64 44.7476C254.438 44.6055 254.268 44.4333 254.132 44.2311C253.995 44.0234 253.927 43.7611 253.927 43.4441C253.927 42.9959 254.083 42.6407 254.394 42.3783C254.706 42.116 255.148 41.9848 255.722 41.9848C256.056 41.9848 256.359 42.0094 256.632 42.0586C256.905 42.1078 257.119 42.1707 257.272 42.2472L257.067 42.8456C256.941 42.7855 256.755 42.7281 256.509 42.6735C256.269 42.6188 255.996 42.5915 255.689 42.5915C255.329 42.5915 255.058 42.6735 254.878 42.8374C254.697 42.9959 254.607 43.1845 254.607 43.4031C254.607 43.6162 254.676 43.7939 254.812 43.936C254.949 44.0781 255.118 44.2065 255.321 44.3213C255.528 44.4306 255.752 44.5399 255.993 44.6492C256.233 44.7585 256.455 44.8869 256.657 45.0345C256.864 45.1766 257.037 45.3488 257.173 45.551C257.31 45.7532 257.378 46.0046 257.378 46.3052C257.378 46.5511 257.335 46.7725 257.247 46.9692C257.16 47.166 257.031 47.3354 256.862 47.4775C256.692 47.6196 256.487 47.7289 256.247 47.8054C256.006 47.8819 255.733 47.9202 255.427 47.9202C255.017 47.9202 254.678 47.8874 254.411 47.8218C254.143 47.7617 253.935 47.6934 253.788 47.6169L254.017 47.002C254.143 47.0731 254.329 47.1441 254.575 47.2152C254.82 47.2808 255.096 47.3135 255.403 47.3135C255.583 47.3135 255.752 47.2972 255.911 47.2644C256.069 47.2261 256.206 47.1687 256.321 47.0922C256.435 47.0102 256.526 46.9091 256.591 46.7889C256.662 46.6686 256.698 46.5265 256.698 46.3626Z" fill="white"/>
<path d="M265.013 42.0832H265.693V47.8218H265.013V42.0832Z" fill="white"/>
<path d="M275.572 44.9607H277.498V47.4857C277.411 47.5513 277.304 47.6114 277.179 47.6661C277.058 47.7207 276.927 47.7672 276.785 47.8054C276.648 47.8437 276.504 47.871 276.351 47.8874C276.203 47.9093 276.058 47.9202 275.916 47.9202C275.55 47.9202 275.214 47.8628 274.908 47.748C274.602 47.6278 274.337 47.4474 274.113 47.207C273.889 46.961 273.714 46.6522 273.588 46.2806C273.462 45.9035 273.399 45.4608 273.399 44.9525C273.399 44.4224 273.476 43.9688 273.629 43.5916C273.782 43.2145 273.981 42.9085 274.227 42.6735C274.473 42.433 274.749 42.2581 275.055 42.1488C275.361 42.0395 275.667 41.9848 275.974 41.9848C276.301 41.9848 276.572 42.004 276.785 42.0422C276.998 42.075 277.179 42.1215 277.326 42.1816L277.154 42.78C276.892 42.6543 276.517 42.5915 276.031 42.5915C275.801 42.5915 275.572 42.6325 275.342 42.7145C275.118 42.791 274.916 42.9221 274.736 43.108C274.555 43.2938 274.408 43.537 274.293 43.8376C274.178 44.1382 274.121 44.5098 274.121 44.9525C274.121 45.357 274.167 45.7067 274.26 46.0019C274.353 46.297 274.481 46.5429 274.645 46.7397C274.815 46.931 275.017 47.0758 275.252 47.1742C275.487 47.2671 275.744 47.3135 276.023 47.3135C276.372 47.3135 276.67 47.2452 276.916 47.1086V45.51L275.572 45.346V44.9607Z" fill="white"/>
<path d="M286.084 44.0671L285.641 43.2391H285.609L285.691 44.0671V47.8218H285.051V41.993H285.412L288.158 45.8215L288.585 46.6085H288.626L288.535 45.8215V42.0832H289.175V47.912H288.814L286.084 44.0671Z" fill="white"/>
<path d="M296.962 42.0832H300.085V42.6899H297.642V44.5672H299.88V45.1739H297.642V47.2152H300.126V47.8218H296.962V42.0832Z" fill="white"/>
<path d="M307.751 42.1406C307.959 42.1023 308.197 42.0723 308.465 42.0504C308.738 42.0286 308.987 42.0176 309.211 42.0176C309.462 42.0176 309.7 42.045 309.924 42.0996C310.153 42.1543 310.353 42.2444 310.522 42.3701C310.697 42.4958 310.837 42.6598 310.94 42.862C311.044 43.0642 311.096 43.3102 311.096 43.5998C311.096 44.048 310.973 44.4114 310.727 44.6902C310.481 44.9689 310.17 45.1547 309.793 45.2476L310.186 45.551L311.613 47.8218H310.817L309.235 45.346L308.432 45.2231V47.8218H307.751V42.1406ZM309.227 42.6079C309.156 42.6079 309.082 42.6079 309.006 42.6079C308.929 42.6079 308.855 42.6106 308.784 42.6161C308.713 42.6215 308.645 42.627 308.579 42.6325C308.519 42.6379 308.47 42.6461 308.432 42.6571V44.7722H309.071C309.448 44.7722 309.76 44.6792 310.006 44.4934C310.252 44.3076 310.375 44.0179 310.375 43.6244C310.375 43.3293 310.274 43.0861 310.071 42.8948C309.869 42.7035 309.588 42.6079 309.227 42.6079Z" fill="white"/>
</g>
</svg>
