<svg width="109" height="101" viewBox="0 0 109 101" fill="none" xmlns="http://www.w3.org/2000/svg">
<path d="M49 33V17L15 49.9683L49 84V65" stroke="black" stroke-width="4" stroke-miterlimit="10"/>
<path d="M60.5991 80V58.6488V49.782V36.2408V17L93 48.0397H42" stroke="black" stroke-width="4" stroke-miterlimit="10"/>
<path d="M58.8261 0L58.5 101" stroke="black" stroke-width="0.3" stroke-miterlimit="10"/>
<path d="M51 0V101" stroke="black" stroke-width="0.3" stroke-miterlimit="10"/>
<path d="M59 5L5 57" stroke="black" stroke-width="0.3" stroke-miterlimit="10"/>
<path d="M0 50H109" stroke="black" stroke-width="0.3" stroke-miterlimit="10"/>
<path d="M62.5 80L58.6691 89V80H62.5Z" fill="black"/>
<path d="M47 33L51 41V33H47Z" fill="black"/>
<path d="M47 65L51 56V65H47Z" fill="black"/>
<path d="M42 46L33 50H42V46Z" fill="black"/>
<path d="M105 57L51 5" stroke="black" stroke-width="0.3" stroke-miterlimit="10"/>
<path d="M60 97L6 44" stroke="black" stroke-width="0.3" stroke-miterlimit="10"/>
</svg>
