<svg width="530" height="227" viewBox="0 0 530 227" fill="none" xmlns="http://www.w3.org/2000/svg">
<g filter="url(#filter0_d)">
<path fill-rule="evenodd" clip-rule="evenodd" d="M514.406 103.697L475.057 126.66L462.676 170.247C462.387 171.256 461.023 171.433 460.481 170.525L437.336 131.486L393.402 119.202C392.385 118.916 392.208 117.562 393.123 117.024L432.471 94.0616L444.845 50.474C445.133 49.465 446.497 49.2885 447.04 50.1965L470.184 89.2353L514.118 101.52C515.143 101.814 515.321 103.168 514.406 103.697ZM429.98 185.827C428.048 188.451 425.251 190.242 422.302 190.738L422.174 190.763C421.632 190.847 421.081 190.889 420.547 190.889C418.666 190.881 416.861 190.326 415.352 189.283C413.386 187.921 412.073 185.844 411.666 183.44C411.157 180.463 411.996 177.234 413.954 174.577C415.895 171.954 418.725 170.155 421.708 169.65C424.225 169.23 426.675 169.743 428.615 171.096C430.548 172.442 431.853 174.535 432.268 176.974C432.776 179.933 431.937 183.162 429.98 185.827ZM398.809 184.188C393.284 191.864 385.428 197.061 377.249 198.44C375.724 198.7 374.232 198.818 372.783 198.81C362.351 198.742 354.215 191.932 351.452 180.724C343.655 194.193 332.85 205.401 319.655 207.63C318.138 207.89 316.646 208.008 315.197 208C310.629 207.966 306.459 206.629 302.968 204.048C298.222 200.55 295.078 194.984 293.874 187.963C292.222 178.336 294.51 167.885 300.129 159.283C305.764 150.648 314.154 144.838 323.138 143.325C328.401 142.433 333.477 143.19 337.418 145.443C341.367 147.714 343.952 151.363 344.706 155.735C345.342 159.468 344.571 163.815 342.621 167.372C340.486 171.281 337.265 173.779 333.553 174.401C329.952 175.015 326.358 173.594 323.714 170.516L323.587 170.365L323.706 170.214C325.418 167.96 328.502 162.781 327.918 159.367C327.816 158.753 327.57 158.283 327.206 157.988C326.833 157.694 326.358 157.593 325.799 157.686C323.206 158.123 320.29 161.621 318.197 166.825C316.027 172.198 315.205 178.134 315.985 182.7C316.477 185.575 317.629 187.862 319.324 189.325C321.087 190.847 323.409 191.419 326.053 190.973C335.596 189.367 346.249 175.048 351.944 161.167C353.079 157.005 354.817 152.952 357.19 149.244C363.02 140.129 371.495 134.227 381.072 132.613C386.64 131.679 392.089 132.344 396.403 134.504C400.809 136.707 403.64 140.281 404.369 144.569L404.42 144.855H404.411C404.784 147.478 404.165 150.059 402.648 152.195C404.03 153.902 404.945 156.029 405.369 158.535C406.81 167.035 404.428 176.385 398.809 184.188ZM282.755 155.777C276.179 173.274 264.534 189.09 245.89 192.352C233.406 194.53 224.474 188.207 222.694 178.193C219.033 157.568 242.678 141.618 262.865 128.762C264.001 121.573 264.958 115.023 265.78 108.935C258.28 121.657 248.22 132.419 235.347 134.673C226.237 136.262 218.499 132.596 216.643 122.161C214.44 109.785 220.55 92.0772 219.635 86.9231C219.389 85.5358 218.516 84.6865 216.694 85.006C208.982 86.3513 203.312 108.145 202.211 114.93C201.397 120.101 200.431 130.157 200.321 140.079C183.092 144.813 171.905 144.476 169.778 132.512C169.489 130.881 169.388 129.123 169.422 127.198C161.515 139.205 151.277 149.227 139.573 151.279C131.022 152.775 123.59 149.193 121.658 138.347C118.912 122.901 128.565 101.57 128.141 81.2728C137.37 79.5156 156.125 77.6658 157.752 86.8474C159.04 94.0784 150.04 119.9 151.319 127.131C151.54 128.383 152.108 129.14 153.235 128.947C157.786 128.156 168.625 111.693 174.032 96.214C175.108 89.0671 175.913 81.441 175.761 73.5206C189.38 70.418 203.923 68.4505 205.855 77.7246C206.304 79.8939 206.067 82.7106 205.482 86.3597C211.66 74.5884 220.432 64.9864 232.695 62.8423C240.966 61.3961 248.297 64.4146 249.78 72.7639C251.61 83.0554 244.407 98.6608 245.992 107.565C246.364 109.65 247.331 111.063 249.576 110.668C257.704 109.247 266.153 86.8306 268.797 78.9102L269.077 78.0778C269.636 70.418 269.916 63.3972 270.009 56.469C280.806 54.5856 296.976 54.4763 298.807 64.7678C299.832 70.5357 298.451 85.9057 295.705 102.991C301.79 96.029 306.79 88.1843 310.714 79.2633C313.451 63.7336 322.061 47.6489 337.918 44.8742C346.037 43.4533 353.622 46.5306 356.995 53.215C359.571 46.9258 363.495 42.1248 369.478 41.0822C376.351 39.8798 382.953 42.8815 386.462 47.1528C383.555 59.2773 379.063 76.27 380.521 84.4763C380.945 86.839 381.961 87.6714 383.08 87.4696C388.826 86.469 395.411 67.3827 399.191 56.1074L399.759 54.4342C402.86 53.173 408.089 54.1231 409.039 56.2504L408.216 58.8148C401.276 79.9612 391.097 107.279 371.47 110.718C363.469 112.114 355.571 108.952 352.503 99.8884C347.164 109.642 339.867 116.25 331.655 117.688C322.112 119.361 313.299 113.207 310.553 98.8794C305.366 106.556 299.264 113.543 292.696 119.673C289.866 133.571 286.383 146.965 282.755 155.777ZM106.022 155.314C100.971 157.778 96.2077 159.468 92.7077 160.082C68.029 164.395 60.2067 124.457 50.4268 99.4932C50.3844 99.737 50.359 99.964 50.3166 100.208C50.2404 100.023 50.1726 99.8295 50.1048 99.6445C45.2911 130.284 46.3504 150.883 46.4013 168.221C21.1548 174.838 16.9937 168.423 15.2733 158.72C12.8749 145.225 27.0956 87.8059 25.4939 64.1287C42.0198 57.0828 56.8761 56.057 65.3679 77.8087C70.7155 91.6484 78.5378 116.957 84.0379 129.191C86.9278 103.151 90.4618 73.4197 89.2499 51.113C115.327 46.5474 118.259 54.0727 119.132 59.7986C120.429 69.6024 107.886 121.859 106.022 155.314ZM147.175 36.6932C155.243 35.289 162.235 40.1152 163.616 47.8759C165.362 57.6125 157.735 67.6854 148.201 69.3502C140.133 70.7543 132.997 65.8272 131.624 58.1926C129.887 48.4561 137.506 38.3748 147.175 36.6932ZM286.06 11.7884C294.891 9.1987 303.332 13.1757 305.917 20.9784C309.154 30.7655 301.985 42.2257 291.544 45.2862C282.721 47.8759 274.086 43.8148 271.552 36.1382C268.306 26.3512 275.484 14.891 286.06 11.7884ZM282.569 12.9908L282.738 13.016C282.535 13.0748 282.34 13.1337 282.137 13.1925C282.289 13.1253 282.408 13.0664 282.569 12.9908ZM449.955 98.089C458.557 95.533 467.015 101.999 466.71 110.903C466.523 116.293 462.786 121.102 457.574 122.649C448.972 125.205 440.514 118.739 440.819 109.835C441.006 104.446 444.743 99.6361 449.955 98.089ZM243.136 168.734C241.797 161.217 250.644 152.01 260.204 144.3C257.916 155.743 253.822 170.592 247 171.786C245.042 172.131 243.534 170.954 243.136 168.734ZM344.045 94.709C342.223 95.0285 340.587 93.1619 339.876 89.126C338.342 80.4993 341.901 63.103 347.791 62.0688C350.317 61.6315 351.554 63.7084 352.071 66.626C352.639 69.8294 352.452 74.4455 351.673 79.0279C350.867 83.4758 348.393 93.9522 344.045 94.709ZM387.69 149.959C385.919 150.833 384.148 152.044 382.428 153.566L382.258 153.717L382.402 153.894C383.555 155.323 384.326 157.122 384.69 159.241C386.072 167.304 381.699 181.245 376.233 182.162C373.91 182.54 372.114 180.345 371.419 176.259C370.605 171.483 371.368 164.765 373.36 159.149C375.614 152.817 379.063 148.823 382.826 148.184C383.123 148.134 383.411 148.109 383.707 148.117C385.148 148.117 386.529 148.756 387.69 149.959Z" fill="white"/>
</g>
<defs>
<filter id="filter0_d" x="0" y="0" width="530" height="227" filterUnits="userSpaceOnUse" color-interpolation-filters="sRGB">
<feFlood flood-opacity="0" result="BackgroundImageFix"/>
<feColorMatrix in="SourceAlpha" type="matrix" values="0 0 0 0 0 0 0 0 0 0 0 0 0 0 0 0 0 0 127 0"/>
<feOffset dy="4"/>
<feGaussianBlur stdDeviation="7.5"/>
<feColorMatrix type="matrix" values="0 0 0 0 0 0 0 0 0 0 0 0 0 0 0 0 0 0 0.25 0"/>
<feBlend mode="normal" in2="BackgroundImageFix" result="effect1_dropShadow"/>
<feBlend mode="normal" in="SourceGraphic" in2="effect1_dropShadow" result="shape"/>
</filter>
</defs>
</svg>
