<svg width="355" height="140" viewBox="0 0 355 140" fill="none" xmlns="http://www.w3.org/2000/svg">
<path fill-rule="evenodd" clip-rule="evenodd" d="M354.578 65.8762L326.641 82.1947L317.85 113.171C317.645 113.888 316.676 114.013 316.291 113.368L299.859 85.6245L268.666 76.8946C267.944 76.6915 267.817 75.7295 268.467 75.347L296.405 59.0285L305.19 28.0526C305.394 27.3356 306.363 27.2101 306.748 27.8554L323.181 55.5987L354.374 64.3286C355.102 64.5377 355.228 65.4998 354.578 65.8762ZM294.636 124.243C293.264 126.107 291.278 127.38 289.184 127.732L289.094 127.75C288.709 127.81 288.318 127.84 287.939 127.84C286.603 127.834 285.321 127.44 284.25 126.699C282.854 125.731 281.921 124.255 281.633 122.546C281.272 120.431 281.867 118.136 283.257 116.248C284.635 114.384 286.645 113.105 288.763 112.746C290.55 112.448 292.289 112.812 293.667 113.774C295.039 114.73 295.965 116.218 296.26 117.951C296.621 120.054 296.026 122.349 294.636 124.243ZM272.505 123.078C268.582 128.533 263.004 132.226 257.197 133.206C256.114 133.391 255.055 133.475 254.026 133.469C246.619 133.421 240.843 128.581 238.881 120.616C233.345 130.188 225.673 138.153 216.305 139.737C215.228 139.922 214.169 140.006 213.14 140C209.897 139.976 206.936 139.026 204.457 137.191C201.088 134.706 198.855 130.75 198.001 125.761C196.827 118.919 198.452 111.492 202.441 105.379C206.443 99.2422 212.4 95.1133 218.778 94.0378C222.514 93.4044 226.119 93.9421 228.917 95.5435C231.721 97.1569 233.556 99.7501 234.091 102.857C234.543 105.51 233.995 108.6 232.611 111.127C231.095 113.906 228.808 115.68 226.173 116.122C223.616 116.559 221.064 115.549 219.187 113.362L219.097 113.254L219.181 113.147C220.396 111.545 222.587 107.865 222.172 105.439C222.099 105.002 221.925 104.668 221.666 104.459C221.401 104.25 221.064 104.178 220.667 104.244C218.826 104.554 216.756 107.04 215.27 110.739C213.729 114.557 213.146 118.775 213.699 122.02C214.048 124.064 214.867 125.689 216.07 126.729C217.322 127.81 218.97 128.216 220.848 127.9C227.623 126.758 235.187 116.583 239.23 106.717C240.036 103.76 241.27 100.879 242.955 98.2444C247.094 91.7671 253.112 87.5725 259.911 86.4252C263.864 85.762 267.733 86.234 270.796 87.7697C273.925 89.3352 275.934 91.8747 276.452 94.9221L276.488 95.1253H276.482C276.747 96.9895 276.308 98.824 275.23 100.342C276.211 101.555 276.861 103.066 277.162 104.847C278.185 110.888 276.494 117.533 272.505 123.078ZM190.106 102.887C185.437 115.322 177.169 126.561 163.932 128.88C155.069 130.427 148.727 125.934 147.463 118.817C144.864 104.16 161.651 92.8248 175.984 83.6885C176.79 78.5797 177.47 73.9249 178.054 69.5988C172.729 78.6394 165.587 86.2878 156.447 87.8892C149.978 89.0185 144.485 86.4133 143.167 78.9979C141.602 70.2023 145.941 57.6184 145.291 53.9555C145.116 52.9696 144.497 52.3661 143.203 52.5931C137.727 53.5492 133.702 69.0371 132.92 73.8592C132.342 77.534 131.656 84.6805 131.578 91.7313C119.345 95.0954 111.402 94.8564 109.892 86.3535C109.688 85.1943 109.615 83.9455 109.639 82.5771C104.025 91.1099 96.7567 98.2324 88.4471 99.6904C82.3758 100.754 77.0988 98.2085 75.7269 90.5004C73.7774 79.5238 80.6309 64.3645 80.33 49.9401C86.8826 48.6913 100.199 47.3767 101.354 53.9017C102.268 59.0405 95.8782 77.3906 96.7868 82.5293C96.9433 83.4197 97.3464 83.9574 98.1467 83.82C101.378 83.2583 109.074 71.5587 112.913 60.5582C113.677 55.4792 114.248 50.0596 114.14 44.4309C123.81 42.226 134.135 40.8278 135.507 47.4185C135.826 48.9602 135.657 50.9619 135.242 53.5551C139.629 45.1897 145.856 38.366 154.563 36.8423C160.436 35.8145 165.641 37.9596 166.694 43.8931C167.993 51.2069 162.879 62.297 164.004 68.6248C164.269 70.1067 164.955 71.1106 166.549 70.8297C172.32 69.8199 178.319 53.8898 180.196 48.261L180.395 47.6695C180.792 42.226 180.99 37.2366 181.057 32.313C188.722 30.9745 200.203 30.8968 201.503 38.2106C202.231 42.3096 201.25 53.2325 199.3 65.3743C203.621 60.4267 207.171 54.8518 209.957 48.512C211.9 37.4756 218.014 26.0449 229.272 24.0731C235.036 23.0632 240.421 25.2502 242.816 30.0005C244.645 25.531 247.431 22.1191 251.679 21.3782C256.559 20.5237 261.247 22.6569 263.738 25.6924C261.674 34.3087 258.485 46.3848 259.52 52.2167C259.821 53.8957 260.543 54.4873 261.337 54.3439C265.417 53.6328 270.092 40.0689 272.775 32.056L273.179 30.867C275.381 29.9707 279.093 30.6459 279.767 32.1576L279.184 33.9801C274.256 49.0079 267.029 68.4217 253.093 70.8656C247.413 71.8575 241.805 69.6108 239.627 63.1694C235.836 70.1007 230.656 74.7973 224.825 75.8191C218.05 77.0082 211.792 72.6343 209.842 62.4524C206.16 67.9078 201.828 72.8733 197.164 77.2293C195.155 87.1064 192.682 96.6251 190.106 102.887ZM64.6253 102.559C61.0391 104.309 57.6575 105.51 55.1724 105.947C37.6506 109.012 32.0968 80.6292 25.153 62.8886C25.1229 63.0618 25.1049 63.2232 25.0748 63.3965C25.0207 63.265 24.9725 63.1276 24.9244 62.9961C21.5067 84.7701 22.2588 99.4095 22.2949 111.731C4.36991 116.433 1.41551 111.874 0.194031 104.979C-1.50881 95.3882 8.58791 54.5829 7.45067 37.7565C19.1841 32.7492 29.7321 32.0202 35.7612 47.4783C39.558 57.3136 45.1118 75.2992 49.0169 83.9933C51.0688 65.4878 53.5779 44.3592 52.7174 28.5067C71.2321 25.2621 73.314 30.61 73.9338 34.6792C74.8544 41.6464 65.9491 78.7828 64.6253 102.559ZM93.8444 18.2591C99.5727 17.2612 104.537 20.691 105.518 26.2062C106.757 33.1256 101.342 40.284 94.5725 41.4671C88.8442 42.465 83.7778 38.9635 82.803 33.5379C81.5695 26.6185 86.9789 19.4542 93.8444 18.2591ZM192.453 0.560281C198.723 -1.28011 204.716 1.5462 206.551 7.09128C208.85 14.0465 203.759 22.1908 196.346 24.3658C190.082 26.2062 183.951 23.3202 182.152 17.8647C179.847 10.9095 184.944 2.76516 192.453 0.560281ZM189.974 1.41475L190.094 1.43267C189.95 1.4745 189.811 1.51633 189.667 1.55815C189.775 1.51035 189.86 1.46853 189.974 1.41475ZM308.818 61.8907C314.925 60.0742 320.93 64.6692 320.714 70.997C320.581 74.8272 317.928 78.2451 314.227 79.3445C308.12 81.161 302.115 76.566 302.332 70.2382C302.464 66.408 305.117 62.9901 308.818 61.8907ZM161.976 112.095C161.026 106.753 167.307 100.21 174.095 94.7309C172.47 102.863 169.564 113.416 164.72 114.264C163.33 114.509 162.259 113.673 161.976 112.095ZM233.622 59.4886C232.328 59.7157 231.167 58.3892 230.662 55.521C229.573 49.3904 232.1 37.0275 236.282 36.2925C238.075 35.9818 238.953 37.4577 239.32 39.5311C239.723 41.8077 239.591 45.0882 239.037 48.3447C238.466 51.5056 236.709 58.9508 233.622 59.4886ZM264.61 98.7523C263.353 99.3737 262.095 100.234 260.874 101.316L260.753 101.423L260.856 101.549C261.674 102.564 262.221 103.843 262.48 105.349C263.461 111.079 260.356 120.986 256.475 121.638C254.826 121.907 253.551 120.347 253.057 117.443C252.48 114.049 253.021 109.275 254.435 105.283C256.036 100.784 258.485 97.9456 261.156 97.4915C261.367 97.4556 261.572 97.4377 261.782 97.4437C262.805 97.4437 263.786 97.8978 264.61 98.7523Z" fill="white"/>
</svg>
