<svg width="193" height="104" viewBox="0 0 193 104" fill="none" xmlns="http://www.w3.org/2000/svg">
<circle cx="41" cy="56" r="5" fill="#333333"/>
<path fill-rule="evenodd" clip-rule="evenodd" d="M24.7071 49.2929C25.0976 48.9024 25.7308 48.9024 26.1213 49.2929L29.3033 52.4749C29.6938 52.8654 29.6938 53.4986 29.3033 53.8891C28.9127 54.2796 28.2796 54.2796 27.8891 53.8891L24.7071 50.7071C24.3166 50.3166 24.3166 49.6834 24.7071 49.2929Z" fill="#333333"/>
<path fill-rule="evenodd" clip-rule="evenodd" d="M52.776 53.9102C52.3762 53.5293 52.3608 52.8963 52.7418 52.4964L55.8458 49.2383C56.2268 48.8385 56.8597 48.8231 57.2596 49.2041C57.6595 49.5851 57.6748 50.218 57.2938 50.6179L54.1898 53.876C53.8089 54.2758 53.1759 54.2912 52.776 53.9102Z" fill="#333333"/>
<path fill-rule="evenodd" clip-rule="evenodd" d="M48.1049 50.8163C47.6106 50.57 47.4095 49.9696 47.6557 49.4753L49.6621 45.4473C49.9083 44.953 50.5087 44.7519 51.0031 44.9981C51.4974 45.2443 51.6985 45.8447 51.4523 46.3391L49.4459 50.367C49.1997 50.8614 48.5993 51.0625 48.1049 50.8163Z" fill="#333333"/>
<path fill-rule="evenodd" clip-rule="evenodd" d="M43.8324 48.8715C43.2847 48.8005 42.8982 48.2989 42.9692 47.7512L43.5476 43.2886C43.6186 42.7409 44.1201 42.3544 44.6678 42.4254C45.2155 42.4964 45.602 42.9979 45.531 43.5456L44.9526 48.0083C44.8817 48.556 44.3801 48.9425 43.8324 48.8715Z" fill="#333333"/>
<path fill-rule="evenodd" clip-rule="evenodd" d="M38.6133 49.1124C38.0645 49.1744 37.5693 48.7799 37.5073 48.2311L37.0016 43.7596C36.9395 43.2108 37.3341 42.7156 37.8829 42.6535C38.4317 42.5915 38.9268 42.986 38.9889 43.5348L39.4946 48.0063C39.5566 48.5551 39.1621 49.0503 38.6133 49.1124Z" fill="#333333"/>
<path fill-rule="evenodd" clip-rule="evenodd" d="M33.6731 50.726C33.1701 50.954 32.5775 50.7312 32.3494 50.2282L30.4912 46.1298C30.2631 45.6268 30.486 45.0341 30.989 44.8061C31.492 44.578 32.0846 44.8009 32.3127 45.3039L34.1709 49.4023C34.399 49.9053 34.1761 50.4979 33.6731 50.726Z" fill="#333333"/>
<path fill-rule="evenodd" clip-rule="evenodd" d="M55.3094 30.5C51.8266 26.5163 46.7072 24 41 24C35.2928 24 30.1734 26.5163 26.6906 30.5H29.0938C32.2669 27.6994 36.435 26 41 26C45.565 26 49.7331 27.6994 52.9062 30.5H55.3094Z" fill="#E3E3E3"/>
<path fill-rule="evenodd" clip-rule="evenodd" d="M25.695 78.9675C11.1976 72.9587 1 58.6702 1 42C1 19.9086 18.9086 2 41 2C63.0914 2 81 19.9086 81 42C81 58.5231 70.9816 72.7063 56.6878 78.8064C56.6431 78.8536 56.5983 78.9004 56.5533 78.9471C71.4844 72.8208 82 58.1384 82 41C82 18.3563 63.6437 0 41 0C18.3563 0 0 18.3563 0 41C0 58.2942 10.7076 73.0875 25.8549 79.112C25.8015 79.0641 25.7482 79.016 25.695 78.9675Z" fill="#E3E3E3"/>
<path fill-rule="evenodd" clip-rule="evenodd" d="M19.5 62.4618C14.8392 57.3161 12 50.4896 12 43C12 26.9837 24.9837 14 41 14C57.0163 14 70 26.9837 70 43C70 50.4896 67.1608 57.3161 62.5 62.4618V62.9225C67.7601 57.5181 71 50.1374 71 42C71 25.4315 57.5685 12 41 12C24.4315 12 11 25.4315 11 42C11 50.1374 14.2399 57.5181 19.5 62.9225V62.4618Z" fill="#E3E3E3"/>
<path fill-rule="evenodd" clip-rule="evenodd" d="M16.9841 32.4431C16.1521 33.082 15.5 34.0543 15.5 35.5C15.5 36.9298 16.1368 37.8146 16.9636 38.4165C17.8331 39.0496 18.9172 39.3636 19.6961 39.5194C20.1635 39.6129 20.5 40.0233 20.5 40.5V65.5C20.5 70.1586 22.9577 74.675 26.1638 78.0626C27.7588 79.7479 29.5101 81.1217 31.1742 82.0683C32.8569 83.0256 34.3685 83.5 35.5 83.5C36.0523 83.5 36.5 83.9477 36.5 84.5V97.5C36.5 97.5332 36.4983 97.5664 36.495 97.5995C36.4364 98.1861 36.6191 99.173 37.2809 100C37.9074 100.784 39.0255 101.5 41 101.5C42.951 101.5 44.0273 100.76 44.6431 99.955C45.297 99.1 45.5 98.076 45.5 97.5V84.5C45.5 83.9477 45.9477 83.5 46.5 83.5C47.6439 83.5 49.1618 83.0481 50.8406 82.1304C52.503 81.2216 54.2512 79.8948 55.8424 78.2436C59.0357 74.9298 61.5 70.4156 61.5 65.5V40.5C61.5 39.9873 61.8877 39.5579 62.3973 39.5053C62.3975 39.5053 62.3977 39.5052 62.3979 39.5052C62.3983 39.5052 62.3986 39.5052 62.399 39.5051C62.3992 39.5051 62.3994 39.5051 62.3996 39.5051C62.3996 39.505 62.3997 39.505 62.3997 39.505C62.4 39.505 62.4002 39.505 62.4005 39.505L62.4006 39.5049L62.4272 39.5016C62.4535 39.4982 62.4961 39.4923 62.5527 39.483C62.6663 39.4643 62.8344 39.4325 63.0387 39.3814C63.4514 39.2783 63.9898 39.1019 64.5181 38.8113C65.5487 38.2444 66.5 37.2837 66.5 35.5C66.5 33.7163 65.5487 32.7556 64.5181 32.1887C63.9898 31.8981 63.4514 31.7217 63.0387 31.6186C62.8344 31.5675 62.6663 31.5357 62.5527 31.517C62.5042 31.5091 62.466 31.5036 62.4396 31.5H19.5C18.8909 31.5 17.8542 31.7748 16.9841 32.4431ZM62.5 30.5L62.5995 29.505C62.5664 29.5017 62.5332 29.5 62.5 29.5H19.5C18.4424 29.5 16.9791 29.9252 15.7659 30.8569C14.5145 31.818 13.5 33.3457 13.5 35.5C13.5 37.6702 14.5299 39.1187 15.7864 40.0335C16.6784 40.6828 17.6795 41.0634 18.5 41.29V65.5C18.5 70.8414 21.2923 75.825 24.7112 79.4374C26.4287 81.2521 28.3336 82.7533 30.1852 83.8067C31.6509 84.6405 33.1361 85.2236 34.5 85.4237V97.4539C34.4075 98.53 34.7307 100.014 35.7191 101.25C36.7592 102.55 38.4745 103.5 41 103.5C43.549 103.5 45.2227 102.49 46.2319 101.17C47.203 99.9 47.5 98.424 47.5 97.5V85.4273C48.8543 85.2377 50.3336 84.6869 51.8 83.8853C53.6532 82.8721 55.5613 81.4177 57.2826 79.6314C60.7143 76.0702 63.5 71.0844 63.5 65.5V41.3276C63.5079 41.3257 63.5158 41.3237 63.5238 41.3217C64.0486 41.1905 64.7602 40.9606 65.4819 40.5637C66.9513 39.7556 68.5 38.2163 68.5 35.5C68.5 32.7837 66.9513 31.2444 65.4819 30.4363C64.7602 30.0394 64.0486 29.8095 63.5238 29.6783C63.2593 29.6122 63.0369 29.5698 62.877 29.5435C62.7969 29.5303 62.7321 29.5212 62.6851 29.5151C62.6616 29.512 62.6425 29.5097 62.6281 29.5081L62.6102 29.5061L62.6039 29.5054L62.6015 29.5052L62.6004 29.5051C62.6 29.505 62.5995 29.505 62.5 30.5Z" fill="#333333"/>
<path d="M80.0391 54.8325C79.9844 54.4155 79.8442 54.0396 79.6187 53.7046C79.2905 53.2534 78.7812 53.0278 78.0908 53.0278C77.1064 53.0278 76.4331 53.5166 76.0708 54.4941C75.8794 55.0137 75.7837 55.7041 75.7837 56.5654C75.7837 57.3857 75.8794 58.0454 76.0708 58.5444C76.4194 59.4741 77.0757 59.939 78.0396 59.939C78.7231 59.939 79.2085 59.7544 79.4956 59.3853C79.7827 59.0161 79.957 58.5376 80.0186 57.9497H83.0024C82.9341 58.8384 82.6128 59.6792 82.0386 60.4722C81.1226 61.7505 79.7656 62.3896 77.9678 62.3896C76.1699 62.3896 74.8472 61.8564 73.9995 60.79C73.1519 59.7236 72.728 58.3394 72.728 56.6372C72.728 54.7163 73.1963 53.2227 74.1328 52.1562C75.0693 51.0898 76.3613 50.5566 78.0088 50.5566C79.4102 50.5566 80.5552 50.8711 81.4438 51.5C82.3394 52.1289 82.8691 53.2397 83.0332 54.8325H80.0391ZM94.2674 59.939C95.1219 59.939 95.7781 59.6348 96.2361 59.0264C96.6941 58.418 96.9231 57.5532 96.9231 56.4321C96.9231 55.311 96.6941 54.4497 96.2361 53.8481C95.7781 53.2397 95.1219 52.9355 94.2674 52.9355C93.4129 52.9355 92.7532 53.2397 92.2884 53.8481C91.8304 54.4497 91.6014 55.311 91.6014 56.4321C91.6014 57.5532 91.8304 58.418 92.2884 59.0264C92.7532 59.6348 93.4129 59.939 94.2674 59.939ZM99.9891 56.4321C99.9891 58.0728 99.5174 59.4775 98.574 60.6465C97.6307 61.8086 96.1985 62.3896 94.2776 62.3896C92.3567 62.3896 90.9246 61.8086 89.9812 60.6465C89.0379 59.4775 88.5662 58.0728 88.5662 56.4321C88.5662 54.8188 89.0379 53.4209 89.9812 52.2383C90.9246 51.0557 92.3567 50.4644 94.2776 50.4644C96.1985 50.4644 97.6307 51.0557 98.574 52.2383C99.5174 53.4209 99.9891 54.8188 99.9891 56.4321ZM113.992 56.4116C113.992 55.5503 113.794 54.7881 113.397 54.125C113.007 53.4619 112.372 53.1304 111.49 53.1304C110.43 53.1304 109.702 53.6328 109.306 54.6377C109.101 55.1709 108.998 55.8477 108.998 56.668C108.998 57.9668 109.343 58.8794 110.034 59.4058C110.444 59.7134 110.929 59.8672 111.49 59.8672C112.303 59.8672 112.922 59.5527 113.346 58.9238C113.776 58.2949 113.992 57.4575 113.992 56.4116ZM112.331 50.5771C113.636 50.5771 114.74 51.0591 115.643 52.0229C116.552 52.9868 117.006 54.4019 117.006 56.2681C117.006 58.2368 116.562 59.7373 115.673 60.7695C114.792 61.8018 113.653 62.3179 112.259 62.3179C111.37 62.3179 110.632 62.0957 110.044 61.6514C109.723 61.4053 109.408 61.0464 109.101 60.5747V66.3989H106.209V50.8232H109.008V52.4741C109.323 51.9888 109.658 51.606 110.013 51.3257C110.663 50.8267 111.435 50.5771 112.331 50.5771ZM129.492 56.5654C129.307 56.6816 129.119 56.7773 128.928 56.8525C128.743 56.9209 128.487 56.9858 128.159 57.0474L127.502 57.1704C126.887 57.2798 126.446 57.4131 126.18 57.5703C125.728 57.8369 125.503 58.2505 125.503 58.811C125.503 59.3101 125.64 59.6724 125.913 59.8979C126.193 60.1167 126.532 60.2261 126.928 60.2261C127.557 60.2261 128.135 60.0415 128.661 59.6724C129.194 59.3032 129.471 58.6299 129.492 57.6523V56.5654ZM127.718 55.2017C128.258 55.1333 128.644 55.0479 128.876 54.9453C129.293 54.7676 129.502 54.4907 129.502 54.1147C129.502 53.6567 129.341 53.3423 129.02 53.1714C128.705 52.9937 128.241 52.9048 127.625 52.9048C126.935 52.9048 126.446 53.0757 126.159 53.4175C125.954 53.6704 125.817 54.0122 125.749 54.4429H122.929C122.991 53.4653 123.264 52.6621 123.749 52.0332C124.522 51.0488 125.848 50.5566 127.728 50.5566C128.952 50.5566 130.038 50.7993 130.989 51.2847C131.939 51.77 132.414 52.686 132.414 54.0327V59.1597C132.414 59.5151 132.421 59.9458 132.434 60.4517C132.455 60.8345 132.513 61.0942 132.609 61.231C132.704 61.3677 132.848 61.4805 133.039 61.5693V62H129.861C129.772 61.7744 129.71 61.5625 129.676 61.3643C129.642 61.166 129.615 60.9404 129.594 60.6875C129.191 61.125 128.726 61.4976 128.2 61.8052C127.571 62.1675 126.86 62.3486 126.067 62.3486C125.055 62.3486 124.218 62.0615 123.555 61.4873C122.898 60.9062 122.57 60.0859 122.57 59.0264C122.57 57.6523 123.1 56.6577 124.16 56.0425C124.741 55.7075 125.595 55.4683 126.723 55.3247L127.718 55.2017ZM143.341 50.5566C144.017 50.5566 144.619 50.707 145.145 51.0078C145.672 51.3018 146.099 51.7119 146.427 52.2383V46.9062H149.39V62H146.55V60.4517C146.133 61.1147 145.658 61.5967 145.125 61.8975C144.592 62.1982 143.928 62.3486 143.135 62.3486C141.83 62.3486 140.729 61.8223 139.834 60.7695C138.945 59.71 138.501 58.353 138.501 56.6987C138.501 54.7915 138.938 53.291 139.813 52.1973C140.695 51.1035 141.871 50.5566 143.341 50.5566ZM143.976 59.8877C144.803 59.8877 145.432 59.5801 145.863 58.9648C146.294 58.3496 146.509 57.5532 146.509 56.5757C146.509 55.2085 146.164 54.231 145.473 53.6431C145.05 53.2876 144.557 53.1099 143.997 53.1099C143.142 53.1099 142.513 53.4346 142.11 54.084C141.714 54.7266 141.515 55.5264 141.515 56.4834C141.515 57.5156 141.717 58.3428 142.12 58.9648C142.53 59.5801 143.149 59.8877 143.976 59.8877ZM162.419 56.5654C162.234 56.6816 162.046 56.7773 161.855 56.8525C161.67 56.9209 161.414 56.9858 161.086 57.0474L160.43 57.1704C159.814 57.2798 159.374 57.4131 159.107 57.5703C158.656 57.8369 158.43 58.2505 158.43 58.811C158.43 59.3101 158.567 59.6724 158.84 59.8979C159.121 60.1167 159.459 60.2261 159.855 60.2261C160.484 60.2261 161.062 60.0415 161.588 59.6724C162.122 59.3032 162.398 58.6299 162.419 57.6523V56.5654ZM160.645 55.2017C161.185 55.1333 161.571 55.0479 161.804 54.9453C162.221 54.7676 162.429 54.4907 162.429 54.1147C162.429 53.6567 162.269 53.3423 161.947 53.1714C161.633 52.9937 161.168 52.9048 160.553 52.9048C159.862 52.9048 159.374 53.0757 159.086 53.4175C158.881 53.6704 158.745 54.0122 158.676 54.4429H155.856C155.918 53.4653 156.191 52.6621 156.677 52.0332C157.449 51.0488 158.775 50.5566 160.655 50.5566C161.879 50.5566 162.966 50.7993 163.916 51.2847C164.866 51.77 165.341 52.686 165.341 54.0327V59.1597C165.341 59.5151 165.348 59.9458 165.362 60.4517C165.382 60.8345 165.44 61.0942 165.536 61.231C165.632 61.3677 165.775 61.4805 165.967 61.5693V62H162.788C162.699 61.7744 162.638 61.5625 162.604 61.3643C162.569 61.166 162.542 60.9404 162.521 60.6875C162.118 61.125 161.653 61.4976 161.127 61.8052C160.498 62.1675 159.787 62.3486 158.994 62.3486C157.982 62.3486 157.145 62.0615 156.482 61.4873C155.826 60.9062 155.498 60.0859 155.498 59.0264C155.498 57.6523 156.027 56.6577 157.087 56.0425C157.668 55.7075 158.522 55.4683 159.65 55.3247L160.645 55.2017ZM174.422 58.4316C174.484 58.9512 174.617 59.3203 174.822 59.5391C175.184 59.9287 175.854 60.1235 176.832 60.1235C177.406 60.1235 177.861 60.0381 178.196 59.8672C178.537 59.6963 178.708 59.4399 178.708 59.0981C178.708 58.77 178.572 58.5205 178.298 58.3496C178.025 58.1787 177.01 57.8848 175.253 57.4678C173.988 57.1533 173.096 56.7603 172.576 56.2886C172.057 55.8237 171.797 55.1538 171.797 54.2788C171.797 53.2466 172.2 52.3613 173.007 51.623C173.821 50.8779 174.962 50.5054 176.432 50.5054C177.826 50.5054 178.961 50.7856 179.836 51.3462C180.718 51.8999 181.224 52.8604 181.354 54.2275H178.431C178.39 53.8516 178.284 53.5542 178.114 53.3354C177.792 52.939 177.245 52.7407 176.473 52.7407C175.837 52.7407 175.383 52.8398 175.109 53.0381C174.843 53.2363 174.709 53.4688 174.709 53.7354C174.709 54.0703 174.853 54.313 175.14 54.4634C175.427 54.6206 176.442 54.8906 178.185 55.2734C179.347 55.5469 180.219 55.9604 180.8 56.5142C181.374 57.0747 181.661 57.7754 181.661 58.6162C181.661 59.7236 181.248 60.6294 180.421 61.3335C179.6 62.0308 178.329 62.3794 176.606 62.3794C174.849 62.3794 173.551 62.0103 172.71 61.272C171.876 60.5269 171.459 59.5801 171.459 58.4316H174.422Z" fill="#E2000F"/>
<path fill-rule="evenodd" clip-rule="evenodd" d="M29.5058 57.7617C29.6064 57.8711 29.7187 57.9911 29.8422 58.1198C30.4634 58.7671 31.3622 59.6301 32.4702 60.4911C34.7125 62.2335 37.6808 63.8667 40.8667 63.8667C44.0526 63.8667 47.0209 62.2335 49.2631 60.4911C50.3711 59.6301 51.27 58.7671 51.8912 58.1198C52.0147 57.9911 52.127 57.8711 52.2275 57.7617C52.1346 57.6684 52.032 57.5672 51.9201 57.4593C51.3002 56.8611 50.4022 56.0627 49.2947 55.2658C47.0574 53.6561 44.0781 52.1333 40.8667 52.1333C37.6553 52.1333 34.676 53.6561 32.4387 55.2658C31.3312 56.0627 30.4332 56.8611 29.8132 57.4593C29.7014 57.5672 29.5988 57.6684 29.5058 57.7617ZM53.6667 57.7333C54.5013 58.3976 54.501 58.3979 54.5008 58.3982L54.4986 58.4009L54.4939 58.4068L54.4782 58.4263C54.4649 58.4426 54.4461 58.4656 54.4219 58.4948C54.3735 58.5532 54.3035 58.6364 54.2129 58.741C54.0319 58.9501 53.7682 59.2449 53.4304 59.5969C52.7561 60.2996 51.7805 61.2366 50.5722 62.1756C48.1817 64.0332 44.75 66 40.8667 66C36.9834 66 33.5516 64.0332 31.1612 62.1756C29.9529 61.2366 28.9772 60.2996 28.3029 59.5969C27.9652 59.2449 27.7015 58.9501 27.5204 58.741C27.4299 58.6364 27.3598 58.5532 27.3114 58.4948C27.2873 58.4656 27.2685 58.4426 27.2552 58.4263L27.2395 58.4068L27.2347 58.4009L27.2331 58.3989C27.2329 58.3986 27.2321 58.3976 28.0667 57.7333C27.2578 57.038 27.258 57.0377 27.2583 57.0374L27.2605 57.0349L27.2653 57.0293L27.2813 57.011C27.2947 56.9957 27.3136 56.9743 27.3379 56.9471C27.3866 56.8928 27.4569 56.8154 27.5477 56.7182C27.7294 56.524 27.9936 56.2505 28.3319 55.9241C29.0074 55.2723 29.9839 54.4039 31.1927 53.5342C33.5881 51.8106 37.0088 50 40.8667 50C44.7246 50 48.1452 51.8106 50.5406 53.5342C51.7494 54.4039 52.726 55.2723 53.4015 55.9241C53.7398 56.2505 54.004 56.524 54.1856 56.7182C54.2765 56.8154 54.3468 56.8928 54.3954 56.9471C54.4198 56.9743 54.4387 56.9957 54.4521 57.011L54.468 57.0293L54.4729 57.0349L54.4745 57.0367C54.4747 57.037 54.4756 57.038 53.6667 57.7333ZM28.0667 57.7333L27.2583 57.0374C26.9245 57.4257 26.9132 57.997 27.2321 58.3976L28.0667 57.7333ZM53.6667 57.7333L54.4756 57.038C54.8093 57.4263 54.8197 57.9976 54.5008 58.3982L53.6667 57.7333Z" fill="#333333"/>
</svg>
