<?xml version="1.0" encoding="utf-8"?>
<!-- Generator: Adobe Illustrator 23.1.0, SVG Export Plug-In . SVG Version: 6.00 Build 0)  -->
<svg version="1.1" id="Capa_1" xmlns="http://www.w3.org/2000/svg" xmlns:xlink="http://www.w3.org/1999/xlink" x="0px" y="0px"
	 viewBox="0 0 193 104" style="enable-background:new 0 0 193 104;" xml:space="preserve">
<style type="text/css">
	.st0{fill:#FFFFFF;}
	.st1{fill:#333333;}
	.st2{fill-rule:evenodd;clip-rule:evenodd;fill:#333333;}
	.st3{fill-rule:evenodd;clip-rule:evenodd;fill:#FFFFFF;}
	.st4{fill:#E2000F;}
</style>
<path class="st0" d="M47,84.5C61.5,76,62.5,74,62.5,42.5c0-3.3,5-1.5,5-7.5c0-7-23.3-4-27.5-4H23c-13.6,0-7.7,6.7-3,10
	c-3,32.5,1,36.5,15.5,44.5c0,12.4,1.3,15.5,2,15.5l6.5,1.5l3-3.5V84.5z"/>
<circle class="st1" cx="41" cy="56" r="5"/>
<path class="st2" d="M24.7,49.3c0.4-0.4,1-0.4,1.4,0l3.2,3.2c0.4,0.4,0.4,1,0,1.4c-0.4,0.4-1,0.4-1.4,0l-3.2-3.2
	C24.3,50.3,24.3,49.7,24.7,49.3z"/>
<path class="st2" d="M52.8,53.9c-0.4-0.4-0.4-1,0-1.4l3.1-3.3c0.4-0.4,1-0.4,1.4,0c0.4,0.4,0.4,1,0,1.4l-3.1,3.3
	C53.8,54.3,53.2,54.3,52.8,53.9z"/>
<path class="st2" d="M48.1,50.8c-0.5-0.2-0.7-0.8-0.4-1.3l2-4c0.2-0.5,0.8-0.7,1.3-0.4c0.5,0.2,0.7,0.8,0.4,1.3l-2,4
	C49.2,50.9,48.6,51.1,48.1,50.8z"/>
<path class="st2" d="M43.8,48.9c-0.5-0.1-0.9-0.6-0.9-1.1l0.6-4.5c0.1-0.5,0.6-0.9,1.1-0.9c0.5,0.1,0.9,0.6,0.9,1.1L45,48
	C44.9,48.6,44.4,48.9,43.8,48.9z"/>
<path class="st2" d="M38.6,49.1c-0.5,0.1-1-0.3-1.1-0.9L37,43.8c-0.1-0.5,0.3-1,0.9-1.1c0.5-0.1,1,0.3,1.1,0.9l0.5,4.5
	C39.6,48.6,39.2,49.1,38.6,49.1z"/>
<path class="st2" d="M33.7,50.7c-0.5,0.2-1.1,0-1.3-0.5l-1.9-4.1c-0.2-0.5,0-1.1,0.5-1.3c0.5-0.2,1.1,0,1.3,0.5l1.9,4.1
	C34.4,49.9,34.2,50.5,33.7,50.7z"/>
<path class="st3" d="M55.3,30.5c-3.5-4-8.6-6.5-14.3-6.5s-10.8,2.5-14.3,6.5h2.4C32.3,27.7,36.4,26,41,26s8.7,1.7,11.9,4.5H55.3z"/>
<path class="st3" d="M25.7,79C11.2,73,1,58.7,1,42C1,19.9,18.9,2,41,2s40,17.9,40,40c0,16.5-10,30.7-24.3,36.8c0,0-0.1,0.1-0.1,0.1
	C71.5,72.8,82,58.1,82,41C82,18.4,63.6,0,41,0S0,18.4,0,41c0,17.3,10.7,32.1,25.9,38.1C25.8,79.1,25.7,79,25.7,79z"/>
<path class="st3" d="M19.5,62.5C14.8,57.3,12,50.5,12,43c0-16,13-29,29-29s29,13,29,29c0,7.5-2.8,14.3-7.5,19.5v0.5
	C67.8,57.5,71,50.1,71,42c0-16.6-13.4-30-30-30S11,25.4,11,42c0,8.1,3.2,15.5,8.5,20.9V62.5z"/>
<path class="st2" d="M17,32.4c-0.8,0.6-1.5,1.6-1.5,3.1c0,1.4,0.6,2.3,1.5,2.9c0.9,0.6,2,0.9,2.7,1.1c0.5,0.1,0.8,0.5,0.8,1v25
	c0,4.7,2.5,9.2,5.7,12.6c1.6,1.7,3.3,3.1,5,4c1.7,1,3.2,1.4,4.3,1.4c0.6,0,1,0.4,1,1v13c0,0,0,0.1,0,0.1c-0.1,0.6,0.1,1.6,0.8,2.4
	c0.6,0.8,1.7,1.5,3.7,1.5c2,0,3-0.7,3.6-1.5c0.7-0.9,0.9-1.9,0.9-2.5v-13c0-0.6,0.4-1,1-1c1.1,0,2.7-0.5,4.3-1.4
	c1.7-0.9,3.4-2.2,5-3.9c3.2-3.3,5.7-7.8,5.7-12.7v-25c0-0.5,0.4-0.9,0.9-1c0,0,0,0,0,0c0,0,0,0,0,0c0,0,0,0,0,0c0,0,0,0,0,0
	c0,0,0,0,0,0l0,0l0,0c0,0,0.1,0,0.1,0c0.1,0,0.3-0.1,0.5-0.1c0.4-0.1,1-0.3,1.5-0.6c1-0.6,2-1.5,2-3.3s-1-2.7-2-3.3
	c-0.5-0.3-1.1-0.5-1.5-0.6c-0.2-0.1-0.4-0.1-0.5-0.1c0,0-0.1,0-0.1,0H19.5C18.9,31.5,17.9,31.8,17,32.4z M62.5,30.5l0.1-1
	c0,0-0.1,0-0.1,0h-43c-1.1,0-2.5,0.4-3.7,1.4c-1.3,1-2.3,2.5-2.3,4.6c0,2.2,1,3.6,2.3,4.5c0.9,0.6,1.9,1,2.7,1.3v24.2
	c0,5.3,2.8,10.3,6.2,13.9c1.7,1.8,3.6,3.3,5.5,4.4c1.5,0.8,3,1.4,4.3,1.6v12c-0.1,1.1,0.2,2.6,1.2,3.8c1,1.3,2.8,2.3,5.3,2.3
	c2.5,0,4.2-1,5.2-2.3c1-1.3,1.3-2.7,1.3-3.7V85.4c1.4-0.2,2.8-0.7,4.3-1.5c1.9-1,3.8-2.5,5.5-4.3c3.4-3.6,6.2-8.5,6.2-14.1V41.3
	c0,0,0,0,0,0c0.5-0.1,1.2-0.4,2-0.8c1.5-0.8,3-2.3,3-5.1s-1.5-4.3-3-5.1c-0.7-0.4-1.4-0.6-2-0.8c-0.3-0.1-0.5-0.1-0.6-0.1
	c-0.1,0-0.1,0-0.2,0c0,0,0,0-0.1,0l0,0l0,0l0,0l0,0C62.6,29.5,62.6,29.5,62.5,30.5z"/>
<path class="st4" d="M80,54.8c-0.1-0.4-0.2-0.8-0.4-1.1c-0.3-0.5-0.8-0.7-1.5-0.7c-1,0-1.7,0.5-2,1.5c-0.2,0.5-0.3,1.2-0.3,2.1
	c0,0.8,0.1,1.5,0.3,2c0.3,0.9,1,1.4,2,1.4c0.7,0,1.2-0.2,1.5-0.6c0.3-0.4,0.5-0.8,0.5-1.4h3c-0.1,0.9-0.4,1.7-1,2.5
	c-0.9,1.3-2.3,1.9-4.1,1.9c-1.8,0-3.1-0.5-4-1.6c-0.8-1.1-1.3-2.5-1.3-4.2c0-1.9,0.5-3.4,1.4-4.5c0.9-1.1,2.2-1.6,3.9-1.6
	c1.4,0,2.5,0.3,3.4,0.9c0.9,0.6,1.4,1.7,1.6,3.3H80z M94.3,59.9c0.9,0,1.5-0.3,2-0.9c0.5-0.6,0.7-1.5,0.7-2.6c0-1.1-0.2-2-0.7-2.6
	c-0.5-0.6-1.1-0.9-2-0.9s-1.5,0.3-2,0.9c-0.5,0.6-0.7,1.5-0.7,2.6c0,1.1,0.2,2,0.7,2.6C92.8,59.6,93.4,59.9,94.3,59.9z M100,56.4
	c0,1.6-0.5,3-1.4,4.2c-0.9,1.2-2.4,1.7-4.3,1.7c-1.9,0-3.4-0.6-4.3-1.7c-0.9-1.2-1.4-2.6-1.4-4.2c0-1.6,0.5-3,1.4-4.2
	c0.9-1.2,2.4-1.8,4.3-1.8c1.9,0,3.4,0.6,4.3,1.8C99.5,53.4,100,54.8,100,56.4z M114,56.4c0-0.9-0.2-1.6-0.6-2.3c-0.4-0.7-1-1-1.9-1
	c-1.1,0-1.8,0.5-2.2,1.5c-0.2,0.5-0.3,1.2-0.3,2c0,1.3,0.3,2.2,1,2.7c0.4,0.3,0.9,0.5,1.5,0.5c0.8,0,1.4-0.3,1.9-0.9
	C113.8,58.3,114,57.5,114,56.4z M112.3,50.6c1.3,0,2.4,0.5,3.3,1.4c0.9,1,1.4,2.4,1.4,4.2c0,2-0.4,3.5-1.3,4.5c-0.9,1-2,1.5-3.4,1.5
	c-0.9,0-1.6-0.2-2.2-0.7c-0.3-0.2-0.6-0.6-0.9-1.1v5.8h-2.9V50.8h2.8v1.7c0.3-0.5,0.6-0.9,1-1.1C110.7,50.8,111.4,50.6,112.3,50.6z
	 M129.5,56.6c-0.2,0.1-0.4,0.2-0.6,0.3c-0.2,0.1-0.4,0.1-0.8,0.2l-0.7,0.1c-0.6,0.1-1.1,0.2-1.3,0.4c-0.5,0.3-0.7,0.7-0.7,1.2
	c0,0.5,0.1,0.9,0.4,1.1c0.3,0.2,0.6,0.3,1,0.3c0.6,0,1.2-0.2,1.7-0.6c0.5-0.4,0.8-1,0.8-2V56.6z M127.7,55.2
	c0.5-0.1,0.9-0.2,1.2-0.3c0.4-0.2,0.6-0.5,0.6-0.8c0-0.5-0.2-0.8-0.5-0.9c-0.3-0.2-0.8-0.3-1.4-0.3c-0.7,0-1.2,0.2-1.5,0.5
	c-0.2,0.3-0.3,0.6-0.4,1h-2.8c0.1-1,0.3-1.8,0.8-2.4c0.8-1,2.1-1.5,4-1.5c1.2,0,2.3,0.2,3.3,0.7c0.9,0.5,1.4,1.4,1.4,2.7v5.1
	c0,0.4,0,0.8,0,1.3c0,0.4,0.1,0.6,0.2,0.8c0.1,0.1,0.2,0.2,0.4,0.3V62h-3.2c-0.1-0.2-0.2-0.4-0.2-0.6c0-0.2-0.1-0.4-0.1-0.7
	c-0.4,0.4-0.9,0.8-1.4,1.1c-0.6,0.4-1.3,0.5-2.1,0.5c-1,0-1.8-0.3-2.5-0.9c-0.7-0.6-1-1.4-1-2.5c0-1.4,0.5-2.4,1.6-3
	c0.6-0.3,1.4-0.6,2.6-0.7L127.7,55.2z M143.3,50.6c0.7,0,1.3,0.2,1.8,0.5c0.5,0.3,1,0.7,1.3,1.2v-5.3h3V62h-2.8v-1.5
	c-0.4,0.7-0.9,1.1-1.4,1.4c-0.5,0.3-1.2,0.5-2,0.5c-1.3,0-2.4-0.5-3.3-1.6c-0.9-1.1-1.3-2.4-1.3-4.1c0-1.9,0.4-3.4,1.3-4.5
	C140.7,51.1,141.9,50.6,143.3,50.6z M144,59.9c0.8,0,1.5-0.3,1.9-0.9c0.4-0.6,0.6-1.4,0.6-2.4c0-1.4-0.3-2.3-1-2.9
	c-0.4-0.4-0.9-0.5-1.5-0.5c-0.9,0-1.5,0.3-1.9,1c-0.4,0.6-0.6,1.4-0.6,2.4c0,1,0.2,1.9,0.6,2.5C142.5,59.6,143.1,59.9,144,59.9z
	 M162.4,56.6c-0.2,0.1-0.4,0.2-0.6,0.3c-0.2,0.1-0.4,0.1-0.8,0.2l-0.7,0.1c-0.6,0.1-1.1,0.2-1.3,0.4c-0.5,0.3-0.7,0.7-0.7,1.2
	c0,0.5,0.1,0.9,0.4,1.1c0.3,0.2,0.6,0.3,1,0.3c0.6,0,1.2-0.2,1.7-0.6c0.5-0.4,0.8-1,0.8-2V56.6z M160.6,55.2
	c0.5-0.1,0.9-0.2,1.2-0.3c0.4-0.2,0.6-0.5,0.6-0.8c0-0.5-0.2-0.8-0.5-0.9c-0.3-0.2-0.8-0.3-1.4-0.3c-0.7,0-1.2,0.2-1.5,0.5
	c-0.2,0.3-0.3,0.6-0.4,1h-2.8c0.1-1,0.3-1.8,0.8-2.4c0.8-1,2.1-1.5,4-1.5c1.2,0,2.3,0.2,3.3,0.7c0.9,0.5,1.4,1.4,1.4,2.7v5.1
	c0,0.4,0,0.8,0,1.3c0,0.4,0.1,0.6,0.2,0.8c0.1,0.1,0.2,0.2,0.4,0.3V62h-3.2c-0.1-0.2-0.1-0.4-0.2-0.6c0-0.2-0.1-0.4-0.1-0.7
	c-0.4,0.4-0.9,0.8-1.4,1.1c-0.6,0.4-1.3,0.5-2.1,0.5c-1,0-1.8-0.3-2.5-0.9c-0.7-0.6-1-1.4-1-2.5c0-1.4,0.5-2.4,1.6-3
	c0.6-0.3,1.4-0.6,2.6-0.7L160.6,55.2z M174.4,58.4c0.1,0.5,0.2,0.9,0.4,1.1c0.4,0.4,1,0.6,2,0.6c0.6,0,1-0.1,1.4-0.3
	c0.3-0.2,0.5-0.4,0.5-0.8c0-0.3-0.1-0.6-0.4-0.7c-0.3-0.2-1.3-0.5-3-0.9c-1.3-0.3-2.2-0.7-2.7-1.2c-0.5-0.5-0.8-1.1-0.8-2
	c0-1,0.4-1.9,1.2-2.7c0.8-0.7,2-1.1,3.4-1.1c1.4,0,2.5,0.3,3.4,0.8c0.9,0.6,1.4,1.5,1.5,2.9h-2.9c0-0.4-0.1-0.7-0.3-0.9
	c-0.3-0.4-0.9-0.6-1.6-0.6c-0.6,0-1.1,0.1-1.4,0.3c-0.3,0.2-0.4,0.4-0.4,0.7c0,0.3,0.1,0.6,0.4,0.7c0.3,0.2,1.3,0.4,3,0.8
	c1.2,0.3,2,0.7,2.6,1.2c0.6,0.6,0.9,1.3,0.9,2.1c0,1.1-0.4,2-1.2,2.7c-0.8,0.7-2.1,1-3.8,1c-1.8,0-3.1-0.4-3.9-1.1
	c-0.8-0.7-1.3-1.7-1.3-2.8H174.4z"/>
<path class="st2" d="M29.5,57.8c0.1,0.1,0.2,0.2,0.3,0.4c0.6,0.6,1.5,1.5,2.6,2.4c2.2,1.7,5.2,3.4,8.4,3.4c3.2,0,6.2-1.6,8.4-3.4
	c1.1-0.9,2-1.7,2.6-2.4c0.1-0.1,0.2-0.2,0.3-0.4c-0.1-0.1-0.2-0.2-0.3-0.3c-0.6-0.6-1.5-1.4-2.6-2.2c-2.2-1.6-5.2-3.1-8.4-3.1
	s-6.2,1.5-8.4,3.1c-1.1,0.8-2,1.6-2.6,2.2C29.7,57.6,29.6,57.7,29.5,57.8z M53.7,57.7c0.8,0.7,0.8,0.7,0.8,0.7l0,0l0,0l0,0
	c0,0,0,0-0.1,0.1c0,0.1-0.1,0.1-0.2,0.2c-0.2,0.2-0.4,0.5-0.8,0.9c-0.7,0.7-1.6,1.6-2.9,2.6C48.2,64,44.8,66,40.9,66s-7.3-2-9.7-3.8
	c-1.2-0.9-2.2-1.9-2.9-2.6c-0.3-0.4-0.6-0.6-0.8-0.9c-0.1-0.1-0.2-0.2-0.2-0.2c0,0,0-0.1-0.1-0.1l0,0l0,0l0,0c0,0,0,0,0.8-0.7
	C27.3,57,27.3,57,27.3,57l0,0l0,0l0,0c0,0,0,0,0.1-0.1c0-0.1,0.1-0.1,0.2-0.2c0.2-0.2,0.4-0.5,0.8-0.8c0.7-0.7,1.7-1.5,2.9-2.4
	c2.4-1.7,5.8-3.5,9.7-3.5s7.3,1.8,9.7,3.5c1.2,0.9,2.2,1.7,2.9,2.4c0.3,0.3,0.6,0.6,0.8,0.8c0.1,0.1,0.2,0.2,0.2,0.2
	c0,0,0,0,0.1,0.1l0,0l0,0l0,0C54.5,57,54.5,57,53.7,57.7z M28.1,57.7L27.3,57c-0.3,0.4-0.3,1,0,1.4L28.1,57.7z M53.7,57.7l0.8-0.7
	c0.3,0.4,0.3,1,0,1.4L53.7,57.7z"/>
</svg>
